<svg width="74" height="74" viewBox="0 0 74 74" fill="none" xmlns="http://www.w3.org/2000/svg">
<circle cx="37" cy="37" r="37" fill="#F4F7FE"/>
<g clip-path="url(#clip0_1_83)">
<path d="M31.3477 35.543C31.914 35.543 32.373 35.0839 32.373 34.5176C32.373 33.9513 31.914 33.4922 31.3477 33.4922C30.7813 33.4922 30.3223 33.9513 30.3223 34.5176C30.3223 35.0839 30.7813 35.543 31.3477 35.543Z" fill="#321FDB"/>
<path d="M50.6021 37.8981C50.204 37.4954 49.5548 37.4918 49.152 37.8901L43.6563 43.3253L42.3266 41.9956C41.9262 41.5952 41.277 41.5952 40.8765 41.9956C40.4761 42.3961 40.4761 43.0453 40.8765 43.4457L42.9273 45.4965C43.0224 45.5919 43.1354 45.6675 43.2599 45.7191C43.3843 45.7706 43.5177 45.7971 43.6524 45.7969C43.913 45.7969 44.1736 45.6982 44.3734 45.5005L50.5941 39.3482C50.9968 38.95 51.0003 38.3007 50.6021 37.8981Z" fill="#321FDB"/>
<path d="M49.873 31.4414H42.627V24.127C42.627 21.3 40.327 19 37.5 19H25.127C22.3 19 20 21.3 20 24.127V34.5176C20 36.9935 21.7644 39.0651 24.1016 39.5415V42.7207C24.1016 42.9228 24.1613 43.1203 24.2732 43.2886C24.3852 43.4568 24.5443 43.5882 24.7307 43.6663C24.917 43.7444 25.1223 43.7657 25.3207 43.7275C25.5192 43.6893 25.7019 43.5934 25.846 43.4517L29.7167 39.6445H34.4238V44.7715C34.4238 47.5985 36.7238 49.8984 39.5508 49.8984H40.5762V52.9746C40.5762 53.1774 40.6363 53.3757 40.749 53.5443C40.8617 53.7129 41.0218 53.8443 41.2092 53.9219C41.3966 53.9995 41.6027 54.0198 41.8016 53.9803C42.0005 53.9407 42.1833 53.843 42.3267 53.6996L46.1278 49.8984H49.873C52.7001 49.8984 55 47.5985 55 44.7715V36.5684C55 33.7414 52.7001 31.4414 49.873 31.4414ZM34.4238 36.5684V37.5938H29.2969C29.0278 37.5937 28.7696 37.6995 28.5778 37.8881L26.1523 40.2738V38.6191C26.1523 38.0529 25.6932 37.5938 25.127 37.5938C23.4308 37.5938 22.0508 36.2138 22.0508 34.5176V24.127C22.0508 22.4308 23.4308 21.0508 25.127 21.0508H37.5C39.1962 21.0508 40.5762 22.4308 40.5762 24.127V31.4414H39.5508C36.7238 31.4414 34.4238 33.7414 34.4238 36.5684ZM52.9492 44.7715C52.9492 46.4677 51.5692 47.8477 49.873 47.8477H45.7031C45.5685 47.8477 45.4351 47.8742 45.3107 47.9257C45.1863 47.9773 45.0733 48.0528 44.9781 48.148L42.627 50.4991V48.873C42.627 48.3068 42.1679 47.8477 41.6016 47.8477H39.5508C37.8546 47.8477 36.4746 46.4677 36.4746 44.7715V36.5684C36.4746 34.8722 37.8546 33.4922 39.5508 33.4922H49.873C51.5692 33.4922 52.9492 34.8722 52.9492 36.5684V44.7715Z" fill="#321FDB"/>
<path d="M31.3477 23.1016C29.6515 23.1016 28.2715 24.4815 28.2715 26.1777C28.2715 26.744 28.7306 27.2031 29.2969 27.2031C29.8632 27.2031 30.3223 26.744 30.3223 26.1777C30.3223 25.6123 30.7823 25.1523 31.3477 25.1523C31.9131 25.1523 32.373 25.6123 32.373 26.1777C32.373 26.4443 32.0708 26.9676 31.6154 27.1488C30.8298 27.4612 30.3223 28.2093 30.3223 29.0546V30.416C30.3223 30.9823 30.7814 31.4414 31.3477 31.4414C31.9139 31.4414 32.3662 30.9823 32.3662 30.416L32.3666 29.0544C33.5355 28.5893 34.4238 27.3526 34.4238 26.1777C34.4238 24.4815 33.0439 23.1016 31.3477 23.1016Z" fill="#321FDB"/>
</g>
<defs>
<clipPath id="clip0_1_83">
<rect width="35" height="35" fill="white" transform="translate(20 19)"/>
</clipPath>
</defs>
</svg>
