<svg width="74" height="74" viewBox="0 0 74 74" fill="none" xmlns="http://www.w3.org/2000/svg">
<circle cx="37" cy="37" r="37" fill="#F4F7FE"/>
<path d="M28 28H40" stroke="#F9B115" stroke-width="3" stroke-miterlimit="10" stroke-linecap="round" stroke-linejoin="round"/>
<path d="M40 33H28" stroke="#F9B115" stroke-width="3" stroke-miterlimit="10" stroke-linecap="round" stroke-linejoin="round"/>
<path d="M38.924 21H27.0759C23.7204 21 21 23.7458 21 27.1333V33.2667C21 36.654 23.7204 39.4 27.0759 39.4V44L31.6329 39.4H38.924C42.2796 39.4 45 36.654 45 33.2667V27.1333C45 23.7458 42.2796 21 38.924 21Z" stroke="#F9B115" stroke-width="3" stroke-miterlimit="10" stroke-linecap="round" stroke-linejoin="round"/>
<path d="M50.8296 35H50.924C54.2796 35 57 37.6984 57 41.0274V46.4521C57 49.7808 54.2796 52.4795 50.924 52.4795V57L46.3671 52.4795H39.0759C35.7204 52.4795 33 49.7808 33 46.4521V45.9356" stroke="#F9B115" stroke-width="3" stroke-miterlimit="10" stroke-linecap="round" stroke-linejoin="round"/>
</svg>
