<svg width="36" height="36" viewBox="0 0 36 36" fill="none" xmlns="http://www.w3.org/2000/svg">
<path d="M24.9806 11.0194C24.8762 10.9148 24.7521 10.8318 24.6155 10.7752C24.4789 10.7186 24.3326 10.6895 24.1847 10.6895C24.0369 10.6895 23.8905 10.7186 23.7539 10.7752C23.6173 10.8318 23.4933 10.9148 23.3888 11.0194L18 16.4138L12.6056 11.0194C12.3945 10.8083 12.1082 10.6897 11.8097 10.6897C11.5112 10.6897 11.2249 10.8083 11.0138 11.0194C10.8027 11.2305 10.6841 11.5168 10.6841 11.8153C10.6841 12.1139 10.8027 12.4002 11.0138 12.6113L16.4081 18L11.0138 23.3944C10.8027 23.6055 10.6841 23.8918 10.6841 24.1903C10.6841 24.4889 10.8027 24.7752 11.0138 24.9863C11.2249 25.1974 11.5112 25.316 11.8097 25.316C12.1082 25.316 12.3945 25.1974 12.6056 24.9863L18 19.5919L23.3944 24.9863C23.6055 25.1974 23.8918 25.316 24.1903 25.316C24.4889 25.316 24.7752 25.1974 24.9863 24.9863C25.1974 24.7752 25.316 24.4889 25.316 24.1903C25.316 23.8918 25.1974 23.6055 24.9863 23.3944L19.5919 18L24.9863 12.6057C25.1951 12.3941 25.3117 12.1086 25.3106 11.8114C25.3095 11.5142 25.1909 11.2294 24.9806 11.0194Z" fill="#606176"/>
<path d="M18 1.6875C14.7737 1.6875 11.6198 2.64421 8.93727 4.43665C6.25469 6.22909 4.16388 8.77676 2.92922 11.7575C1.69457 14.7382 1.37153 18.0181 2.00095 21.1824C2.63037 24.3467 4.18398 27.2533 6.46533 29.5347C8.74667 31.816 11.6533 33.3696 14.8176 33.9991C17.9819 34.6285 21.2618 34.3054 24.2425 33.0708C27.2232 31.8361 29.7709 29.7453 31.5634 27.0627C33.3558 24.3802 34.3125 21.2263 34.3125 18C34.3125 13.6737 32.5939 9.52451 29.5347 6.46532C26.4755 3.40613 22.3264 1.6875 18 1.6875ZM18 32.0625C15.2187 32.0625 12.4999 31.2377 10.1873 29.6925C7.87473 28.1473 6.07231 25.9511 5.00795 23.3815C3.94359 20.8119 3.66511 17.9844 4.20771 15.2565C4.75032 12.5287 6.08964 10.023 8.05632 8.05631C10.023 6.08963 12.5287 4.75031 15.2565 4.20771C17.9844 3.6651 20.8119 3.94359 23.3815 5.00794C25.9511 6.0723 28.1473 7.87473 29.6925 10.1873C31.2378 12.4999 32.0625 15.2187 32.0625 18C32.0625 19.8467 31.6988 21.6753 30.9921 23.3815C30.2854 25.0876 29.2495 26.6379 27.9437 27.9437C26.6379 29.2495 25.0876 30.2853 23.3815 30.9921C21.6754 31.6988 19.8467 32.0625 18 32.0625Z" fill="#606176"/>
</svg>
