<svg width="25" height="25" viewBox="0 0 25 25" fill="none" xmlns="http://www.w3.org/2000/svg">
<path d="M17.3481 7.65223C17.2755 7.57959 17.1894 7.52196 17.0945 7.48265C16.9997 7.44333 16.898 7.4231 16.7954 7.4231C16.6927 7.4231 16.591 7.44333 16.4962 7.48265C16.4013 7.52196 16.3152 7.57959 16.2426 7.65223L12.5004 11.3983L8.75434 7.65223C8.60775 7.50563 8.40892 7.42328 8.20161 7.42328C7.99429 7.42328 7.79547 7.50563 7.64887 7.65223C7.50228 7.79882 7.41992 7.99764 7.41992 8.20496C7.41992 8.41228 7.50228 8.6111 7.64887 8.75769L11.395 12.4999L7.64887 16.246C7.50228 16.3926 7.41992 16.5914 7.41992 16.7987C7.41992 17.006 7.50228 17.2048 7.64887 17.3514C7.79547 17.498 7.99429 17.5804 8.20161 17.5804C8.40892 17.5804 8.60775 17.498 8.75434 17.3514L12.5004 13.6054L16.2465 17.3514C16.3931 17.498 16.5919 17.5804 16.7993 17.5804C17.0066 17.5804 17.2054 17.498 17.352 17.3514C17.4986 17.2048 17.5809 17.006 17.5809 16.7987C17.5809 16.5914 17.4986 16.3926 17.352 16.246L13.6059 12.4999L17.352 8.75379C17.497 8.6069 17.578 8.4086 17.5772 8.2022C17.5765 7.99581 17.4941 7.79809 17.3481 7.65223Z" fill="white"/>
<path d="M12.5 1.17188C10.2595 1.17188 8.06934 1.83626 6.20644 3.08101C4.34354 4.32576 2.89158 6.09497 2.03418 8.16491C1.17678 10.2349 0.952449 12.5126 1.38955 14.71C1.82665 16.9074 2.90554 18.9259 4.48981 20.5102C6.07408 22.0945 8.09256 23.1734 10.29 23.6105C12.4874 24.0476 14.7651 23.8232 16.8351 22.9658C18.905 22.1084 20.6742 20.6565 21.919 18.7936C23.1637 16.9307 23.8281 14.7405 23.8281 12.5C23.8281 9.49559 22.6346 6.61424 20.5102 4.48981C18.3858 2.36537 15.5044 1.17188 12.5 1.17188ZM12.5 22.2656C10.5685 22.2656 8.68046 21.6929 7.07452 20.6198C5.46857 19.5468 4.21688 18.0216 3.47774 16.2371C2.73861 14.4527 2.54522 12.4892 2.92202 10.5948C3.29883 8.70048 4.22892 6.96041 5.59467 5.59466C6.96041 4.22891 8.70048 3.29883 10.5948 2.92202C12.4892 2.54521 14.4527 2.7386 16.2371 3.47774C18.0216 4.21688 19.5468 5.46856 20.6198 7.07451C21.6929 8.68046 22.2656 10.5685 22.2656 12.5C22.2656 13.7824 22.013 15.0523 21.5223 16.2371C21.0315 17.422 20.3122 18.4985 19.4053 19.4053C18.4985 20.3122 17.422 21.0315 16.2371 21.5223C15.0523 22.013 13.7824 22.2656 12.5 22.2656Z" fill="white"/>
</svg>
