<svg width="74" height="74" viewBox="0 0 74 74" fill="none" xmlns="http://www.w3.org/2000/svg">
<circle cx="37" cy="37" r="37" fill="#F4F7FE"/>
<path d="M37.6 34.8C33.06 33.62 31.6 32.4 31.6 30.5C31.6 28.32 33.62 26.8 37 26.8C39.84 26.8 41.26 27.88 41.78 29.6C42.02 30.4 42.68 31 43.52 31H44.12C45.44 31 46.38 29.7 45.92 28.46C45.08 26.1 43.12 24.14 40 23.38V22C40 20.34 38.66 19 37 19C35.34 19 34 20.34 34 22V23.32C30.12 24.16 27 26.68 27 30.54C27 35.16 30.82 37.46 36.4 38.8C41.4 40 42.4 41.76 42.4 43.62C42.4 45 41.42 47.2 37 47.2C33.7 47.2 32 46.02 31.34 44.34C31.04 43.56 30.36 43 29.54 43H28.98C27.64 43 26.7 44.36 27.2 45.6C28.34 48.38 31 50.02 34 50.66V52C34 53.66 35.34 55 37 55C38.66 55 40 53.66 40 52V50.7C43.9 49.96 47 47.7 47 43.6C47 37.92 42.14 35.98 37.6 34.8Z" fill="#321FDB"/>
</svg>
