<svg width="18" height="18" viewBox="0 0 18 18" fill="none" xmlns="http://www.w3.org/2000/svg">
<path d="M15.75 13.5V11.25C15.75 11.1008 15.6907 10.9577 15.5852 10.8523C15.4798 10.7468 15.3367 10.6875 15.1875 10.6875C15.0383 10.6875 14.8952 10.7468 14.7898 10.8523C14.6843 10.9577 14.625 11.1008 14.625 11.25V13.5C14.625 13.6492 14.5657 13.7923 14.4602 13.8977C14.3548 14.0032 14.2117 14.0625 14.0625 14.0625H3.9375C3.78832 14.0625 3.64524 14.0032 3.53975 13.8977C3.43426 13.7923 3.375 13.6492 3.375 13.5V11.25C3.375 11.1008 3.31574 10.9577 3.21025 10.8523C3.10476 10.7468 2.96168 10.6875 2.8125 10.6875C2.66332 10.6875 2.52024 10.7468 2.41475 10.8523C2.30926 10.9577 2.25 11.1008 2.25 11.25V13.5C2.25 13.9476 2.42779 14.3768 2.74426 14.6932C3.06072 15.0097 3.48995 15.1875 3.9375 15.1875H14.0625C14.5101 15.1875 14.9393 15.0097 15.2557 14.6932C15.5722 14.3768 15.75 13.9476 15.75 13.5ZM12.1613 10.5638L9.34875 12.8138C9.24944 12.8922 9.12657 12.9349 9 12.9349C8.87343 12.9349 8.75056 12.8922 8.65125 12.8138L5.83875 10.5638C5.73627 10.467 5.67384 10.3353 5.66379 10.1948C5.65375 10.0542 5.69684 9.915 5.78453 9.80469C5.87221 9.69437 5.99812 9.62099 6.13732 9.59905C6.27652 9.57712 6.41889 9.60824 6.53625 9.68625L8.4375 11.205V3.375C8.4375 3.22582 8.49676 3.08274 8.60225 2.97725C8.70774 2.87176 8.85082 2.8125 9 2.8125C9.14918 2.8125 9.29226 2.87176 9.39775 2.97725C9.50324 3.08274 9.5625 3.22582 9.5625 3.375V11.205L11.4637 9.68625C11.5204 9.63278 11.5875 9.59166 11.6609 9.56549C11.7343 9.53933 11.8123 9.52868 11.8899 9.53423C11.9676 9.53978 12.0433 9.56141 12.1122 9.59774C12.1811 9.63407 12.2417 9.68431 12.2902 9.74529C12.3387 9.80626 12.3739 9.87664 12.3938 9.95196C12.4136 10.0273 12.4176 10.1059 12.4055 10.1828C12.3934 10.2598 12.3654 10.3334 12.3234 10.3989C12.2813 10.4645 12.2261 10.5206 12.1613 10.5638Z" fill="black"/>
</svg>
