<svg width="18" height="18" viewBox="0 0 18 18" fill="none" xmlns="http://www.w3.org/2000/svg">
<g clip-path="url(#clip0_796_802)">
<path d="M9 3.63672C5.56091 3.63672 2.44216 5.51828 0.140841 8.57443C-0.0469469 8.82481 -0.0469469 9.17461 0.140841 9.425C2.44216 12.4848 5.56091 14.3664 9 14.3664C12.4391 14.3664 15.5578 12.4848 17.8592 9.42868C18.0469 9.1783 18.0469 8.8285 17.8592 8.57811C15.5578 5.51828 12.4391 3.63672 9 3.63672ZM9.2467 12.7794C6.96379 12.923 5.07855 11.0414 5.22215 8.75485C5.33998 6.86961 6.86806 5.34154 8.7533 5.22371C11.0362 5.08011 12.9214 6.96166 12.7778 9.24826C12.6563 11.1298 11.1283 12.6579 9.2467 12.7794ZM9.13256 11.0341C7.90273 11.1114 6.88647 10.0988 6.96748 8.869C7.03007 7.85274 7.85486 7.03162 8.87113 6.96535C10.101 6.88802 11.1172 7.9006 11.0362 9.13043C10.9699 10.1504 10.1451 10.9715 9.13256 11.0341Z" fill="black"/>
</g>
<defs>
<clipPath id="clip0_796_802">
<rect width="18" height="18" fill="white"/>
</clipPath>
</defs>
</svg>
