<svg width="18" height="18" viewBox="0 0 18 18" fill="none" xmlns="http://www.w3.org/2000/svg">
<path d="M17.8856 8.64787C17.7248 8.42789 13.8933 3.26172 8.99989 3.26172C4.10646 3.26172 0.274848 8.42789 0.114219 8.64766C0.0399969 8.74934 0 8.87197 0 8.99787C0 9.12376 0.0399969 9.24639 0.114219 9.34807C0.274848 9.56805 4.10646 14.7342 8.99989 14.7342C13.8933 14.7342 17.7248 9.56801 17.8856 9.34825C17.9599 9.24662 17.9999 9.12397 17.9999 8.99806C17.9999 8.87215 17.9599 8.7495 17.8856 8.64787ZM8.99989 13.5474C5.39536 13.5474 2.27345 10.1185 1.34929 8.99757C2.27225 7.87563 5.38762 4.44852 8.99989 4.44852C12.6043 4.44852 15.726 7.87682 16.6505 8.99837C15.7275 10.1203 12.6122 13.5474 8.99989 13.5474Z" fill="#1670f8"/>
<path d="M8.9999 5.4375C7.03671 5.4375 5.43945 7.03475 5.43945 8.99795C5.43945 10.9611 7.03671 12.5584 8.9999 12.5584C10.9631 12.5584 12.5604 10.9611 12.5604 8.99795C12.5604 7.03475 10.9631 5.4375 8.9999 5.4375ZM8.9999 11.3716C7.69103 11.3716 6.62629 10.3068 6.62629 8.99795C6.62629 7.68912 7.69107 6.62434 8.9999 6.62434C10.3087 6.62434 11.3735 7.68912 11.3735 8.99795C11.3735 10.3068 10.3088 11.3716 8.9999 11.3716Z" fill="#1670f8"/>
</svg>
