<svg width="36" height="36" viewBox="0 0 36 36" fill="none" xmlns="http://www.w3.org/2000/svg">
<path d="M18 36C27.9411 36 36 27.9411 36 18C36 8.05887 27.9411 0 18 0C8.05887 0 0 8.05887 0 18C0 27.9411 8.05887 36 18 36Z" fill="#3A559F"/>
<path d="M23.7027 15.8686L23.3407 19.0043C23.3257 19.1474 23.2586 19.28 23.1523 19.3769C23.0459 19.4738 22.9077 19.5283 22.7639 19.53H19.4911L19.4748 28.8266C19.4759 28.9368 19.4336 29.0429 19.357 29.1222C19.2805 29.2014 19.1758 29.2473 19.0657 29.25H15.75C15.6949 29.25 15.6403 29.2389 15.5896 29.2174C15.5388 29.1958 15.493 29.1642 15.4548 29.1245C15.4166 29.0847 15.3868 29.0377 15.3672 28.9861C15.3477 28.9346 15.3387 28.8796 15.3409 28.8245V19.53H12.8864C12.8093 19.5292 12.7331 19.5132 12.6622 19.483C12.5913 19.4527 12.527 19.4088 12.473 19.3537C12.4191 19.2986 12.3765 19.2335 12.3478 19.1619C12.319 19.0904 12.3046 19.0139 12.3055 18.9368L12.2932 15.8011C12.2921 15.7238 12.3063 15.647 12.3349 15.5751C12.3635 15.5032 12.406 15.4376 12.4599 15.3822C12.5139 15.3267 12.5782 15.2824 12.6493 15.2518C12.7203 15.2212 12.7967 15.2049 12.8741 15.2039H15.3409V12.1766C15.3409 8.6625 17.4273 6.75 20.4873 6.75H22.995C23.0725 6.7508 23.1491 6.7669 23.2205 6.79738C23.2917 6.82785 23.3563 6.8721 23.4105 6.92759C23.4647 6.98308 23.5073 7.04872 23.5361 7.12074C23.5648 7.19276 23.579 7.26974 23.578 7.34727V9.98591C23.579 10.0634 23.5648 10.1404 23.5361 10.2124C23.5073 10.2845 23.4647 10.3501 23.4105 10.4056C23.3563 10.4611 23.2917 10.5053 23.2205 10.5358C23.1491 10.5663 23.0725 10.5824 22.995 10.5832H21.4568C19.7939 10.5832 19.4707 11.4014 19.4707 12.5836V15.2039H23.1259C23.209 15.2049 23.291 15.2235 23.3664 15.2585C23.4418 15.2935 23.509 15.344 23.5635 15.4068C23.6179 15.4696 23.6585 15.5432 23.6825 15.6228C23.7065 15.7024 23.7134 15.7862 23.7027 15.8686Z" fill="white"/>
</svg>
