<svg width="36" height="36" viewBox="0 0 36 36" fill="none" xmlns="http://www.w3.org/2000/svg">
<g clip-path="url(#clip0_67_73)">
<path d="M18 35.9998C27.9411 35.9998 36 27.9409 36 17.9998C36 8.05863 27.9411 -0.000244141 18 -0.000244141C8.05888 -0.000244141 0 8.05863 0 17.9998C0 27.9409 8.05888 35.9998 18 35.9998Z" fill="#EDEDED"/>
<path d="M28.1437 16.0266H19.2141C18.8203 16.0266 18.5016 16.3454 18.5016 16.7391V19.5938C18.5016 19.9875 18.8203 20.3063 19.2141 20.3063H24.2437C23.6953 21.736 22.6641 22.9313 21.3562 23.6907L23.4984 27.4032C26.9344 25.4157 28.9687 21.9235 28.9687 18.0188C28.9687 17.461 28.9266 17.0625 28.8469 16.6172C28.7812 16.275 28.4859 16.0266 28.1437 16.0266Z" fill="#167EE6"/>
<path d="M18.0234 24.5906C15.5625 24.5906 13.4156 23.2453 12.2625 21.2578L8.54999 23.3953C10.4391 26.6719 13.9781 28.875 18.0234 28.875C20.0109 28.875 21.8812 28.3406 23.4984 27.4078V27.4031L21.3562 23.6906C20.3719 24.2625 19.2375 24.5906 18.0234 24.5906Z" fill="#12B347"/>
<path d="M23.4938 27.4079V27.4032L21.3516 23.6907C20.3719 24.2579 19.2375 24.5907 18.0234 24.5907V28.875C20.0109 28.875 21.8813 28.3407 23.4938 27.4079Z" fill="#0F993E"/>
<path d="M11.3625 17.9297C11.3625 16.7157 11.6953 15.5813 12.2625 14.6016L8.55 12.4641C7.6125 14.0719 7.07812 15.9375 7.07812 17.9297C7.07812 19.9219 7.6125 21.7875 8.55 23.3954L12.2625 21.2579C11.6906 20.2782 11.3625 19.1438 11.3625 17.9297Z" fill="#FFD500"/>
<path d="M18.0234 11.2688C19.6266 11.2688 21.1031 11.8406 22.2516 12.7875C22.5375 13.0219 22.95 13.0031 23.2078 12.7453L25.2281 10.725C25.5234 10.4297 25.5 9.94688 25.1859 9.675C23.2594 7.99688 20.7516 6.98438 18.0234 6.98438C13.9781 6.98438 10.4391 9.1875 8.54999 12.4641L12.2625 14.6016C13.4156 12.6141 15.5625 11.2688 18.0234 11.2688Z" fill="#FF4B26"/>
<path d="M22.2516 12.7875C22.5375 13.0219 22.95 13.0031 23.2078 12.7453L25.2281 10.725C25.5234 10.4297 25.5 9.94688 25.1859 9.675C23.2594 7.99688 20.7516 6.98438 18.0234 6.98438V11.2688C19.6266 11.2688 21.1031 11.8359 22.2516 12.7875Z" fill="#D93F21"/>
</g>
<defs>
<clipPath id="clip0_67_73">
<rect width="36" height="36" fill="white"/>
</clipPath>
</defs>
</svg>
