<svg width="36" height="36" viewBox="0 0 36 36" fill="none" xmlns="http://www.w3.org/2000/svg">
<g clip-path="url(#clip0_67_68)">
<path d="M18 35.9998C27.9411 35.9998 36 27.9409 36 17.9998C36 8.05863 27.9411 -0.000244141 18 -0.000244141C8.05888 -0.000244141 0 8.05863 0 17.9998C0 27.9409 8.05888 35.9998 18 35.9998Z" fill="#007AB9"/>
<path d="M28.7548 19.448V26.869H24.4523V19.9454C24.4523 18.2069 23.8311 17.0197 22.2733 17.0197C21.0845 17.0197 20.3783 17.819 20.0664 18.5929C19.9531 18.8695 19.9239 19.2536 19.9239 19.6415V26.8687H15.6211C15.6211 26.8687 15.6789 15.1423 15.6211 13.9285H19.9243V15.7622C19.9156 15.7766 19.9034 15.7908 19.8957 15.8046H19.9243V15.7622C20.496 14.8824 21.5158 13.6246 23.8019 13.6246C26.6326 13.6246 28.7548 15.4741 28.7548 19.448ZM11.12 7.6908C9.64816 7.6908 8.68524 8.65693 8.68524 9.92628C8.68524 11.1687 9.62025 12.1627 11.0635 12.1627H11.0914C12.5921 12.1627 13.5252 11.1687 13.5252 9.92628C13.4966 8.65693 12.5921 7.6908 11.12 7.6908ZM8.94097 26.869H13.2422V13.9285H8.94097V26.869Z" fill="#F1F2F2"/>
</g>
<defs>
<clipPath id="clip0_67_68">
<rect width="36" height="36" fill="white"/>
</clipPath>
</defs>
</svg>
