<svg width="135" height="61" viewBox="0 0 135 61" fill="none" xmlns="http://www.w3.org/2000/svg">
<path d="M16.348 23.6706L0 23.4911C1.06041 31.0289 9.51424 32.7937 13.6086 32.7339C21.8091 32.0878 23.9771 37.1309 24.036 39.7333C24.3188 29.1086 19.0285 24.5978 16.348 23.6706Z" fill="url(#paint0_linear_1_63)"/>
<path d="M34.6069 39.7329C34.3233 29.1977 38.6724 25.2292 42.3168 23.8056L48.7751 18.2888L55.6874 9.56885C54.7903 15.7974 58.7005 23.8056 45.064 32.7925C42.0465 34.7811 34.6659 37.1525 34.6069 39.7329Z" fill="url(#paint1_linear_1_63)"/>
<path d="M23.9162 39.1653C24.0579 29.2832 18.7187 24.7391 16.0313 23.7024C22.7644 23.9867 27.8143 26.3091 29.4976 27.4348C33.1122 24.3778 39.7449 23.6727 42.6094 23.7024C35.9472 26.1906 34.636 35.0478 34.8132 39.1653V48.6741C34.6714 55.7835 27.4894 59.4567 23.9162 60.4046V39.1653Z" fill="url(#paint2_linear_1_63)"/>
<circle cx="28.8984" cy="18.0062" r="5.69531" fill="white"/>
<path d="M40.4999 40.172V58.2419H52.44V54.4011H44.3222V50.9993H52.1488V47.4512H44.3222V44.0493H52.44V40.172H40.4999Z" fill="url(#paint3_linear_1_63)"/>
<path d="M60.8101 40.172L54.2576 58.2419H58.3347L59.6452 54.6206H66.0157L67.3626 58.2419H71.4397L64.8872 40.172H60.8101ZM62.8486 45.8051L64.6324 50.8164H61.0285L62.8486 45.8051Z" fill="url(#paint4_linear_1_63)"/>
<path d="M81.0011 39.733C76.0503 39.733 71.4636 43.3543 71.4636 49.2069C71.4636 55.0961 76.0503 58.7174 81.0011 58.7174C83.3673 58.7174 85.697 57.9493 87.9176 56.3764L85.9519 53.4501C83.8405 54.8401 82.3844 54.9864 81.0011 54.9864C78.1617 54.9864 75.3587 52.3161 75.3587 49.2069C75.3587 46.0977 78.1617 43.4641 81.0011 43.4641C82.3844 43.4641 83.8405 43.6104 85.9519 45.0004L87.9176 42.0741C85.697 40.5012 83.3673 39.733 81.0011 39.733Z" fill="url(#paint5_linear_1_63)"/>
<path d="M89.736 40.172V58.2419H93.5583V51.1456H100.111V58.2419H103.933V40.172H100.111V47.3048H93.5583V40.172H89.736Z" fill="url(#paint6_linear_1_63)"/>
<path d="M106.48 40.172V58.2419H118.42V54.4011H110.302V50.9993H118.129V47.4512H110.302V44.0493H118.42V40.172H106.48Z" fill="url(#paint7_linear_1_63)"/>
<path d="M128.229 40.172H120.949V58.2419H124.771V54.8035H125.535L129.722 58.2419H135L130.304 54.2914C133.107 53.3769 134.927 50.6335 134.927 47.4146C134.927 43.4275 132.161 40.172 128.229 40.172ZM124.771 44.1956H127.829C129.612 44.1956 130.996 45.6222 130.996 47.4146C130.996 49.1704 129.576 50.5238 127.829 50.6335H124.771V44.1956Z" fill="url(#paint8_linear_1_63)"/>
<path d="M76.0958 11.7079C72.5098 11.7079 69.1876 14.3183 69.1876 18.5371C69.1876 22.7822 72.5098 25.3925 76.0958 25.3925C77.8096 25.3925 79.4971 24.8388 81.1055 23.705L79.6817 21.5956C78.1524 22.5976 77.0977 22.7031 76.0958 22.7031C74.0391 22.7031 72.0089 20.7783 72.0089 18.5371C72.0089 16.2958 74.0391 14.3974 76.0958 14.3974C77.0977 14.3974 78.1524 14.5029 79.6817 15.5048L81.1055 13.3954C79.4971 12.2617 77.8096 11.7079 76.0958 11.7079Z" fill="white"/>
<path d="M88.2224 11.7079C84.4255 11.7079 81.3669 14.7665 81.3669 18.5371C81.3669 22.3339 84.4255 25.3925 88.2224 25.3925C92.0193 25.3925 95.1042 22.3339 95.1042 18.5371C95.1042 14.7665 92.0193 11.7079 88.2224 11.7079ZM88.2224 14.3974C90.279 14.3974 92.283 16.2958 92.283 18.5371C92.283 20.7783 90.279 22.7031 88.2224 22.7031C86.1921 22.7031 84.1882 20.7783 84.1882 18.5371C84.1882 16.2958 86.1921 14.3974 88.2224 14.3974Z" fill="white"/>
<path d="M103.543 11.7079C99.7463 11.7079 96.6877 14.7665 96.6877 18.5371C96.6877 22.3339 99.7463 25.3925 103.543 25.3925C107.34 25.3925 110.425 22.3339 110.425 18.5371C110.425 14.7665 107.34 11.7079 103.543 11.7079ZM103.543 14.3974C105.6 14.3974 107.604 16.2958 107.604 18.5371C107.604 20.7783 105.6 22.7031 103.543 22.7031C101.513 22.7031 99.509 20.7783 99.509 18.5371C99.509 16.2958 101.513 14.3974 103.543 14.3974Z" fill="white"/>
<path d="M112.008 12.0244V25.0497H120.71V22.2812H114.856V12.0244H112.008Z" fill="white"/>
<path d="M67.3333 13.5611L56.8847 10.1641L56.4027 12.0003L67.3333 13.5611Z" fill="white"/>
<path d="M41.9766 17.1046V8.57576C41.9766 4.39178 45.3683 1 49.5523 1H126.581C130.764 1 134.156 4.39178 134.156 8.57576V27.2384C134.156 31.4224 130.764 34.8142 126.581 34.8142H61.1571" stroke="white" stroke-width="1.51515"/>
<defs>
<linearGradient id="paint0_linear_1_63" x1="12.0234" y1="23.4911" x2="12.0234" y2="39.7333" gradientUnits="userSpaceOnUse">
<stop stop-color="white"/>
<stop offset="1" stop-color="#D6D6D6"/>
</linearGradient>
<linearGradient id="paint1_linear_1_63" x1="45.1406" y1="9.56885" x2="45.1406" y2="39.7329" gradientUnits="userSpaceOnUse">
<stop stop-color="white"/>
<stop offset="1" stop-color="#D6D6D6"/>
</linearGradient>
<linearGradient id="paint2_linear_1_63" x1="29.3204" y1="23.7015" x2="29.3204" y2="60.4046" gradientUnits="userSpaceOnUse">
<stop stop-color="white"/>
<stop offset="1" stop-color="#D6D6D6"/>
</linearGradient>
<linearGradient id="paint3_linear_1_63" x1="87.7499" y1="39.733" x2="87.7499" y2="58.7174" gradientUnits="userSpaceOnUse">
<stop stop-color="white"/>
<stop offset="1" stop-color="white"/>
</linearGradient>
<linearGradient id="paint4_linear_1_63" x1="87.7499" y1="39.733" x2="87.7499" y2="58.7174" gradientUnits="userSpaceOnUse">
<stop stop-color="white"/>
<stop offset="1" stop-color="white"/>
</linearGradient>
<linearGradient id="paint5_linear_1_63" x1="87.7499" y1="39.733" x2="87.7499" y2="58.7174" gradientUnits="userSpaceOnUse">
<stop stop-color="white"/>
<stop offset="1" stop-color="white"/>
</linearGradient>
<linearGradient id="paint6_linear_1_63" x1="87.7499" y1="39.733" x2="87.7499" y2="58.7174" gradientUnits="userSpaceOnUse">
<stop stop-color="white"/>
<stop offset="1" stop-color="white"/>
</linearGradient>
<linearGradient id="paint7_linear_1_63" x1="87.7499" y1="39.733" x2="87.7499" y2="58.7174" gradientUnits="userSpaceOnUse">
<stop stop-color="white"/>
<stop offset="1" stop-color="white"/>
</linearGradient>
<linearGradient id="paint8_linear_1_63" x1="87.7499" y1="39.733" x2="87.7499" y2="58.7174" gradientUnits="userSpaceOnUse">
<stop stop-color="white"/>
<stop offset="1" stop-color="white"/>
</linearGradient>
</defs>
</svg>
