<svg width="300" height="50" viewBox="0 0 317 141" fill="none" xmlns="http://www.w3.org/2000/svg">
<path d="M38.3875 54.2333L0 53.8119C2.49 71.5118 22.3408 75.6558 31.955 75.5153C51.211 73.9982 56.3017 85.8403 56.44 91.951C57.104 67.0025 44.6817 56.4107 38.3875 54.2333Z" fill="white"/>
<path d="M81.2622 91.9508C80.5963 67.2126 90.8088 57.894 99.3662 54.551L114.531 41.5969L130.763 21.1211C128.656 35.7467 137.838 54.551 105.817 75.6537C98.7316 80.3233 81.4009 85.8916 81.2622 91.9508Z" fill="white"/>
<path d="M56.1586 90.6185C56.4914 67.4139 43.9541 56.7437 37.6438 54.3092C53.4542 54.9769 65.312 60.4303 69.2646 63.0735C77.7522 55.8951 93.3268 54.2396 100.053 54.3092C84.4092 60.1521 81.3304 80.9499 81.7464 90.6185V112.947C81.4136 129.64 64.5492 138.266 56.1586 140.492V90.6185Z" fill="white"/>
<circle cx="67.8578" cy="40.9336" r="13.3734" fill="white"/>
<path d="M95.1 92.9816V135.412H123.137V126.394H104.075V118.406H122.453V110.074H104.075V102.086H123.137V92.9816H95.1Z" fill="white"/>
<path d="M142.791 92.9816L127.405 135.412H136.979L140.056 126.909H155.015L158.177 135.412H167.751L152.365 92.9816H142.791ZM147.578 106.209L151.767 117.976H143.304L147.578 106.209Z" fill="white"/>
<path d="M190.203 91.9509C178.578 91.9509 167.807 100.454 167.807 114.197C167.807 128.026 178.578 136.529 190.203 136.529C195.759 136.529 201.229 134.725 206.444 131.032L201.828 124.161C196.87 127.424 193.451 127.768 190.203 127.768C183.535 127.768 176.953 121.498 176.953 114.197C176.953 106.896 183.535 100.712 190.203 100.712C193.451 100.712 196.87 101.056 201.828 104.319L206.444 97.448C201.229 93.7547 195.759 91.9509 190.203 91.9509Z" fill="white"/>
<path d="M210.714 92.9816V135.412H219.689V118.749H235.075V135.412H244.05V92.9816H235.075V109.731H219.689V92.9816H210.714Z" fill="white"/>
<path d="M250.031 92.9816V135.412H278.068V126.394H259.006V118.406H277.384V110.074H259.006V102.086H278.068V92.9816H250.031Z" fill="white"/>
<path d="M301.101 92.9816H284.005V135.412H292.98V127.339H294.775L304.606 135.412H317L305.973 126.136C312.555 123.989 316.829 117.547 316.829 109.988C316.829 100.626 310.333 92.9816 301.101 92.9816ZM292.98 102.43H300.161C304.349 102.43 307.597 105.78 307.597 109.988C307.597 114.111 304.264 117.289 300.161 117.547H292.98V102.43Z" fill="white"/>
<path d="M178.684 26.1443C170.264 26.1443 162.463 32.2738 162.463 42.18C162.463 52.1482 170.264 58.2777 178.684 58.2777C182.708 58.2777 186.671 56.9775 190.448 54.3152L187.104 49.3621C183.513 51.7148 181.037 51.9625 178.684 51.9625C173.855 51.9625 169.087 47.4427 169.087 42.18C169.087 36.9173 173.855 32.4595 178.684 32.4595C181.037 32.4595 183.513 32.7072 187.104 35.0599L190.448 30.1068C186.671 27.4445 182.708 26.1443 178.684 26.1443Z" fill="white"/>
<path d="M207.159 26.1443C198.244 26.1443 191.061 33.3263 191.061 42.18C191.061 51.0957 198.244 58.2777 207.159 58.2777C216.075 58.2777 223.319 51.0957 223.319 42.18C223.319 33.3263 216.075 26.1443 207.159 26.1443ZM207.159 32.4595C211.988 32.4595 216.694 36.9173 216.694 42.18C216.694 47.4427 211.988 51.9625 207.159 51.9625C202.392 51.9625 197.686 47.4427 197.686 42.18C197.686 36.9173 202.392 32.4595 207.159 32.4595Z" fill="white"/>
<path d="M243.135 26.1443C234.219 26.1443 227.037 33.3263 227.037 42.18C227.037 51.0957 234.219 58.2777 243.135 58.2777C252.05 58.2777 259.294 51.0957 259.294 42.18C259.294 33.3263 252.05 26.1443 243.135 26.1443ZM243.135 32.4595C247.964 32.4595 252.669 36.9173 252.669 42.18C252.669 47.4427 247.964 51.9625 243.135 51.9625C238.367 51.9625 233.662 47.4427 233.662 42.18C233.662 36.9173 238.367 32.4595 243.135 32.4595Z" fill="white"/>
<path d="M263.012 26.8873V57.4728H283.444V50.9718H269.699V26.8873H263.012Z" fill="white"/>
<path d="M158.109 30.4954L133.574 22.5186L132.442 26.8303L158.109 30.4954Z" fill="white"/>
<path d="M98.5672 38.8159V11C98.5672 5.47715 103.044 1 108.567 1H305.019C310.542 1 315.019 5.47715 315.019 11V70.4007C315.019 75.9236 310.542 80.4007 305.019 80.4007H143.606" stroke="white" stroke-width="2"/>
<defs>
<linearGradient id="paint0_linear_78_836" x1="24.1823" y1="71.5876" x2="24.1823" y2="91.951" gradientUnits="userSpaceOnUse">
<stop stop-color="#32B8D5"/>
<stop offset="1" stop-color="#1670F8"/>
</linearGradient>
<linearGradient id="paint1_linear_78_836" x1="109.55" y1="54.1332" x2="109.55" y2="91.9508" gradientUnits="userSpaceOnUse">
<stop stop-color="#32B8D5"/>
<stop offset="1" stop-color="#1670F8"/>
</linearGradient>
<linearGradient id="paint2_linear_78_836" x1="64.3717" y1="94.4757" x2="64.3717" y2="140.492" gradientUnits="userSpaceOnUse">
<stop stop-color="#32B8D5"/>
<stop offset="1" stop-color="#1670F8"/>
</linearGradient>
<linearGradient id="paint3_linear_78_836" x1="105.933" y1="98.8677" x2="299.414" y2="123.514" gradientUnits="userSpaceOnUse">
<stop stop-color="#32B8D5"/>
<stop offset="1" stop-color="#1670F8"/>
</linearGradient>
<linearGradient id="paint4_linear_78_836" x1="105.933" y1="98.8677" x2="299.414" y2="123.514" gradientUnits="userSpaceOnUse">
<stop stop-color="#32B8D5"/>
<stop offset="1" stop-color="#1670F8"/>
</linearGradient>
<linearGradient id="paint5_linear_78_836" x1="105.933" y1="98.8677" x2="299.414" y2="123.514" gradientUnits="userSpaceOnUse">
<stop stop-color="#32B8D5"/>
<stop offset="1" stop-color="#1670F8"/>
</linearGradient>
<linearGradient id="paint6_linear_78_836" x1="105.933" y1="98.8677" x2="299.414" y2="123.514" gradientUnits="userSpaceOnUse">
<stop stop-color="#32B8D5"/>
<stop offset="1" stop-color="#1670F8"/>
</linearGradient>
<linearGradient id="paint7_linear_78_836" x1="105.933" y1="98.8677" x2="299.414" y2="123.514" gradientUnits="userSpaceOnUse">
<stop stop-color="#32B8D5"/>
<stop offset="1" stop-color="#1670F8"/>
</linearGradient>
<linearGradient id="paint8_linear_78_836" x1="105.933" y1="98.8677" x2="299.414" y2="123.514" gradientUnits="userSpaceOnUse">
<stop stop-color="#32B8D5"/>
<stop offset="1" stop-color="#1670F8"/>
</linearGradient>
</defs>
</svg>
