<svg width="74" height="74" viewBox="0 0 74 74" fill="none" xmlns="http://www.w3.org/2000/svg">
<circle cx="37" cy="37" r="37" fill="#F4F7FE"/>
<path d="M48.052 22.9623C47.3303 22.9623 46.7451 23.5474 46.7451 24.2692V48.7307C46.7451 49.4525 47.3303 50.0377 48.052 50.0377H50.0316C50.7534 50.0377 51.3385 49.4525 51.3385 48.7307V24.2692C51.3385 23.5474 50.7534 22.9623 50.0316 22.9623H48.052Z" fill="#E55353"/>
<path d="M23.8936 48.2968V24.7809C23.8936 23.7199 25.0912 23.101 25.9566 23.7149L42.9873 35.7957C43.7332 36.3248 43.719 37.4368 42.9597 37.9467L25.929 49.3819C25.0608 49.9648 23.8936 49.3426 23.8936 48.2968Z" fill="#E55353"/>
</svg>
