<svg width="40" height="40" viewBox="0 0 40 40" fill="none" xmlns="http://www.w3.org/2000/svg">
<circle cx="20" cy="20" r="20" fill="white"/>
<path d="M20 6.66666C12.648 6.66666 6.66667 12.648 6.66667 20C6.66667 27.352 12.648 33.3333 20 33.3333C27.352 33.3333 33.3333 27.352 33.3333 20C33.3333 12.648 27.352 6.66666 20 6.66666ZM21.3333 28H18.6667V25.3333H21.3333V28ZM22.6347 21.4867C22.3733 21.6973 22.1213 21.8987 21.9213 22.0987C21.3773 22.6413 21.3347 23.1347 21.3333 23.156V23.3333H18.6667V23.1107C18.6667 22.9533 18.7053 21.5413 20.0347 20.212C20.2947 19.952 20.6173 19.688 20.956 19.4133C21.9347 18.62 22.5773 18.0413 22.5773 17.244C22.5618 16.5704 22.2833 15.9297 21.8014 15.4588C21.3195 14.988 20.6724 14.7245 19.9987 14.7246C19.3249 14.7248 18.678 14.9887 18.1963 15.4598C17.7146 15.9308 17.4365 16.5717 17.4213 17.2453H14.7547C14.7547 14.3533 17.108 12 20 12C22.892 12 25.2453 14.3533 25.2453 17.2453C25.2453 19.3747 23.6733 20.6453 22.6347 21.4867V21.4867Z" fill="#1670F8"/>
</svg>
