<svg width="74" height="74" viewBox="0 0 74 74" fill="none" xmlns="http://www.w3.org/2000/svg">
<circle cx="37" cy="37" r="37" fill="#F4F7FE"/>
<path d="M37.0339 46.7296H35.44C34.3175 46.7296 33.4053 47.6419 33.4053 48.7643V50.9653C33.4053 52.0877 34.3175 53 35.44 53H37.0339C38.1564 53 39.0686 52.0877 39.0686 50.9653V48.7643C39.0686 47.6385 38.1564 46.7296 37.0339 46.7296Z" fill="#3399FF"/>
<path d="M25.7955 29.6921L28.7357 30.0584C29.6683 30.1737 30.5534 29.6379 30.8891 28.7595C31.313 27.6506 31.9031 26.7757 32.6593 26.1381C33.731 25.236 35.0637 24.7816 36.6576 24.7816C38.3091 24.7816 39.6249 25.2157 40.6016 26.0805C41.5782 26.9486 42.0632 27.9863 42.0632 29.2038C42.0632 30.0787 41.7885 30.879 41.2391 31.6048C40.883 32.066 39.7877 33.0359 37.9598 34.5178C36.1285 35.9998 34.9111 37.3359 34.3007 38.5228C33.6767 39.7369 33.4597 41.0832 33.4054 42.4329C33.358 43.5894 34.2804 44.5525 35.4402 44.5525H37.1018C38.1599 44.5525 39.0348 43.742 39.1298 42.6907C39.1976 41.9345 39.3231 41.3614 39.513 40.9714C39.8318 40.3033 40.6559 39.4215 41.9784 38.3228C44.5388 36.2033 46.2073 34.528 46.9907 33.2936C47.7706 32.0626 48.164 30.757 48.164 29.3767C48.164 26.8842 47.1026 24.6968 44.9763 22.8181C42.8534 20.9394 39.9912 20 36.3965 20C32.9781 20 30.2211 20.9258 28.1185 22.7808C26.3279 24.3611 25.2393 26.2331 24.8561 28.3933C24.7374 29.024 25.1681 29.6141 25.7955 29.6921Z" fill="#3399FF"/>
</svg>
