<svg width="761" height="366" viewBox="0 0 761 366" fill="none" xmlns="http://www.w3.org/2000/svg">
<mask id="mask0_206_2476" style="mask-type:alpha" maskUnits="userSpaceOnUse" x="5" y="0" width="751" height="363">
<rect x="5" width="751" height="363" rx="20" fill="#12354C"/>
</mask>
<g mask="url(#mask0_206_2476)">
<path d="M103.519 0.000244141L97.0252 106.941L55.8091 90.3697L0 67.9142V17.2929C0 7.73838 7.73813 0.000244141 17.2926 0.000244141H103.519Z" fill="#FF5065"/>
<path d="M103.519 0L97.0253 106.94L21.3857 0H103.519Z" fill="#EA2143"/>
<path d="M0 154.402L55.8091 90.3693L0 67.9138V154.402Z" fill="#00FFF0"/>
<path d="M103.519 0L97.0251 106.94L72.5791 0H103.519Z" fill="#AA0428"/>
<path d="M216.631 0L151.877 39.8228L84.2861 0H216.631Z" fill="#F9D640"/>
<path d="M151.877 39.8228L84.2861 0H146.913L151.877 39.8228Z" fill="#FF9A15"/>
<path d="M146.913 0L151.877 39.8228L181.946 0H146.913Z" fill="#F7C841"/>
<path d="M0 154.402L55.8091 90.3694L0 103.345V154.402Z" fill="#00B5B5"/>
<path d="M124.084 0.000244141H17.2926C7.73813 0.000244141 0 7.73838 0 17.2929V104.963L124.084 0.000244141Z" fill="url(#paint0_linear_206_2476)"/>
<path d="M0 202L29.3352 165.835L0 133.576V202Z" fill="#FF9A15"/>
<path d="M0 169.243V202L29.3352 165.835L0 169.243Z" fill="#F7C841"/>
<path d="M657.112 366L663.606 259.059L704.822 275.63L760.631 298.086V348.707C760.631 358.262 752.893 366 743.338 366H657.112Z" fill="#FF5065"/>
<path d="M657.111 366L663.606 259.06L739.245 366H657.111Z" fill="#EA2143"/>
<path d="M760.631 211.598L704.822 275.631L760.631 298.086V211.598Z" fill="#00FFF0"/>
<path d="M657.112 366L663.606 259.06L688.052 366H657.112Z" fill="#AA0428"/>
<path d="M544 366L608.754 326.177L676.345 366H544Z" fill="#F9D640"/>
<path d="M608.754 326.177L676.345 366H613.718L608.754 326.177Z" fill="#FF9A15"/>
<path d="M613.718 366L608.754 326.177L578.685 366H613.718Z" fill="#F7C841"/>
<path d="M760.631 211.598L704.822 275.631L760.631 262.655V211.598Z" fill="#00B5B5"/>
<path d="M636.547 366H743.338C752.893 366 760.631 358.262 760.631 348.707V261.037L636.547 366Z" fill="url(#paint1_linear_206_2476)"/>
<path d="M760.631 164L731.296 200.165L760.631 232.424V164Z" fill="#FF9A15"/>
<path d="M760.631 196.757V164L731.296 200.165L760.631 196.757Z" fill="#F7C841"/>
<path d="M118.149 43L137 59.5726L115 60L118.149 43Z" fill="#00B5B5"/>
<path d="M640.851 316L622 299.427L644 299L640.851 316Z" fill="#00B5B5"/>
<path d="M201 40.2976L213.921 55L222 34L201 40.2976Z" fill="#FF9A15"/>
<path d="M558 318.702L545.079 304L537 325L558 318.702Z" fill="#FF9A15"/>
<path d="M312.562 9L307 21H326L312.562 9Z" fill="#00B5B5"/>
<path d="M446.438 350L452 338H433L446.438 350Z" fill="#00B5B5"/>
<path d="M46 137L79 155L49.6641 164L46 137Z" fill="#FF9A15"/>
<path d="M713 222L680 204L709.336 195L713 222Z" fill="#FF9A15"/>
<path d="M20 240.804L35 236L33.5499 254L20 240.804Z" fill="#EA2143"/>
<path d="M739 118.196L724 123L725.45 105L739 118.196Z" fill="#EA2143"/>
<path d="M255 17.0366L243 14L246.63 21L255 17.0366Z" fill="#FF5065"/>
<path d="M504 341.963L516 345L512.37 338L504 341.963Z" fill="#FF5065"/>
</g>
<defs>
<linearGradient id="paint0_linear_206_2476" x1="62.3753" y1="52.5" x2="-31.5958" y2="47.3034" gradientUnits="userSpaceOnUse">
<stop stop-color="white" stop-opacity="0"/>
<stop offset="1" stop-color="white"/>
</linearGradient>
<linearGradient id="paint1_linear_206_2476" x1="698.256" y1="313.5" x2="792.227" y2="318.697" gradientUnits="userSpaceOnUse">
<stop stop-color="white" stop-opacity="0"/>
<stop offset="1" stop-color="white"/>
</linearGradient>
</defs>
</svg>
