<svg width="74" height="74" viewBox="0 0 74 74" fill="none" xmlns="http://www.w3.org/2000/svg">
<circle cx="37" cy="37" r="37" fill="#F4F7FE"/>
<g clip-path="url(#clip0_1_85)">
<path d="M38.1267 30.25H46.3592L50.63 34.5175V46.5H38.1267V30.25ZM24.3767 21.5033H43.1267V27.75H36.8767C36.7122 27.7491 36.5491 27.7808 36.3968 27.8433C36.2446 27.9058 36.1062 27.9977 35.9897 28.1139C35.8732 28.2302 35.7808 28.3683 35.7179 28.5204C35.6551 28.6724 35.6229 28.8354 35.6234 29V47.75C35.6234 48.44 36.1834 49 36.8767 49H43.1267V51.5H24.3767V21.5033ZM23.1267 19C22.7952 19 22.4772 19.1317 22.2428 19.3661C22.0084 19.6005 21.8767 19.9185 21.8767 20.25V52.75C21.8767 53.0815 22.0084 53.3995 22.2428 53.6339C22.4772 53.8683 22.7952 54 23.1267 54H44.3767C44.7082 54 45.0262 53.8683 45.2606 53.6339C45.495 53.3995 45.6267 53.0815 45.6267 52.75V49H51.88C52.2103 48.998 52.5264 48.8655 52.7594 48.6313C52.9923 48.3971 53.1232 48.0803 53.1234 47.75V34C53.1243 33.836 53.0929 33.6735 53.031 33.5216C52.9691 33.3697 52.8779 33.2316 52.7625 33.115L47.7584 28.1175C47.6428 28.0013 47.5054 27.909 47.3541 27.846C47.2028 27.7829 47.0406 27.7503 46.8767 27.75H45.6267V20.25C45.6267 19.9185 45.495 19.6005 45.2606 19.3661C45.0262 19.1317 44.7082 19 44.3767 19H23.1267Z" fill="#F9B115"/>
<path d="M31.2517 22.7533C30.921 22.7533 30.6039 22.8847 30.3701 23.1185C30.1363 23.3523 30.005 23.6694 30.005 24C30.005 24.3306 30.1363 24.6477 30.3701 24.8815C30.6039 25.1153 30.921 25.2467 31.2517 25.2467H36.2517C36.5823 25.2467 36.8994 25.1153 37.1332 24.8815C37.367 24.6477 37.4983 24.3306 37.4983 24C37.4983 23.6694 37.367 23.3523 37.1332 23.1185C36.8994 22.8847 36.5823 22.7533 36.2517 22.7533H31.2517ZM44.295 35.8783C44.0766 35.894 43.8659 35.9657 43.6833 36.0867L39.9333 38.5867C39.6719 38.7761 39.4938 39.0593 39.4365 39.377C39.3791 39.6948 39.447 40.0224 39.6258 40.2912C39.8046 40.56 40.0805 40.7493 40.3957 40.8193C40.7109 40.8893 41.0409 40.8346 41.3167 40.6667L43.1267 39.4625V43.9967C43.1267 44.6867 43.6867 45.25 44.3767 45.25C45.0667 45.25 45.6267 44.6867 45.6267 43.9967V39.4625L47.43 40.6667C47.5669 40.7577 47.7205 40.8209 47.8819 40.8525C48.0433 40.8841 48.2093 40.8835 48.3705 40.8509C48.5317 40.8182 48.6848 40.7541 48.8211 40.6621C48.9575 40.5701 49.0743 40.4522 49.165 40.315C49.3481 40.0399 49.4146 39.7035 49.3499 39.3795C49.2853 39.0555 49.0947 38.7703 48.82 38.5867L45.07 36.0867C44.8415 35.9341 44.5692 35.8609 44.295 35.8783Z" fill="#F9B115"/>
</g>
<defs>
<clipPath id="clip0_1_85">
<rect width="35" height="35" fill="white" transform="translate(20 19)"/>
</clipPath>
</defs>
</svg>
