<svg width="74" height="74" viewBox="0 0 74 74" fill="none" xmlns="http://www.w3.org/2000/svg">
<circle cx="37" cy="37" r="37" fill="#F4F7FE"/>
<path d="M47 24.6501C47 23.7425 46.2575 23 45.3499 23H28.6511C27.7436 23 27.001 23.7425 27.001 24.6501C27.001 25.5576 27.7436 26.3002 28.6511 26.3002H33.4363C35.829 26.3167 37.9411 27.8347 38.7001 30.0953H28.6511C27.7436 30.0953 27.001 30.8379 27.001 31.7454C27.001 32.653 27.7436 33.3955 28.6511 33.3955H38.7001C38.4361 34.2535 37.9576 35.0456 37.3305 35.6891C36.3075 36.7452 34.9049 37.3392 33.4363 37.3557H28.6511C27.7766 37.3227 27.034 38.0157 27.001 38.8903C26.9845 39.3523 27.166 39.8143 27.5126 40.1278L39.4591 51.4144C40.1192 52.0414 41.1752 52.0084 41.7858 51.3319C42.3963 50.7048 42.3798 49.6983 41.7527 49.0878C41.7362 49.0713 41.7197 49.0713 41.7197 49.0548L32.7928 40.6559H33.4198C35.763 40.6394 38.0071 39.6988 39.6571 38.0322C40.9277 36.7782 41.7857 35.1611 42.0828 33.3955H45.3499C46.2575 33.3955 47 32.653 47 31.7454C47 30.8379 46.2575 30.0953 45.3499 30.0953H42.0828C41.8518 28.6928 41.2247 27.3727 40.2842 26.3002H45.3334C46.2575 26.3002 47 25.5576 47 24.6501Z" fill="#321FDB"/>
</svg>
