<svg width="74" height="74" viewBox="0 0 74 74" fill="none" xmlns="http://www.w3.org/2000/svg">
<circle cx="37" cy="37" r="37" fill="#F4F7FE"/>
<path d="M37.3546 35.2761C38.4235 35.2761 39.4683 34.9591 40.3571 34.3652C41.2458 33.7714 41.9385 32.9273 42.3475 31.9397C42.7565 30.9522 42.8635 29.8655 42.6549 28.8172C42.4462 27.7688 41.9314 26.8059 41.1755 26.0501C40.4196 25.2944 39.4566 24.7798 38.4082 24.5714C37.3598 24.363 36.2732 24.4701 35.2857 24.8793C34.2982 25.2885 33.4543 25.9814 32.8606 26.8702C32.2669 27.7591 31.9501 28.8041 31.9503 29.873C31.9521 31.3056 32.522 32.6791 33.5352 33.692C34.5483 34.705 35.9219 35.2746 37.3546 35.2761ZM37.3546 26.6562C37.9908 26.6562 38.6127 26.8449 39.1417 27.1984C39.6707 27.5518 40.0829 28.0542 40.3264 28.642C40.5699 29.2298 40.6336 29.8765 40.5095 30.5005C40.3853 31.1245 40.079 31.6977 39.6291 32.1475C39.1793 32.5974 38.6061 32.9038 37.9821 33.0279C37.3581 33.152 36.7113 33.0883 36.1236 32.8448C35.5358 32.6014 35.0334 32.1891 34.68 31.6601C34.3265 31.1311 34.1378 30.5092 34.1378 29.873C34.139 29.0202 34.4783 28.2027 35.0813 27.5997C35.6843 26.9967 36.5018 26.6574 37.3546 26.6562ZM27.1455 38.4523C27.9675 38.4523 28.7711 38.2086 29.4546 37.7519C30.1381 37.2952 30.6708 36.6461 30.9854 35.8866C31.2999 35.1272 31.3823 34.2915 31.2219 33.4852C31.0615 32.679 30.6657 31.9384 30.0844 31.3572C29.5031 30.7759 28.7626 30.3801 27.9563 30.2197C27.1501 30.0593 26.3144 30.1416 25.555 30.4562C24.7955 30.7708 24.1464 31.3035 23.6897 31.987C23.233 32.6705 22.9892 33.4741 22.9892 34.2961C22.9892 35.3984 23.4271 36.4556 24.2066 37.235C24.986 38.0145 26.0432 38.4523 27.1455 38.4523ZM27.1455 32.3273C27.5349 32.3273 27.9155 32.4428 28.2393 32.6591C28.563 32.8755 28.8154 33.1829 28.9644 33.5427C29.1134 33.9024 29.1524 34.2983 29.0764 34.6802C29.0004 35.0621 28.8129 35.4129 28.5376 35.6882C28.2623 35.9635 27.9115 36.151 27.5296 36.227C27.1477 36.303 26.7518 36.264 26.3921 36.115C26.0323 35.966 25.7249 35.7136 25.5085 35.3899C25.2922 35.0661 25.1767 34.6855 25.1767 34.2961C25.1767 33.7739 25.3842 33.2732 25.7534 32.904C26.1226 32.5348 26.6233 32.3273 27.1455 32.3273ZM47.5625 38.4523C48.3846 38.4523 49.1881 38.2086 49.8716 37.7519C50.5551 37.2952 51.0878 36.6461 51.4024 35.8866C51.717 35.1272 51.7993 34.2915 51.6389 33.4852C51.4785 32.679 51.0827 31.9384 50.5014 31.3572C49.9202 30.7759 49.1796 30.3801 48.3734 30.2197C47.5671 30.0593 46.7315 30.1416 45.972 30.4562C45.2125 30.7708 44.5634 31.3035 44.1067 31.987C43.65 32.6705 43.4063 33.4741 43.4063 34.2961C43.4063 35.3984 43.8442 36.4556 44.6236 37.235C45.4031 38.0145 46.4602 38.4523 47.5625 38.4523ZM47.5625 32.3273C47.9519 32.3273 48.3325 32.4428 48.6563 32.6591C48.9801 32.8755 49.2324 33.1829 49.3814 33.5427C49.5304 33.9024 49.5694 34.2983 49.4934 34.6802C49.4175 35.0621 49.23 35.4129 48.9546 35.6882C48.6793 35.9635 48.3285 36.151 47.9466 36.227C47.5647 36.303 47.1689 36.264 46.8091 36.115C46.4494 35.966 46.1419 35.7136 45.9256 35.3899C45.7092 35.0661 45.5938 34.6855 45.5938 34.2961C45.5938 33.7739 45.8012 33.2732 46.1704 32.904C46.5396 32.5348 47.0404 32.3273 47.5625 32.3273ZM47.708 40.6464C46.7492 40.6527 45.8071 40.8982 44.9671 41.3606C44.1685 40.0964 43.0678 39.0507 41.7642 38.3181C40.4606 37.5854 38.9952 37.1888 37.5 37.1639C36.0049 37.1888 34.5394 37.5854 33.2359 38.3181C31.9323 39.0507 30.8316 40.0964 30.033 41.3606C29.193 40.8982 28.2509 40.6527 27.2921 40.6464C25.5715 40.7304 23.954 41.4916 22.7927 42.764C21.6314 44.0363 21.0207 45.7164 21.0938 47.4375C21.0938 47.7276 21.209 48.0058 21.4141 48.2109C21.6192 48.416 21.8974 48.5312 22.1875 48.5312C22.4776 48.5312 22.7558 48.416 22.9609 48.2109C23.166 48.0058 23.2813 47.7276 23.2813 47.4375C23.2096 46.2968 23.5904 45.1738 24.3412 44.312C25.092 43.4502 26.1523 42.9192 27.2921 42.8339C27.8965 42.8386 28.4899 42.9962 29.0169 43.2922C28.5014 44.5913 28.2375 45.9765 28.2392 47.3741C28.2392 47.6641 28.3545 47.9423 28.5596 48.1475C28.7647 48.3526 29.0429 48.4678 29.333 48.4678C29.6231 48.4678 29.9013 48.3526 30.1064 48.1475C30.3115 47.9423 30.4267 47.6641 30.4267 47.3741C30.4267 42.9498 33.5986 39.3514 37.5 39.3514C41.4014 39.3514 44.5733 42.9498 44.5733 47.3741C44.5733 47.6641 44.6885 47.9423 44.8937 48.1475C45.0988 48.3526 45.377 48.4678 45.6671 48.4678C45.9571 48.4678 46.2353 48.3526 46.4405 48.1475C46.6456 47.9423 46.7608 47.6641 46.7608 47.3741C46.7625 45.9765 46.4986 44.5913 45.9831 43.2922C46.5102 42.9962 47.1036 42.8386 47.708 42.8339C48.8478 42.9192 49.908 43.4502 50.6588 44.312C51.4096 45.1738 51.7905 46.2968 51.7188 47.4375C51.7188 47.7276 51.834 48.0058 52.0391 48.2109C52.2442 48.416 52.5224 48.5312 52.8125 48.5312C53.1026 48.5312 53.3808 48.416 53.5859 48.2109C53.791 48.0058 53.9063 47.7276 53.9063 47.4375C53.9794 45.7164 53.3686 44.0363 52.2074 42.764C51.0461 41.4916 49.4286 40.7304 47.708 40.6464Z" fill="#F9B115"/>
</svg>
