<svg width="74" height="74" viewBox="0 0 74 74" fill="none" xmlns="http://www.w3.org/2000/svg">
<circle cx="37" cy="37" r="37" fill="#F4F7FE"/>
<path d="M42.627 32.9453C42.627 30.1183 40.327 27.8184 37.5 27.8184C34.673 27.8184 32.373 30.1183 32.373 32.9453C32.373 35.7723 34.673 38.0723 37.5 38.0723C40.327 38.0723 42.627 35.7723 42.627 32.9453ZM37.5 36.0215C35.8038 36.0215 34.4238 34.6415 34.4238 32.9453C34.4238 31.2491 35.8038 29.8691 37.5 29.8691C39.1962 29.8691 40.5762 31.2491 40.5762 32.9453C40.5762 34.6415 39.1962 36.0215 37.5 36.0215Z" fill="#321FDB"/>
<path d="M48.2425 40.1357C50.298 39.9246 51.9067 38.1831 51.9067 36.0728C51.9067 33.8206 50.0744 31.9883 47.8223 31.9883C45.5701 31.9883 43.7378 33.8206 43.7378 36.0728C43.7378 38.1846 45.3488 39.9271 47.4064 40.1362C46.3027 40.1991 45.2416 40.5117 44.2866 41.0542C40.6222 37.0761 34.3739 37.0805 30.7136 41.0541C29.7583 40.5119 28.6961 40.1992 27.5938 40.1362C29.6513 39.9271 31.2623 38.1845 31.2623 36.0728C31.2623 33.8206 29.43 31.9883 27.1778 31.9883C24.9256 31.9883 23.0933 33.8206 23.0933 36.0728C23.0933 38.1831 24.702 39.9246 26.7575 40.1357C22.9946 40.3541 20 43.4841 20 47.3008V50.377C20 50.9432 20.4591 51.4023 21.0254 51.4023H28.2715C28.2715 51.9686 28.7306 52.4277 29.2969 52.4277H45.7031C46.2694 52.4277 46.7285 51.9686 46.7285 51.4023H53.9746C54.5409 51.4023 55 50.9432 55 50.377V47.3008C55 43.4841 52.0055 40.3541 48.2425 40.1357ZM45.7886 36.0728C45.7886 34.9514 46.7009 34.0391 47.8223 34.0391C48.9436 34.0391 49.856 34.9514 49.856 36.0728C49.856 37.1941 48.9436 38.1064 47.8223 38.1064C46.7009 38.1064 45.7886 37.1941 45.7886 36.0728ZM25.144 36.0728C25.144 34.9514 26.0564 34.0391 27.1777 34.0391C28.2991 34.0391 29.2114 34.9514 29.2114 36.0728C29.2114 37.1941 28.2991 38.1064 27.1777 38.1064C26.0564 38.1064 25.144 37.1941 25.144 36.0728ZM22.0508 49.3516V47.3008C22.0508 43.4766 26.1032 41.0097 29.4888 42.7236C27.8301 45.6155 28.3779 48.0837 28.2715 49.3516H22.0508ZM44.6777 50.377H30.3223V47.3008C30.3223 43.343 33.5422 40.123 37.5 40.123C41.4578 40.123 44.6777 43.343 44.6777 47.3008V50.377ZM52.9492 49.3516H46.7285C46.6225 48.0891 47.1706 45.6163 45.511 42.7232C48.8935 41.0096 52.9492 43.4751 52.9492 47.3008V49.3516ZM35.7838 26.4243C36.1842 26.8248 36.8334 26.8248 37.2339 26.4243L41.3354 22.3227C41.7359 21.9223 41.7359 21.2731 41.3354 20.8726C40.9351 20.4722 40.2858 20.4722 39.8853 20.8726L36.5088 24.2491L35.1147 22.8551C34.7143 22.4546 34.065 22.4546 33.6646 22.8551C33.2641 23.2555 33.2641 23.9047 33.6646 24.3052L35.7838 26.4243Z" fill="#321FDB"/>
</svg>
