<svg width="25" height="25" viewBox="0 0 25 25" fill="none" xmlns="http://www.w3.org/2000/svg">
<path fill-rule="evenodd" clip-rule="evenodd" d="M14.6232 11.4922H17.3911C17.8107 11.4922 18.1405 11.1453 18.1405 10.7269C18.1405 10.2982 17.8107 9.96147 17.3911 9.96147H14.6232C14.2035 9.96147 13.8738 10.2982 13.8738 10.7269C13.8738 11.1453 14.2035 11.4922 14.6232 11.4922ZM20.6785 6.18659C21.288 6.18659 21.6877 6.40089 22.0874 6.87033C22.4871 7.33976 22.557 8.0133 22.4671 8.62458L21.5178 15.3191C21.338 16.606 20.2588 17.554 18.9898 17.554H8.08831C6.75935 17.554 5.6602 16.5141 5.55029 15.1671L4.63101 4.0425L3.12218 3.77717C2.72249 3.70573 2.44271 3.30773 2.51266 2.89953C2.5826 2.48214 2.9723 2.20558 3.38198 2.26783L5.76512 2.6342C6.10486 2.69645 6.35466 2.98117 6.38464 3.32814L6.57449 5.61408C6.60447 5.94166 6.86427 6.18659 7.18402 6.18659H20.6785ZM7.92826 19.167C7.08891 19.167 6.40944 19.861 6.40944 20.7182C6.40944 21.5652 7.08891 22.2591 7.92826 22.2591C8.75761 22.2591 9.43708 21.5652 9.43708 20.7182C9.43708 19.861 8.75761 19.167 7.92826 19.167ZM19.1695 19.167C18.3302 19.167 17.6507 19.861 17.6507 20.7182C17.6507 21.5652 18.3302 22.2591 19.1695 22.2591C19.9989 22.2591 20.6783 21.5652 20.6783 20.7182C20.6783 19.861 19.9989 19.167 19.1695 19.167Z" fill="white"/>
</svg>
