<svg width="42" height="42" viewBox="0 0 42 42" fill="none" xmlns="http://www.w3.org/2000/svg">
<path d="M39.6195 4.42969H36.8304V2.46094C36.8304 1.10389 35.7265 0 34.3695 0H8.93978C7.58281 0 6.47884 1.10389 6.47884 2.46094V14.9732L5.40193 13.8959C4.81295 13.3074 4.03037 12.9831 3.19759 12.9831C2.36514 12.9831 1.58239 13.3074 0.993408 13.8959C-0.22172 15.1114 -0.22172 17.0891 0.993408 18.3045L6.47884 23.79V35.1094C6.47884 36.4664 7.58281 37.5703 8.93978 37.5703H11.7288V39.5391C11.7288 40.8961 12.8328 42 14.1898 42H39.6195C40.9765 42 42.0804 40.8961 42.0804 39.5391V6.89062C42.0804 5.53358 40.9765 4.42969 39.6195 4.42969ZM8.93978 1.64062H34.3695C34.8219 1.64062 35.1898 2.00845 35.1898 2.46094V35.1094C35.1898 35.5619 34.8219 35.9297 34.3695 35.9297H24.3931L22.2606 30.8412C22.2193 30.7429 22.1594 30.6536 22.0841 30.5781L16.6216 25.1157L8.11946 16.614V2.46094C8.11946 2.00845 8.4877 1.64062 8.93978 1.64062ZM3.85039 18.8409L5.93833 16.753L20.3438 31.1581L18.2555 33.2464L3.85039 18.8409ZM21.2199 32.6023L22.3164 35.219L19.6996 34.1225L21.2199 32.6023ZM2.15366 15.0563C2.29038 14.9187 2.45306 14.8096 2.63226 14.7353C2.81146 14.6611 3.00362 14.6231 3.19759 14.6237C3.59216 14.6237 3.96286 14.7771 4.24185 15.0563L4.77833 15.5927L2.69039 17.6809L2.15366 17.1442C1.5778 16.5687 1.5778 15.632 2.15366 15.0563ZM8.11946 35.1094V25.4307L17.6755 34.9863C17.751 35.0617 17.8403 35.1216 17.9386 35.1629L19.7679 35.9297H8.93978C8.4877 35.9297 8.11946 35.5619 8.11946 35.1094ZM40.4398 39.5391C40.4398 39.9915 40.0719 40.3594 39.6195 40.3594H14.1898C13.7377 40.3594 13.3695 39.9915 13.3695 39.5391V37.5703H34.3695C35.7265 37.5703 36.8304 36.4664 36.8304 35.1094V6.07031H39.6195C40.0719 6.07031 40.4398 6.43814 40.4398 6.89062V39.5391Z" fill="white"/>
<path d="M13.2874 6.07031H30.0218C30.475 6.07031 30.8421 5.70306 30.8421 5.25C30.8421 4.79694 30.475 4.42969 30.0218 4.42969H13.2874C12.8346 4.42969 12.4671 4.79694 12.4671 5.25C12.4671 5.70306 12.8344 6.07031 13.2874 6.07031ZM30.0218 8.44988H24.2796C23.8268 8.44988 23.4593 8.81705 23.4593 9.27019C23.4593 9.723 23.8268 10.0905 24.2796 10.0905H30.0218C30.475 10.0905 30.8421 9.723 30.8421 9.27019C30.8421 8.81705 30.475 8.44988 30.0218 8.44988ZM30.0218 20.5097H24.2796C23.8268 20.5097 23.4593 20.8772 23.4593 21.33C23.4593 21.7832 23.8268 22.1503 24.2796 22.1503H30.0218C30.475 22.1503 30.8421 21.7832 30.8421 21.33C30.8421 20.8772 30.475 20.5097 30.0218 20.5097ZM19.0296 20.5097H16.6235C16.1704 20.5097 15.8032 20.8772 15.8032 21.33C15.8032 21.7832 16.1704 22.1503 16.6235 22.1503H19.0296C19.4828 22.1503 19.8499 21.7832 19.8499 21.33C19.8499 20.8772 19.4828 20.5097 19.0296 20.5097ZM30.0218 24.5651H24.2796C23.8268 24.5651 23.4593 24.9324 23.4593 25.3854C23.4593 25.8385 23.8268 26.2057 24.2796 26.2057H30.0218C30.475 26.2057 30.8421 25.8385 30.8421 25.3854C30.8421 24.9324 30.475 24.5651 30.0218 24.5651ZM13.2874 10.0905H19.0296C19.4828 10.0905 19.8499 9.723 19.8499 9.27019C19.8499 8.81705 19.4828 8.44988 19.0296 8.44988H13.2874C12.8346 8.44988 12.4671 8.81705 12.4671 9.27019C12.4671 9.723 12.8344 10.0905 13.2874 10.0905ZM13.2874 14.1104H26.7406C27.1937 14.1104 27.5609 13.7431 27.5609 13.29C27.5609 12.8369 27.1937 12.4697 26.7406 12.4697H13.2874C12.8346 12.4697 12.4671 12.8369 12.4671 13.29C12.4671 13.7431 12.8344 14.1104 13.2874 14.1104ZM30.0218 12.4697C29.8062 12.4697 29.5944 12.5572 29.4419 12.7101C29.2886 12.8643 29.2022 13.0726 29.2015 13.29C29.2023 13.5073 29.2886 13.7156 29.4419 13.8697C29.5959 14.0231 29.8044 14.1096 30.0218 14.1104C30.2376 14.1104 30.4493 14.0226 30.6018 13.8697C30.755 13.7156 30.8414 13.5073 30.8421 13.29C30.8421 13.0741 30.7544 12.8626 30.6018 12.7101C30.4477 12.5567 30.2393 12.4703 30.0218 12.4697ZM13.2874 18.1305H30.0218C30.475 18.1305 30.8421 17.7633 30.8421 17.3102C30.8421 16.8571 30.475 16.4899 30.0218 16.4899H13.2874C12.8346 16.4899 12.4671 16.8571 12.4671 17.3102C12.4671 17.7633 12.8344 18.1305 13.2874 18.1305Z" fill="white"/>
</svg>
