<svg width="44" height="172" viewBox="0 0 44 172" fill="none" xmlns="http://www.w3.org/2000/svg">
<path d="M0 10C0 4.47716 4.47715 0 10 0H44V172H10C4.47715 172 0 167.523 0 162V10Z" fill="#1670F8"/>
<path d="M22.974 146.304C23.03 145.949 23.1747 145.627 23.408 145.338C23.6413 145.039 23.9307 144.806 24.276 144.638C24.6213 144.46 24.99 144.372 25.382 144.372C25.8767 144.372 26.3247 144.498 26.726 144.75C27.118 145.002 27.4307 145.37 27.664 145.856C27.888 146.332 28 146.896 28 147.55V151.19H18.242V147.69C18.242 147.027 18.354 146.462 18.578 145.996C18.7927 145.529 19.0867 145.179 19.46 144.946C19.8333 144.712 20.2533 144.596 20.72 144.596C21.2987 144.596 21.7793 144.754 22.162 145.072C22.5353 145.38 22.806 145.79 22.974 146.304ZM22.456 149.916V147.774C22.456 147.176 22.316 146.714 22.036 146.388C21.756 146.061 21.3687 145.898 20.874 145.898C20.3793 145.898 19.992 146.061 19.712 146.388C19.432 146.714 19.292 147.186 19.292 147.802V149.916H22.456ZM26.95 147.662C26.95 147.027 26.8007 146.532 26.502 146.178C26.2033 145.823 25.788 145.646 25.256 145.646C24.7147 145.646 24.29 145.832 23.982 146.206C23.6647 146.579 23.506 147.078 23.506 147.704V149.916H26.95V147.662ZM19.278 141.33H22.54V137.774H23.59V141.33H26.95V137.354H28V142.604H18.228V137.354H19.278V141.33ZM23.114 135.902C22.162 135.902 21.308 135.687 20.552 135.258C19.7867 134.829 19.1893 134.245 18.76 133.508C18.3307 132.761 18.116 131.935 18.116 131.03C18.116 129.966 18.3727 129.037 18.886 128.244C19.3993 127.451 20.1273 126.872 21.07 126.508V128.034C20.482 128.305 20.0293 128.697 19.712 129.21C19.3947 129.714 19.236 130.321 19.236 131.03C19.236 131.711 19.3947 132.323 19.712 132.864C20.0293 133.405 20.482 133.83 21.07 134.138C21.6487 134.446 22.33 134.6 23.114 134.6C23.8887 134.6 24.57 134.446 25.158 134.138C25.7367 133.83 26.1847 133.405 26.502 132.864C26.8193 132.323 26.978 131.711 26.978 131.03C26.978 130.321 26.824 129.714 26.516 129.21C26.1987 128.697 25.746 128.305 25.158 128.034V126.508C26.0913 126.872 26.8147 127.451 27.328 128.244C27.832 129.037 28.084 129.966 28.084 131.03C28.084 131.935 27.874 132.761 27.454 133.508C27.0247 134.245 26.432 134.829 25.676 135.258C24.92 135.687 24.066 135.902 23.114 135.902ZM28.098 120.187C28.098 121.093 27.888 121.919 27.468 122.665C27.0387 123.412 26.446 124.005 25.69 124.443C24.9247 124.873 24.066 125.087 23.114 125.087C22.162 125.087 21.308 124.873 20.552 124.443C19.7867 124.005 19.194 123.412 18.774 122.665C18.3447 121.919 18.13 121.093 18.13 120.187C18.13 119.273 18.3447 118.442 18.774 117.695C19.194 116.949 19.782 116.361 20.538 115.931C21.294 115.502 22.1527 115.287 23.114 115.287C24.0753 115.287 24.934 115.502 25.69 115.931C26.446 116.361 27.0387 116.949 27.468 117.695C27.888 118.442 28.098 119.273 28.098 120.187ZM26.992 120.187C26.992 119.506 26.8333 118.895 26.516 118.353C26.1987 117.803 25.746 117.373 25.158 117.065C24.57 116.748 23.8887 116.589 23.114 116.589C22.33 116.589 21.6487 116.748 21.07 117.065C20.482 117.373 20.0293 117.798 19.712 118.339C19.3947 118.881 19.236 119.497 19.236 120.187C19.236 120.878 19.3947 121.494 19.712 122.035C20.0293 122.577 20.482 123.006 21.07 123.323C21.6487 123.631 22.33 123.785 23.114 123.785C23.8887 123.785 24.57 123.631 25.158 123.323C25.746 123.006 26.1987 122.577 26.516 122.035C26.8333 121.485 26.992 120.869 26.992 120.187ZM18.312 103.708H28V104.982H20.776L28 108.202V109.098L20.762 112.332H28L28 113.606H18.312V112.234L26.32 108.65L18.312 105.066V103.708ZM19.278 100.273H22.54V96.717H23.59V100.273H26.95V96.297H28V101.547H18.228V96.297H19.278V100.273ZM25.83 84.8688V89.1248L28 89.9088V91.2528L18.298 87.7248V86.2548L28 82.7408V84.0848L25.83 84.8688ZM24.794 85.2328L19.866 86.9968L24.794 88.7608V85.2328ZM18.242 71.4648H19.278L19.278 74.1248H28L28 75.3988H19.278V78.0728H18.242L18.242 71.4648ZM19.278 68.6226H22.54V65.0666H23.59V68.6226H26.95V64.6466H28V69.8966H18.228V64.6466H19.278V68.6226ZM25.83 56.9509V61.2069L28 61.9909V63.3349L18.298 59.8069V58.3369L28 54.8229V56.1669L25.83 56.9509ZM24.794 57.3149L19.866 59.0789L24.794 60.8429V57.3149ZM23.114 53.7613C22.162 53.7613 21.308 53.5466 20.552 53.1173C19.7867 52.6879 19.1893 52.1046 18.76 51.3673C18.3307 50.6206 18.116 49.7946 18.116 48.8893C18.116 47.8253 18.3727 46.8966 18.886 46.1033C19.3993 45.3099 20.1273 44.7313 21.07 44.3673V45.8933C20.482 46.1639 20.0293 46.5559 19.712 47.0693C19.3947 47.5733 19.236 48.1799 19.236 48.8893C19.236 49.5706 19.3947 50.1819 19.712 50.7233C20.0293 51.2646 20.482 51.6893 21.07 51.9973C21.6487 52.3053 22.33 52.4593 23.114 52.4593C23.8887 52.4593 24.57 52.3053 25.158 51.9973C25.7367 51.6893 26.1847 51.2646 26.502 50.7233C26.8193 50.1819 26.978 49.5706 26.978 48.8893C26.978 48.1799 26.824 47.5733 26.516 47.0693C26.1987 46.5559 25.746 46.1639 25.158 45.8933V44.3673C26.0913 44.7313 26.8147 45.3099 27.328 46.1033C27.832 46.8966 28.084 47.8253 28.084 48.8893C28.084 49.7946 27.874 50.6206 27.454 51.3673C27.0247 52.1046 26.432 52.6879 25.676 53.1173C24.92 53.5466 24.066 53.7613 23.114 53.7613ZM18.242 34.9528H28V36.2268H23.576V41.1968H28V42.4708H18.242L18.242 41.1968H22.526V36.2268H18.242V34.9528ZM19.278 31.5035H22.54V27.9475H23.59V31.5035H26.95V27.5275H28V32.7775H18.228V27.5275H19.278V31.5035ZM28 20.4617L24.01 22.7857V24.3257H28V25.5997H18.242V22.4497C18.242 21.7124 18.368 21.0917 18.62 20.5877C18.872 20.0744 19.2127 19.6917 19.642 19.4397C20.0713 19.1877 20.5613 19.0617 21.112 19.0617C21.784 19.0617 22.3767 19.2577 22.89 19.6497C23.4033 20.0324 23.744 20.6111 23.912 21.3857L28 18.9357L28 20.4617ZM22.988 24.3257V22.4497C22.988 21.7591 22.82 21.2411 22.484 20.8957C22.1387 20.5504 21.6813 20.3777 21.112 20.3777C20.5333 20.3777 20.0853 20.5504 19.768 20.8957C19.4507 21.2317 19.292 21.7497 19.292 22.4497V24.3257H22.988Z" fill="white"/>
</svg>
