<svg width="44" height="172" viewBox="0 0 44 172" fill="none" xmlns="http://www.w3.org/2000/svg">
<path d="M0 10C0 4.47716 4.47715 0 10 0H44V172H10C4.47715 172 0 167.523 0 162V10Z" fill="#1670F8"/>
<path d="M21.6541 150.718C21.7164 150.339 21.8736 149.995 22.1255 149.686C22.3774 149.368 22.689 149.12 23.0601 148.942C23.4312 148.754 23.8268 148.662 24.2468 148.664C24.7768 148.668 25.2559 148.806 25.6843 149.078C26.1026 149.351 26.4352 149.748 26.682 150.269C26.9188 150.781 27.0351 151.387 27.0308 152.087L27.0068 155.987L16.552 155.922L16.5751 152.172C16.5794 151.462 16.7031 150.858 16.9462 150.36C17.1793 149.861 17.4966 149.488 17.8981 149.24C18.2997 148.993 18.7504 148.871 19.2504 148.874C19.8704 148.877 20.3843 149.051 20.7922 149.393C21.1902 149.726 21.4775 150.167 21.6541 150.718ZM21.0753 154.585L21.0894 152.29C21.0934 151.65 20.9464 151.154 20.6486 150.802C20.3507 150.45 19.9368 150.273 19.4068 150.27C18.8768 150.266 18.4608 150.439 18.1586 150.787C17.8565 151.135 17.7034 151.639 17.6993 152.299L17.6854 154.564L21.0753 154.585ZM25.9051 152.2C25.9093 151.52 25.7525 150.989 25.4349 150.607C25.1172 150.225 24.6734 150.032 24.1034 150.029C23.5234 150.025 23.0672 150.222 22.7347 150.62C22.3923 151.018 22.219 151.552 22.2149 152.222L22.2003 154.592L25.8902 154.615L25.9051 152.2ZM17.727 145.365L21.2219 145.387L21.2453 141.577L22.3703 141.584L22.3469 145.393L25.9468 145.416L25.973 141.156L27.098 141.163L27.0634 146.787L16.5936 146.723L16.6282 141.098L17.7532 141.105L17.727 145.365ZM21.8727 139.575C20.8527 139.569 19.9391 139.333 19.132 138.868C18.3148 138.403 17.6787 137.774 17.2235 136.981C16.7685 136.179 16.5439 135.292 16.5499 134.322C16.5569 133.182 16.838 132.189 17.3932 131.342C17.9485 130.496 18.7323 129.88 19.7447 129.497L19.7346 131.132C19.1028 131.418 18.6152 131.835 18.2719 132.383C17.9285 132.921 17.7546 133.57 17.7499 134.33C17.7454 135.059 17.9113 135.716 18.2478 136.298C18.5842 136.88 19.0664 137.338 19.6943 137.672C20.3123 138.005 21.0413 138.175 21.8813 138.18C22.7112 138.185 23.4422 138.025 24.0743 137.698C24.6963 137.372 25.1791 136.92 25.5226 136.342C25.8662 135.764 26.0402 135.111 26.0447 134.381C26.0494 133.621 25.8884 132.97 25.5617 132.428C25.2251 131.875 24.7427 131.452 24.1145 131.159L24.1246 129.524C25.1221 129.92 25.8933 130.545 26.4381 131.398C26.9728 132.251 27.2367 133.248 27.2297 134.388C27.2237 135.358 26.9933 136.241 26.5384 137.039C26.0735 137.826 25.4347 138.447 24.6219 138.902C23.8091 139.357 22.8927 139.581 21.8727 139.575ZM27.3162 122.771C27.3102 123.741 27.0798 124.625 26.6249 125.422C26.1599 126.219 25.521 126.85 24.7082 127.315C23.8854 127.77 22.964 127.995 21.944 127.988C20.924 127.982 20.0104 127.746 19.2033 127.281C18.3862 126.806 17.7551 126.167 17.31 125.365C16.855 124.562 16.6304 123.676 16.6364 122.706C16.6424 121.726 16.8779 120.837 17.3428 120.04C17.7977 119.243 18.4316 118.616 19.2444 118.161C20.0572 117.706 20.9786 117.482 22.0086 117.488C23.0386 117.495 23.9571 117.73 24.7643 118.195C25.5714 118.66 26.2026 119.294 26.6576 120.097C27.1027 120.9 27.3222 121.791 27.3162 122.771ZM26.1312 122.764C26.1357 122.034 25.9697 121.378 25.6333 120.796C25.2969 120.204 24.8148 119.741 24.1868 119.407C23.5589 119.063 22.83 118.889 22 118.883C21.16 118.878 20.429 119.044 19.8069 119.38C19.1749 119.706 18.6871 120.158 18.3435 120.736C18 121.314 17.8259 121.973 17.8214 122.713C17.8168 123.453 17.9827 124.114 18.3192 124.696C18.6556 125.278 19.1377 125.741 19.7656 126.085C20.3836 126.419 21.1126 126.588 21.9526 126.593C22.7825 126.598 23.5135 126.438 24.1456 126.112C24.7776 125.776 25.2655 125.319 25.609 124.741C25.9527 124.153 26.1267 123.494 26.1312 122.764ZM16.94 105.05L27.3198 105.114L27.3114 106.479L19.5716 106.431L27.2902 109.929L27.2843 110.889L19.5081 114.306L27.263 114.354L27.2546 115.719L16.8748 115.655L16.8838 114.185L25.4873 110.398L16.9311 106.505L16.94 105.05ZM17.9977 101.377L21.4926 101.398L21.516 97.5882L22.641 97.5951L22.6176 101.405L26.2175 101.427L26.2437 97.1672L27.3687 97.1742L27.3341 102.799L16.8643 102.735L16.8989 97.1097L18.0239 97.1167L17.9977 101.377ZM25.1191 84.9156L25.091 89.4755L27.4108 90.3298L27.4019 91.7698L17.0304 87.9259L17.0401 86.3509L27.4581 82.65L27.4492 84.09L25.1191 84.9156ZM24.0067 85.2988L18.7152 87.1563L23.9834 89.0787L24.0067 85.2988ZM27.6182 73.6894C27.614 74.3793 27.4901 74.9986 27.2468 75.5471C26.9934 76.0856 26.6508 76.5085 26.2189 76.8158C25.777 77.1231 25.2711 77.28 24.701 77.2865L24.71 75.8315C25.2003 75.7845 25.6165 75.5871 25.9586 75.2392C26.2908 74.8812 26.459 74.3622 26.4632 73.6822C26.4672 73.0323 26.3104 72.5213 25.9927 72.1493C25.665 71.7673 25.2462 71.5747 24.7362 71.5716C24.3362 71.5691 24.0105 71.6771 23.7592 71.8956C23.5078 72.114 23.3161 72.3879 23.1841 72.7171C23.0521 73.0462 22.9093 73.4904 22.7559 74.0494C22.5717 74.7383 22.3882 75.2922 22.2057 75.7111C22.0231 76.12 21.741 76.4732 21.3591 76.7709C20.9673 77.0585 20.4465 77.2003 19.7965 77.1963C19.2265 77.1928 18.7224 77.0447 18.2842 76.752C17.846 76.4593 17.5085 76.0522 17.2717 75.5307C17.0349 74.9993 16.9187 74.3935 16.9229 73.7135C16.9289 72.7336 17.1788 71.9351 17.6726 71.3181C18.1665 70.6911 18.8186 70.3401 19.6291 70.2651L19.6199 71.7651C19.2196 71.8126 18.8683 72.0205 18.566 72.3886C18.2538 72.7567 18.0958 73.2458 18.092 73.8557C18.0885 74.4257 18.2356 74.8916 18.5334 75.2535C18.8212 75.6153 19.2301 75.7978 19.7601 75.801C20.1401 75.8034 20.4507 75.7003 20.692 75.4918C20.9333 75.2733 21.12 75.0094 21.2519 74.7002C21.3738 74.3809 21.5166 73.9368 21.6801 73.3678C21.8743 72.679 22.0677 72.1252 22.2603 71.7063C22.4429 71.2875 22.7301 70.9292 23.1219 70.6316C23.5038 70.334 24.0247 70.1872 24.6847 70.1912C25.1947 70.1944 25.6738 70.3323 26.1222 70.6051C26.5705 70.8779 26.933 71.2801 27.2098 71.8118C27.4865 72.3435 27.6226 72.9694 27.6182 73.6894ZM17.1318 61.7009L18.2418 61.7077L18.2242 64.5577L27.569 64.6152L27.5606 65.9801L18.2158 65.9226L18.1982 68.7876L17.0882 68.7808L17.1318 61.7009ZM17.1503 58.6857L23.7652 58.7264C24.6952 58.7321 25.3866 58.5114 25.8393 58.0642C26.2921 57.6069 26.521 56.9733 26.526 56.1634C26.531 55.3634 26.3098 54.737 25.8626 54.2842C25.4154 53.8215 24.7268 53.5872 23.7969 53.5815L17.182 53.5408L17.1904 52.1758L23.7903 52.2165C24.6602 52.2218 25.3942 52.4013 25.992 52.755C26.5798 53.1086 27.0169 53.5863 27.3032 54.1881C27.5896 54.7799 27.7305 55.4458 27.7259 56.1857C27.7214 56.9257 27.5722 57.5948 27.2786 58.193C26.9849 58.7812 26.542 59.2485 25.9499 59.5949C25.3478 59.9312 24.6118 60.0967 23.7418 60.0913L17.1419 60.0507L17.1503 58.6857ZM17.2244 46.6439C17.2314 45.5039 17.4525 44.5202 17.8876 43.6929C18.3128 42.8555 18.9217 42.2192 19.7144 41.7841C20.5071 41.339 21.4385 41.1197 22.5085 41.1263C23.5785 41.1329 24.5071 41.3636 25.2943 41.8184C26.0716 42.2632 26.6676 42.9069 27.0824 43.7495C27.4873 44.582 27.6862 45.5682 27.6792 46.7082L27.6592 49.9631L17.2044 49.8988L17.2244 46.6439ZM26.5543 46.7013C26.5626 45.3513 26.2139 44.3191 25.5083 43.6048C24.7927 42.8904 23.7899 42.5292 22.4999 42.5213C21.1999 42.5133 20.1827 42.867 19.4483 43.5825C18.714 44.288 18.3427 45.3107 18.3344 46.6507L18.3228 48.5407L26.5426 48.5912L26.5543 46.7013ZM18.388 37.9354L21.883 37.9569L21.9064 34.147L23.0314 34.1539L23.008 37.9638L26.6079 37.986L26.6341 33.7261L27.7591 33.733L27.7245 39.3579L17.2547 39.2935L17.2893 33.6686L18.4143 33.6755L18.388 37.9354ZM27.8224 23.4477L27.814 24.8127L19.4553 30.2514L27.7802 30.3026L27.7718 31.6676L17.302 31.6032L17.3104 30.2382L25.654 24.7994L17.3442 24.7483L17.3526 23.3833L27.8224 23.4477ZM17.4215 14.6217L18.5315 14.6285L18.5139 17.4785L27.8587 17.536L27.8503 18.901L18.5055 18.8435L18.4879 21.7084L17.3779 21.7016L17.4215 14.6217Z" fill="white"/>
</svg>
