<svg width="46" height="140" viewBox="0 0 46 140" fill="none" xmlns="http://www.w3.org/2000/svg">
<path d="M0 10C0 4.47716 4.47715 0 10 0H46V140H10C4.47715 140 0 135.523 0 130V10Z" fill="#424242"/>
<path d="M24.114 92.398C23.162 92.398 22.308 92.1833 21.552 91.754C20.7867 91.3247 20.1893 90.7413 19.76 90.004C19.3307 89.2573 19.116 88.4313 19.116 87.526C19.116 86.462 19.3727 85.5333 19.886 84.74C20.3993 83.9467 21.1273 83.368 22.07 83.004V84.53C21.482 84.8007 21.0293 85.1927 20.712 85.706C20.3947 86.21 20.236 86.8167 20.236 87.526C20.236 88.2073 20.3947 88.8187 20.712 89.36C21.0293 89.9013 21.482 90.326 22.07 90.634C22.6487 90.942 23.33 91.096 24.114 91.096C24.8887 91.096 25.57 90.942 26.158 90.634C26.7367 90.326 27.1847 89.9013 27.502 89.36C27.8193 88.8187 27.978 88.2073 27.978 87.526C27.978 86.8167 27.824 86.21 27.516 85.706C27.1987 85.1927 26.746 84.8007 26.158 84.53V83.004C27.0913 83.368 27.8147 83.9467 28.328 84.74C28.832 85.5333 29.084 86.462 29.084 87.526C29.084 88.4313 28.874 89.2573 28.454 90.004C28.0247 90.7413 27.432 91.3247 26.676 91.754C25.92 92.1833 25.066 92.398 24.114 92.398ZM26.83 75.3395V79.5955L29 80.3795L29 81.7235L19.298 78.1955V76.7255L29 73.2115L29 74.5555L26.83 75.3395ZM25.794 75.7035L20.866 77.4675L25.794 79.2315V75.7035ZM27.964 70.4V66.984H29V71.674H19.242L19.242 70.4H27.964ZM27.964 64.357V60.941H29V65.631H19.242V64.357H27.964ZM23.974 50.9696C24.03 50.6149 24.1747 50.2929 24.408 50.0036C24.6413 49.7049 24.9307 49.4716 25.276 49.3036C25.6213 49.1263 25.99 49.0376 26.382 49.0376C26.8767 49.0376 27.3247 49.1636 27.726 49.4156C28.118 49.6676 28.4307 50.0363 28.664 50.5216C28.888 50.9976 29 51.5623 29 52.2156V55.8556H19.242V52.3556C19.242 51.6929 19.354 51.1283 19.578 50.6616C19.7927 50.1949 20.0867 49.8449 20.46 49.6116C20.8333 49.3783 21.2533 49.2616 21.72 49.2616C22.2987 49.2616 22.7793 49.4203 23.162 49.7376C23.5353 50.0456 23.806 50.4563 23.974 50.9696ZM23.456 54.5816V52.4396C23.456 51.8423 23.316 51.3803 23.036 51.0536C22.756 50.7269 22.3687 50.5636 21.874 50.5636C21.3793 50.5636 20.992 50.7269 20.712 51.0536C20.432 51.3803 20.292 51.8516 20.292 52.4676V54.5816H23.456ZM27.95 52.3276C27.95 51.6929 27.8007 51.1983 27.502 50.8436C27.2033 50.4889 26.788 50.3116 26.256 50.3116C25.7147 50.3116 25.29 50.4983 24.982 50.8716C24.6647 51.2449 24.506 51.7443 24.506 52.3696V54.5816H27.95V52.3276ZM26.83 41.5017L26.83 45.7577L29 46.5417V47.8857L19.298 44.3577V42.8877L29 39.3737V40.7177L26.83 41.5017ZM25.794 41.8657L20.866 43.6297L25.794 45.3937L25.794 41.8657ZM24.114 38.3121C23.162 38.3121 22.308 38.0974 21.552 37.6681C20.7867 37.2387 20.1893 36.6554 19.76 35.9181C19.3307 35.1714 19.116 34.3454 19.116 33.4401C19.116 32.3761 19.3727 31.4474 19.886 30.6541C20.3993 29.8607 21.1273 29.2821 22.07 28.9181V30.4441C21.482 30.7147 21.0293 31.1067 20.712 31.6201C20.3947 32.1241 20.236 32.7307 20.236 33.4401C20.236 34.1214 20.3947 34.7327 20.712 35.2741C21.0293 35.8154 21.482 36.2401 22.07 36.5481C22.6487 36.8561 23.33 37.0101 24.114 37.0101C24.8887 37.0101 25.57 36.8561 26.158 36.5481C26.7367 36.2401 27.1847 35.8154 27.502 35.2741C27.8193 34.7327 27.978 34.1214 27.978 33.4401C27.978 32.7307 27.824 32.1241 27.516 31.6201C27.1987 31.1067 26.746 30.7147 26.158 30.4441V28.9181C27.0913 29.2821 27.8147 29.8607 28.328 30.6541C28.832 31.4474 29.084 32.3761 29.084 33.4401C29.084 34.3454 28.874 35.1714 28.454 35.9181C28.0247 36.6554 27.432 37.2387 26.676 37.6681C25.92 38.0974 25.066 38.3121 24.114 38.3121ZM29 21.7296L24.548 25.7476H29V27.0216H19.242V25.7476H23.764L19.242 21.7156L19.242 20.1056L24.128 24.5296L29 20.0636V21.7296Z" fill="white"/>
<path d="M32.95 124C30.8 124 28.7043 123.521 26.663 122.562C24.6217 121.603 22.8133 120.337 21.238 118.762C19.6627 117.187 18.396 115.379 17.438 113.337C16.48 111.295 16.0007 109.199 16 107.05C16 106.75 16.1 106.5 16.3 106.3C16.5 106.1 16.75 106 17.05 106H21.1C21.3333 106 21.5417 106.075 21.725 106.225C21.9083 106.375 22.0167 106.567 22.05 106.8L22.7 110.3C22.7333 110.533 22.729 110.746 22.687 110.938C22.645 111.13 22.5493 111.301 22.4 111.45L20 113.9C20.7 115.1 21.575 116.225 22.625 117.275C23.675 118.325 24.8333 119.233 26.1 120L28.45 117.65C28.6 117.5 28.796 117.388 29.038 117.313C29.28 117.238 29.5173 117.217 29.75 117.25L33.2 117.95C33.4333 118 33.625 118.113 33.775 118.288C33.925 118.463 34 118.667 34 118.9V122.95C34 123.25 33.9 123.5 33.7 123.7C33.5 123.9 33.25 124 32.95 124Z" fill="white"/>
</svg>
