<svg width="42" height="42" viewBox="0 0 42 42" fill="none" xmlns="http://www.w3.org/2000/svg">
<path d="M33.5098 18.7304V29.0204C34.6219 29.932 35.8546 30.6885 37.1781 31.257C38.6849 31.9043 39.7258 33.4284 39.6591 35.1871C39.5784 37.3129 37.8462 39.0451 35.7203 39.1258C34.9132 39.1565 34.1559 38.9533 33.5098 38.5794V41.1797H2.33789V0.820312H33.5098V11.3271" stroke="white" stroke-width="1.5" stroke-miterlimit="10" stroke-linecap="round" stroke-linejoin="round"/>
<path d="M16.9395 4.10156V6.31641C11.276 6.31641 6.68555 10.9069 6.68555 16.5703V4.10156H16.9395Z" stroke="white" stroke-width="1.5" stroke-miterlimit="10" stroke-linecap="round" stroke-linejoin="round"/>
<path d="M16.9395 26.8242C22.6025 26.8242 27.1934 22.2334 27.1934 16.5703C27.1934 10.9072 22.6025 6.31641 16.9395 6.31641C11.2764 6.31641 6.68555 10.9072 6.68555 16.5703C6.68555 22.2334 11.2764 26.8242 16.9395 26.8242Z" stroke="white" stroke-width="1.5" stroke-miterlimit="10" stroke-linecap="round" stroke-linejoin="round"/>
<path d="M24.8906 27.8377L28.3709 24.3574L32.8681 28.4659C34.1405 29.6284 35.5947 30.5767 37.1782 31.257C38.6849 31.9043 39.7259 33.4284 39.6591 35.1871C39.5784 37.3129 37.8463 39.0451 35.7204 39.1258C33.9617 39.1926 32.4376 38.1516 31.7904 36.6448C31.1101 35.0614 30.1617 33.6071 28.9993 32.3348L24.8906 27.8377Z" stroke="white" stroke-width="1.5" stroke-miterlimit="10" stroke-linecap="round" stroke-linejoin="round"/>
<path d="M29.1621 10.6641H25.3477M29.1621 7.38281H21.5742M29.1621 4.10156H24.8145M6.68555 36.668H27.8496M6.68555 33.3867H25.1426M6.68555 30.1055H16.9395M21.41 28.9977C22.0507 29.6386 23.0896 29.6387 23.7304 28.9979L29.5312 23.1971C30.1719 22.5565 30.1719 21.5179 29.5312 20.8772C28.8907 20.2366 27.852 20.2365 27.2114 20.8771L21.4103 26.6776C20.7696 27.3183 20.7694 28.357 21.41 28.9977Z" stroke="white" stroke-width="1.5" stroke-miterlimit="10" stroke-linecap="round" stroke-linejoin="round"/>
</svg>
