<svg width="46" height="140" viewBox="0 0 46 140" fill="none" xmlns="http://www.w3.org/2000/svg">
<path d="M0 10C0 4.47716 4.47715 0 10 0H46V140H10C4.47715 140 0 135.523 0 130V10Z" fill="#1670F8"/>
<path d="M24.114 95.398C23.162 95.398 22.308 95.1833 21.552 94.754C20.7867 94.3247 20.1893 93.7413 19.76 93.004C19.3307 92.2573 19.116 91.4313 19.116 90.526C19.116 89.462 19.3727 88.5333 19.886 87.74C20.3993 86.9467 21.1273 86.368 22.07 86.004V87.53C21.482 87.8007 21.0293 88.1927 20.712 88.706C20.3947 89.21 20.236 89.8167 20.236 90.526C20.236 91.2073 20.3947 91.8187 20.712 92.36C21.0293 92.9013 21.482 93.326 22.07 93.634C22.6487 93.942 23.33 94.096 24.114 94.096C24.8887 94.096 25.57 93.942 26.158 93.634C26.7367 93.326 27.1847 92.9013 27.502 92.36C27.8193 91.8187 27.978 91.2073 27.978 90.526C27.978 89.8167 27.824 89.21 27.516 88.706C27.1987 88.1927 26.746 87.8007 26.158 87.53V86.004C27.0913 86.368 27.8147 86.9467 28.328 87.74C28.832 88.5333 29.084 89.462 29.084 90.526C29.084 91.4313 28.874 92.2573 28.454 93.004C28.0247 93.7413 27.432 94.3247 26.676 94.754C25.92 95.1833 25.066 95.398 24.114 95.398ZM19.242 76.5895H29L29 77.8635H24.576V82.8335H29V84.1075H19.242V82.8335H23.526V77.8635H19.242V76.5895ZM26.83 68.6462V72.9022L29 73.6862V75.0302L19.298 71.5022V70.0322L29 66.5182V67.8622L26.83 68.6462ZM25.794 69.0102L20.866 70.7742L25.794 72.5382V69.0102ZM19.242 58.9746H20.278V61.6346H29V62.9086H20.278V65.5826H19.242V58.9746ZM29 46.002V47.276L21.23 52.4H29L29 53.674H19.228V52.4L26.984 47.276H19.228V46.002H29ZM29.098 39.4062C29.098 40.3115 28.888 41.1375 28.468 41.8842C28.0387 42.6309 27.446 43.2235 26.69 43.6622C25.9247 44.0915 25.066 44.3062 24.114 44.3062C23.162 44.3062 22.308 44.0915 21.552 43.6622C20.7867 43.2235 20.194 42.6309 19.774 41.8842C19.3447 41.1375 19.13 40.3115 19.13 39.4062C19.13 38.4915 19.3447 37.6609 19.774 36.9142C20.194 36.1675 20.782 35.5795 21.538 35.1502C22.294 34.7209 23.1527 34.5062 24.114 34.5062C25.0753 34.5062 25.934 34.7209 26.69 35.1502C27.446 35.5795 28.0387 36.1675 28.468 36.9142C28.888 37.6609 29.098 38.4915 29.098 39.4062ZM27.992 39.4062C27.992 38.7249 27.8333 38.1135 27.516 37.5722C27.1987 37.0215 26.746 36.5922 26.158 36.2842C25.57 35.9669 24.8887 35.8082 24.114 35.8082C23.33 35.8082 22.6487 35.9669 22.07 36.2842C21.482 36.5922 21.0293 37.0169 20.712 37.5582C20.3947 38.0995 20.236 38.7155 20.236 39.4062C20.236 40.0969 20.3947 40.7129 20.712 41.2542C21.0293 41.7955 21.482 42.2249 22.07 42.5422C22.6487 42.8502 23.33 43.0042 24.114 43.0042C24.8887 43.0042 25.57 42.8502 26.158 42.5422C26.746 42.2249 27.1987 41.7955 27.516 41.2542C27.8333 40.7035 27.992 40.0875 27.992 39.4062ZM19.242 20.5603L29 23.3883V24.8163L21.146 27.0843L29 29.4363L29.014 30.8503L19.242 33.5803V32.2223L27.516 30.0943L19.242 27.7423V26.3143L27.488 24.0743L19.242 21.9323V20.5603Z" fill="white"/>
<path d="M25 107C30.5 107 35 110.58 35 115C35 119.42 30.5 123 25 123C23.76 123 22.57 122.82 21.47 122.5C18.55 125 15 125 15 125C17.33 122.67 17.7 121.1 17.75 120.5C16.05 119.07 15 117.13 15 115C15 110.58 19.5 107 25 107Z" fill="white"/>
</svg>
