<svg width="42" height="42" viewBox="0 0 42 42" fill="none" xmlns="http://www.w3.org/2000/svg">
<g clip-path="url(#clip0_2_157)">
<mask id="mask0_2_157" style="mask-type:luminance" maskUnits="userSpaceOnUse" x="0" y="0" width="42" height="42">
<path d="M41.2499 41.25V0.750122H0.75V41.25H41.2499Z" fill="white" stroke="white" stroke-width="1.5"/>
</mask>
<g mask="url(#mask0_2_157)">
<path d="M16.3152 30.8403C17.4387 36.5015 22.4325 40.7695 28.4238 40.7695C30.901 40.7695 33.2074 40.0394 35.1406 38.7833L40.1759 40.176L38.7832 35.1407C40.0393 33.2075 40.7694 30.9011 40.7694 28.4239C40.7694 22.4326 36.5014 17.4388 30.8401 16.3153" stroke="white" stroke-width="1.5" stroke-miterlimit="10"/>
<path d="M16.0371 1.23059C7.85964 1.23059 1.23047 7.85976 1.23047 16.0372C1.23047 18.9688 2.08269 21.7013 3.55252 24.0008L1.82396 30.2503L8.07341 28.5217C10.373 29.9916 13.1054 30.8438 16.0371 30.8438C24.2145 30.8438 30.8437 24.2146 30.8437 16.0372C30.8437 7.85976 24.2145 1.23059 16.0371 1.23059Z" stroke="white" stroke-width="1.5" stroke-miterlimit="10"/>
<path d="M15.5566 22.9805V23.9415H16.5175V22.9805H15.5566Z" fill="white" stroke="white" stroke-width="1.5"/>
<path d="M12.3457 12.3048C12.3457 10.2661 13.9984 8.61337 16.0371 8.61337C18.0758 8.61337 19.7285 10.2661 19.7285 12.3048C19.7285 13.3835 19.2656 14.354 18.5278 15.0289L16.0371 17.3087V19.7696" stroke="white" stroke-width="1.5" stroke-miterlimit="10"/>
</g>
</g>
<defs>
<clipPath id="clip0_2_157">
<rect width="42" height="42" fill="white"/>
</clipPath>
</defs>
</svg>
