<svg width="42" height="42" viewBox="0 0 42 42" fill="none" xmlns="http://www.w3.org/2000/svg">
<path d="M29.3022 15.5827C29.3022 15.4195 29.2373 15.263 29.122 15.1476C29.0066 15.0322 28.8501 14.9674 28.6869 14.9674H10.3686C10.029 14.9674 9.75337 15.243 9.75337 15.5827C9.75337 15.9224 10.029 16.1979 10.3686 16.1979H28.6869C28.8501 16.1979 29.0066 16.1331 29.122 16.0177C29.2373 15.9023 29.3022 15.7458 29.3022 15.5827ZM4.82001 16.1979H7.50423C7.84393 16.1979 8.11947 15.9224 8.11947 15.5827C8.11947 15.243 7.84393 14.9674 7.50423 14.9674H4.82001C4.65684 14.9674 4.50035 15.0322 4.38497 15.1476C4.26959 15.263 4.20477 15.4195 4.20477 15.5827C4.20477 15.7458 4.26959 15.9023 4.38497 16.0177C4.50035 16.1331 4.65684 16.1979 4.82001 16.1979ZM22.2644 28.8798C22.2644 28.7167 22.1996 28.5602 22.0842 28.4448C21.9689 28.3294 21.8124 28.2646 21.6492 28.2646H4.82001C4.7392 28.2646 4.65919 28.2805 4.58453 28.3114C4.50987 28.3423 4.44204 28.3876 4.3849 28.4447C4.32776 28.5019 4.28245 28.5697 4.25154 28.6444C4.22063 28.719 4.20474 28.799 4.20477 28.8798C4.20477 29.043 4.26959 29.1995 4.38497 29.3149C4.50035 29.4303 4.65684 29.4951 4.82001 29.4951H21.6492C21.9888 29.4951 22.2644 29.2194 22.2644 28.8798ZM25.3034 22.2311C25.3034 22.068 25.2386 21.9115 25.1232 21.7961C25.0078 21.6807 24.8513 21.6159 24.6881 21.6159H4.82009C4.65692 21.6159 4.50043 21.6807 4.38505 21.7961C4.26967 21.9115 4.20485 22.068 4.20485 22.2311C4.20485 22.5711 4.48007 22.8464 4.82009 22.8464H24.6881C25.0281 22.8464 25.3034 22.5711 25.3034 22.2311ZM4.82001 34.9129C4.7392 34.9129 4.65919 34.9288 4.58453 34.9597C4.50987 34.9906 4.44204 35.0359 4.3849 35.093C4.32776 35.1502 4.28245 35.218 4.25154 35.2927C4.22063 35.3673 4.20474 35.4473 4.20477 35.5281C4.20477 35.6913 4.26959 35.8478 4.38497 35.9632C4.50035 36.0786 4.65684 36.1434 4.82001 36.1434H17.6294C17.7925 36.1434 17.949 36.0786 18.0644 35.9632C18.1798 35.8478 18.2446 35.6913 18.2446 35.5281C18.2446 35.1882 17.9694 34.9129 17.6294 34.9129H4.82001Z" fill="white"/>
<path d="M32.2758 26.0072C32.1126 26.0072 31.9561 26.072 31.8407 26.1874C31.7254 26.3028 31.6605 26.4593 31.6605 26.6224V39.9409C31.6605 40.3978 31.2889 40.7695 30.8319 40.7695H2.05915C1.60223 40.7695 1.23047 40.3979 1.23047 39.9409V2.05915C1.23047 1.60223 1.60215 1.23047 2.05915 1.23047H23.3904V7.55811C23.3904 8.38901 24.0662 9.06478 24.8971 9.06478H31.6605V11.1982C31.6605 11.3614 31.7253 11.5179 31.8407 11.6333C31.956 11.7487 32.1125 11.8135 32.2757 11.8135C32.4389 11.8135 32.5953 11.7487 32.7107 11.6333C32.8261 11.5179 32.8909 11.3614 32.8909 11.1982V8.45053C32.8907 8.37555 32.8767 8.30126 32.8496 8.23134C32.8496 8.23102 32.8493 8.23069 32.8493 8.23003C32.8283 8.17566 32.7997 8.12453 32.7643 8.07819C32.7615 8.07434 32.7586 8.07048 32.7553 8.06662C32.7379 8.0444 32.719 8.0234 32.6987 8.00379L24.4286 0.168574C24.4089 0.150197 24.388 0.133178 24.3661 0.117633C24.3607 0.113777 24.3555 0.109922 24.3501 0.106395C24.3286 0.0915785 24.3063 0.0782052 24.2831 0.0663633C24.2799 0.0647227 24.2763 0.0634102 24.2732 0.0618516C24.2525 0.0518426 24.2312 0.0430771 24.2094 0.0356016C24.2033 0.0333047 24.1973 0.0310898 24.1911 0.0291211C24.1667 0.0213694 24.1419 0.0150692 24.1168 0.0102539L24.1033 0.00836719C24.0814 0.00482481 24.0592 0.00257874 24.037 0.00164062C24.0306 0.0013125 24.0242 0.00065625 24.0178 0.00065625C24.0137 0.00065625 24.0094 0 24.0056 0H2.05898C0.923836 0 0 0.923836 0 2.05915V39.9409C0 41.0762 0.923836 42 2.05915 42H30.8319C31.9672 42 32.891 41.0762 32.891 39.9409V26.6224C32.891 26.2828 32.6154 26.0072 32.2758 26.0072ZM24.6209 2.04553L30.7306 7.83423H24.8968C24.8236 7.8341 24.7534 7.80496 24.7017 7.75319C24.6499 7.70142 24.6207 7.63124 24.6206 7.55803V2.04553H24.6209Z" fill="white"/>
<path d="M39.3523 10.5285C39.3305 10.3873 39.2778 10.2525 39.1981 10.1339C39.1183 10.0153 39.0134 9.91564 38.8909 9.84211L37.1442 8.78883C36.9466 8.66896 36.7127 8.62335 36.4846 8.66018C36.2564 8.697 36.0488 8.81386 35.8989 8.9898L33.1675 12.1768C32.847 12.5514 32.5338 12.9321 32.228 13.3188C32.023 13.5771 31.8214 13.838 31.6231 14.1014C31.619 14.1065 31.615 14.1119 31.6112 14.1174C31.1218 14.7699 30.6533 15.4378 30.2064 16.1201C29.4854 17.2222 28.8216 18.3608 28.2178 19.5311C28.0664 19.8233 27.9189 20.1175 27.7753 20.4136L23.3078 29.7988L19.9422 32.5994C19.8205 32.6999 19.7292 32.8324 19.6785 32.9819C19.6278 33.1314 19.6197 33.2921 19.6551 33.4459C19.7763 33.9767 20.1351 35.887 19.6682 38.1878C19.5965 38.5425 19.7487 38.8921 20.056 39.0825C20.0589 39.0844 20.0617 39.0866 20.0647 39.0885C20.0855 39.101 20.1066 39.1113 20.1281 39.1209C20.2495 39.1815 20.379 39.2132 20.5081 39.2132C20.6991 39.2132 20.8888 39.1478 21.0464 39.0187C22.8637 37.5318 24.7206 36.9576 25.2464 36.8173C25.399 36.7769 25.5374 36.6947 25.6459 36.5801C25.7545 36.4655 25.8289 36.323 25.861 36.1684L26.7672 31.8848L32.9849 23.5504C33.1034 23.3894 33.2206 23.2274 33.3364 23.0646C33.34 23.0597 33.3432 23.055 33.3467 23.0505C33.3679 23.0209 33.388 22.9909 33.4089 22.9614C34.8851 20.873 36.1485 18.642 37.18 16.3018C37.379 15.8517 37.5692 15.3977 37.7507 14.9403L39.2945 11.0371C39.3587 10.8757 39.3786 10.7001 39.3523 10.5285V10.5285ZM24.704 35.6922C24.2028 35.8419 23.2639 36.1688 22.1808 36.7708L23.4426 34.6777C23.4844 34.6086 23.5121 34.5318 23.5241 34.452C23.5362 34.3721 23.5324 34.2906 23.513 34.2122C23.4936 34.1338 23.4589 34.06 23.4109 33.995C23.363 33.93 23.3027 33.8751 23.2335 33.8334C23.1643 33.7916 23.0876 33.7639 23.0078 33.7518C22.9279 33.7397 22.8464 33.7434 22.768 33.7629C22.6896 33.7823 22.6158 33.8169 22.5507 33.8649C22.4857 33.9128 22.4308 33.9731 22.3891 34.0423L21.1269 36.1354C21.1541 34.8963 21.0048 33.9139 20.9032 33.4002L23.8621 30.9383L25.5005 31.9262L24.704 35.6922ZM36.6061 14.4878C36.4728 14.8245 36.3344 15.1592 36.1911 15.4918C35.0764 18.0856 33.6689 20.5436 31.996 22.8178L26.6047 30.0446L26.0334 30.8104L24.6004 29.9462L26.2904 26.3954L28.8843 20.9461C29.1355 20.4279 29.3987 19.9155 29.6735 19.4093C29.6838 19.3908 29.6934 19.3718 29.7037 19.3533C29.719 19.3248 29.7353 19.2965 29.7508 19.2684C30.5009 17.9011 31.3365 16.5825 32.2524 15.3202C32.2796 15.2828 32.3078 15.2456 32.3351 15.2082C32.8953 14.4423 33.4847 13.6982 34.102 12.9776L34.7777 12.189L36.9885 13.522L36.6061 14.4878ZM37.4473 12.3617L35.5897 11.2415L36.6933 9.954L38.0711 10.7849L37.4473 12.3617ZM5.23942 9.06478H17.9835C18.5544 9.06478 19.0187 8.60048 19.0187 8.02979V5.69026C19.0187 5.11957 18.5544 4.65527 17.9835 4.65527H5.23934C4.66865 4.65527 4.20468 5.11957 4.20468 5.69026V8.02979C4.20468 8.60048 4.66873 9.06478 5.23942 9.06478ZM5.43523 5.88574H17.7883V7.83431H5.43523V5.88574Z" fill="white"/>
</svg>
