<svg width="58" height="58" viewBox="0 0 58 58" fill="none" xmlns="http://www.w3.org/2000/svg">
<rect width="58" height="58" rx="10" fill="#1CD7AF"/>
<g clip-path="url(#clip0_1_24)">
<path d="M37.0634 20.2891L36.5268 20.4192L36.8814 21.8822H37.4495L37.0634 20.2891ZM39.7137 18.4927L39.165 18.4315L38.781 21.8822H39.3363L39.7137 18.4927ZM20.7611 27.1031C20.8454 27.1192 20.9293 27.1269 21.0121 27.1269C21.3079 27.126 21.5949 27.026 21.8271 26.8428H34.3508V26.438H22.1691C22.2367 26.3175 22.2848 26.1871 22.3118 26.0516C22.3329 25.9394 22.3394 25.8249 22.331 25.7109L18.3722 26.6449L20.7611 27.1031ZM13.2622 25.6681L10.0742 22.895C9.89213 22.7375 9.74308 22.5455 9.63571 22.33C9.52833 22.1144 9.46477 21.8798 9.44869 21.6396C9.43131 21.3994 9.46174 21.1582 9.53823 20.9299C9.61471 20.7015 9.73573 20.4907 9.89427 20.3094C10.2133 19.9428 10.6649 19.7178 11.1498 19.684C11.6346 19.6502 12.1131 19.8104 12.4799 20.1293L16.0675 23.2499L13.8919 19.5547C13.8133 19.386 13.7187 19.2253 13.6093 19.0747L13.589 19.0403C13.4782 18.8514 13.3221 18.6932 13.1348 18.5799C12.87 18.3707 12.5605 18.2253 12.2304 18.1551C10.5538 17.8011 8.1018 18.6609 7.06778 21.2792C5.66899 24.8871 5.34309 27.2267 5.78911 31.1709C5.95405 31.9959 6.25324 32.6033 6.63788 33.0504H3.86482C3.43977 33.0504 3.09201 33.3982 3.09201 33.8232C3.09201 34.2483 3.43977 34.596 3.86482 34.596H4.30598L2.1207 48.1136L3.52323 48.3335L3.84362 46.3518C3.85091 46.352 3.85753 46.354 3.86482 46.354H14.3167C14.324 46.354 14.3306 46.352 14.3379 46.3518L14.6583 48.3335L16.0608 48.1136L13.8756 34.5962H14.3167C14.3704 34.5962 14.4227 34.5905 14.4733 34.5801L15.5197 40.9772C15.6967 42.06 16.6334 42.8293 17.6959 42.8293C17.8142 42.8293 17.9344 42.8196 18.0549 42.7999C19.2583 42.603 20.0744 41.4678 19.8774 40.2645L18.4782 31.7104C18.3936 31.1934 18.1281 30.7233 17.7289 30.3841C17.3297 30.0449 16.8229 29.8587 16.2991 29.8587H12.7384C12.7565 28.463 12.9822 27.0216 13.2622 25.6681ZM14.0886 44.8084H4.09313L5.74407 34.5962H12.4375L14.0886 44.8084Z" fill="white"/>
<path d="M15.0253 17.9005C17.5752 17.9005 19.6423 15.8334 19.6423 13.2835C19.6423 10.7336 17.5752 8.66652 15.0253 8.66652C12.4754 8.66652 10.4083 10.7336 10.4083 13.2835C10.4083 15.8334 12.4754 17.9005 15.0253 17.9005Z" fill="white"/>
<path d="M47.1207 27.4793H17.2731V28.5834H18.8922V30.5337H20.0883V48.1281H21.5235V45.5759H42.8703V48.1281H44.3055V30.5337H45.5016V28.5834H47.1207V27.4793ZM42.8703 44.1407H21.5235V30.5337H42.8703V44.1407ZM21.981 22.0346L18.9342 18.354L18.1971 18.9641L20.9368 22.2737L21.8593 22.056C21.8995 22.0467 21.9404 22.0414 21.981 22.0346ZM23.5361 25.1717L24.5399 25.8761L23.9543 24.5791C23.8555 24.8023 23.7133 25.0038 23.5361 25.1717Z" fill="white"/>
<path d="M16.0867 23.9401L12.1465 20.5126C11.8813 20.282 11.5355 20.1662 11.1849 20.1906C10.8344 20.215 10.508 20.3777 10.2774 20.6428C10.0468 20.908 9.93097 21.2539 9.9554 21.6044C9.97983 21.9549 10.1425 22.2814 10.4076 22.5119L14.8603 26.385C15.019 26.523 15.2081 26.6213 15.4122 26.6717C15.6163 26.7221 15.8295 26.7232 16.0341 26.675L22.5847 25.1293C22.754 25.0894 22.9138 25.0165 23.055 24.9147C23.1961 24.813 23.3159 24.6845 23.4074 24.5365C23.4989 24.3885 23.5603 24.2239 23.5882 24.0522C23.6161 23.8805 23.6099 23.7049 23.5699 23.5356C23.5299 23.3662 23.457 23.2064 23.3553 23.0653C23.2536 22.9241 23.1251 22.8044 22.9771 22.7129C22.8291 22.6214 22.6645 22.56 22.4928 22.5321C22.321 22.5042 22.1455 22.5104 21.9762 22.5504L16.0867 23.9401ZM36.743 22.3898H39.6503V26.8428H36.743V22.3898Z" fill="white"/>
</g>
<defs>
<clipPath id="clip0_1_24">
<rect width="45" height="45" fill="white" transform="translate(6 6)"/>
</clipPath>
</defs>
</svg>
