<svg width="28" height="22" viewBox="0 0 28 22" fill="none" xmlns="http://www.w3.org/2000/svg">
<path d="M4.25158 9.67366C5.74813 9.67366 6.96487 8.35553 6.96487 6.73427C6.96487 5.113 5.74813 3.79487 4.25158 3.79487C2.75503 3.79487 1.53829 5.113 1.53829 6.73427C1.53829 8.35553 2.75503 9.67366 4.25158 9.67366ZM23.2446 9.67366C24.7412 9.67366 25.9579 8.35553 25.9579 6.73427C25.9579 5.113 24.7412 3.79487 23.2446 3.79487C21.7481 3.79487 20.5313 5.113 20.5313 6.73427C20.5313 8.35553 21.7481 9.67366 23.2446 9.67366ZM24.6013 11.1434H21.888C21.1418 11.1434 20.4677 11.4695 19.9759 11.9976C21.6845 13.0126 22.897 14.8452 23.1598 17.0222H25.9579C26.7083 17.0222 27.3146 16.3654 27.3146 15.5525V14.0828C27.3146 12.4615 26.0978 11.1434 24.6013 11.1434ZM13.7481 11.1434C16.3724 11.1434 18.4964 8.84237 18.4964 5.99942C18.4964 3.15647 16.3724 0.855469 13.7481 0.855469C11.1238 0.855469 8.99984 3.15647 8.99984 5.99942C8.99984 8.84237 11.1238 11.1434 13.7481 11.1434ZM17.004 12.6131H16.6522C15.7703 13.0723 14.791 13.3479 13.7481 13.3479C12.7052 13.3479 11.7301 13.0723 10.844 12.6131H10.4921C7.79581 12.6131 5.60822 14.983 5.60822 17.904V19.2267C5.60822 20.4438 6.51972 21.4313 7.64319 21.4313H19.853C20.9765 21.4313 21.888 20.4438 21.888 19.2267V17.904C21.888 14.983 19.7004 12.6131 17.004 12.6131ZM7.52025 11.9976C7.02846 11.4695 6.35438 11.1434 5.60822 11.1434H2.89493C1.39838 11.1434 0.181641 12.4615 0.181641 14.0828V15.5525C0.181641 16.3654 0.787892 17.0222 1.53829 17.0222H4.33213C4.59922 14.8452 5.81172 13.0126 7.52025 11.9976Z" fill="#1670F8"/>
</svg>
