<svg width="42" height="42" viewBox="0 0 42 42" fill="none" xmlns="http://www.w3.org/2000/svg">
<g clip-path="url(#clip0_2_190)">
<mask id="mask0_2_190" style="mask-type:luminance" maskUnits="userSpaceOnUse" x="0" y="0" width="42" height="42">
<path d="M41.2499 41.25V0.750122H0.75V41.25H41.2499Z" fill="white" stroke="white" stroke-width="1.5"/>
</mask>
<g mask="url(#mask0_2_190)">
<path d="M0.820312 12.7417H38.187" stroke="white" stroke-width="1.5" stroke-miterlimit="10" stroke-linecap="round" stroke-linejoin="round"/>
<path d="M7.67047 9.25092C8.74475 9.25092 9.62133 8.37713 9.62133 7.30343C9.62133 6.22972 8.74475 5.35593 7.67047 5.35593C6.59857 5.35593 5.72191 6.22972 5.72191 7.30343C5.72191 8.37713 6.59857 9.25092 7.67047 9.25092Z" stroke="white" stroke-width="1.5" stroke-miterlimit="10" stroke-linecap="round" stroke-linejoin="round"/>
<path d="M24.6052 5.35593H31.9437C33.0156 5.35593 33.8923 6.2321 33.8923 7.30343C33.8923 8.37483 33.0156 9.25092 31.9437 9.25092H24.6052C23.5333 9.25092 22.6566 8.37483 22.6566 7.30343C22.6566 6.2321 23.5333 5.35593 24.6052 5.35593Z" stroke="white" stroke-width="1.5" stroke-miterlimit="10" stroke-linecap="round" stroke-linejoin="round"/>
<path d="M14.8648 9.25092C15.939 9.25092 16.8156 8.37713 16.8156 7.30343C16.8156 6.22972 15.939 5.35593 14.8648 5.35593C13.7929 5.35593 12.9162 6.22972 12.9162 7.30343C12.9162 8.37713 13.7929 9.25092 14.8648 9.25092Z" stroke="white" stroke-width="1.5" stroke-miterlimit="10" stroke-linecap="round" stroke-linejoin="round"/>
<path d="M13.3232 19.0513L11.6815 25.9212" stroke="white" stroke-width="1.5" stroke-miterlimit="10" stroke-linecap="round" stroke-linejoin="round"/>
<path d="M17.104 25.3007L19.4269 22.6931C19.5292 22.5792 19.5292 22.3933 19.4269 22.2795L17.104 19.6719" stroke="white" stroke-width="1.5" stroke-miterlimit="10" stroke-linecap="round" stroke-linejoin="round"/>
<path d="M7.90074 25.3007L5.57786 22.6931C5.47549 22.5792 5.47549 22.3933 5.57786 22.2795L7.90074 19.6719" stroke="white" stroke-width="1.5" stroke-miterlimit="10" stroke-linecap="round" stroke-linejoin="round"/>
<path d="M33.1831 22.6768C34.0806 22.8767 34.92 23.2299 35.6758 23.704L36.3478 23.0347C36.7454 22.6349 37.3988 22.6349 37.7987 23.0347L38.8567 24.0921C39.2566 24.4919 39.2566 25.1449 38.8567 25.5424L38.187 26.2139C38.6653 26.9728 39.0113 27.8074 39.2102 28.6821H40.1518C40.7169 28.6821 41.1796 29.1446 41.1796 29.707V31.206C41.1796 31.7683 40.7169 32.2308 40.1518 32.2308H39.2055C39.0061 33.1003 38.6618 33.9299 38.187 34.685L38.8567 35.3543C39.2566 35.7541 39.2566 36.4071 38.8567 36.8046L37.7987 37.8643C37.3988 38.2641 36.7454 38.2641 36.3478 37.8643L35.6758 37.1949C34.9177 37.6718 34.0843 38.0167 33.211 38.2152V39.168C33.211 39.7328 32.7483 40.1953 32.1856 40.1953H30.6858C30.123 40.1953 29.6604 39.7328 29.6604 39.168V38.213C28.7767 38.013 27.9466 37.6621 27.2002 37.1949L26.5305 37.8643C26.1306 38.2641 25.4773 38.2641 25.0796 37.8643L24.0193 36.8046C23.6216 36.4071 23.6216 35.7541 24.0193 35.3543L24.6912 34.685C24.2148 33.9305 23.8696 33.1007 23.6705 32.2308H22.7195C22.1545 32.2308 21.694 31.7683 21.694 31.206V29.707C21.694 29.1446 22.1545 28.6821 22.7195 28.6821H23.6682C23.865 27.8174 24.2053 26.9918 24.675 26.2395L24.0007 25.5633C23.6008 25.1658 23.6008 24.5128 24.0007 24.1131L25.0587 23.0556C25.4586 22.6559 26.112 22.6559 26.5096 23.0556L27.177 23.7203C27.932 23.242 28.7621 22.8939 29.6325 22.6907V21.7449C29.6325 21.1801 30.0928 20.7176 30.6579 20.7176H32.1553C32.7204 20.7176 33.1831 21.1801 33.1831 21.7449V22.6768Z" stroke="white" stroke-width="1.5" stroke-miterlimit="10" stroke-linecap="round" stroke-linejoin="round"/>
<path d="M31.4367 26.2303C33.7713 26.2303 35.664 28.1221 35.664 30.4577C35.664 32.791 33.7713 34.6828 31.4367 34.6828C29.0999 34.6828 27.2071 32.791 27.2071 30.4577C27.2071 28.1221 29.0999 26.2303 31.4367 26.2303Z" stroke="white" stroke-width="1.5" stroke-miterlimit="10" stroke-linecap="round" stroke-linejoin="round"/>
<path d="M8.73081 32.2309H3.87564C2.19696 32.2309 0.820312 30.5879 0.820312 28.5823V5.45355C0.820312 3.44567 2.1945 1.80489 3.87564 1.80489H35.1317C36.8128 1.80489 38.187 3.44797 38.187 5.45355V23.4229M22.7195 32.2309H16.0623" stroke="white" stroke-width="1.5" stroke-miterlimit="10" stroke-linecap="round" stroke-linejoin="round"/>
<path d="M12.4047 32.2309H12.421" stroke="white" stroke-width="1.5" stroke-miterlimit="10" stroke-linecap="round" stroke-linejoin="round"/>
</g>
</g>
<defs>
<clipPath id="clip0_2_190">
<rect width="42" height="42" fill="white"/>
</clipPath>
</defs>
</svg>
