<svg width="20" height="19" viewBox="0 0 20 19" fill="none" xmlns="http://www.w3.org/2000/svg">
<path d="M10 11.6702C10.1978 11.6702 10.3911 11.6173 10.5556 11.5183C10.72 11.4193 10.8482 11.2785 10.9239 11.1138C10.9996 10.9491 11.0194 10.7679 10.9808 10.5931C10.9422 10.4183 10.847 10.2577 10.7071 10.1316C10.5673 10.0056 10.3891 9.91973 10.1951 9.88495C10.0011 9.85018 9.80004 9.86802 9.61732 9.93624C9.43459 10.0045 9.27841 10.12 9.16853 10.2682C9.05865 10.4164 9 10.5907 9 10.7689C9 11.0079 9.10536 11.2372 9.29289 11.4062C9.48043 11.5752 9.73478 11.6702 10 11.6702ZM15 11.6702C15.1978 11.6702 15.3911 11.6173 15.5556 11.5183C15.72 11.4193 15.8482 11.2785 15.9239 11.1138C15.9996 10.9491 16.0194 10.7679 15.9808 10.5931C15.9422 10.4183 15.847 10.2577 15.7071 10.1316C15.5673 10.0056 15.3891 9.91973 15.1951 9.88495C15.0011 9.85018 14.8 9.86802 14.6173 9.93624C14.4346 10.0045 14.2784 10.12 14.1685 10.2682C14.0586 10.4164 14 10.5907 14 10.7689C14 11.0079 14.1054 11.2372 14.2929 11.4062C14.4804 11.5752 14.7348 11.6702 15 11.6702ZM10 15.2753C10.1978 15.2753 10.3911 15.2224 10.5556 15.1234C10.72 15.0244 10.8482 14.8836 10.9239 14.7189C10.9996 14.5542 11.0194 14.373 10.9808 14.1982C10.9422 14.0234 10.847 13.8628 10.7071 13.7367C10.5673 13.6107 10.3891 13.5248 10.1951 13.4901C10.0011 13.4553 9.80004 13.4731 9.61732 13.5413C9.43459 13.6096 9.27841 13.7251 9.16853 13.8733C9.05865 14.0215 9 14.1958 9 14.374C9 14.6131 9.10536 14.8423 9.29289 15.0113C9.48043 15.1803 9.73478 15.2753 10 15.2753ZM15 15.2753C15.1978 15.2753 15.3911 15.2224 15.5556 15.1234C15.72 15.0244 15.8482 14.8836 15.9239 14.7189C15.9996 14.5542 16.0194 14.373 15.9808 14.1982C15.9422 14.0234 15.847 13.8628 15.7071 13.7367C15.5673 13.6107 15.3891 13.5248 15.1951 13.4901C15.0011 13.4553 14.8 13.4731 14.6173 13.5413C14.4346 13.6096 14.2784 13.7251 14.1685 13.8733C14.0586 14.0215 14 14.1958 14 14.374C14 14.6131 14.1054 14.8423 14.2929 15.0113C14.4804 15.1803 14.7348 15.2753 15 15.2753ZM5 11.6702C5.19778 11.6702 5.39112 11.6173 5.55557 11.5183C5.72002 11.4193 5.84819 11.2785 5.92388 11.1138C5.99957 10.9491 6.01937 10.7679 5.98079 10.5931C5.9422 10.4183 5.84696 10.2577 5.70711 10.1316C5.56725 10.0056 5.38907 9.91973 5.19509 9.88495C5.00111 9.85018 4.80004 9.86802 4.61732 9.93624C4.43459 10.0045 4.27841 10.12 4.16853 10.2682C4.05865 10.4164 4 10.5907 4 10.7689C4 11.0079 4.10536 11.2372 4.29289 11.4062C4.48043 11.5752 4.73478 11.6702 5 11.6702ZM17 2.65741H16V1.75614C16 1.5171 15.8946 1.28786 15.7071 1.11884C15.5196 0.949814 15.2652 0.854858 15 0.854858C14.7348 0.854858 14.4804 0.949814 14.2929 1.11884C14.1054 1.28786 14 1.5171 14 1.75614V2.65741H6V1.75614C6 1.5171 5.89464 1.28786 5.70711 1.11884C5.51957 0.949814 5.26522 0.854858 5 0.854858C4.73478 0.854858 4.48043 0.949814 4.29289 1.11884C4.10536 1.28786 4 1.5171 4 1.75614V2.65741H3C2.20435 2.65741 1.44129 2.94228 0.87868 3.44935C0.316071 3.95641 0 4.64415 0 5.36125V16.1766C0 16.8937 0.316071 17.5814 0.87868 18.0885C1.44129 18.5955 2.20435 18.8804 3 18.8804H17C17.7956 18.8804 18.5587 18.5955 19.1213 18.0885C19.6839 17.5814 20 16.8937 20 16.1766V5.36125C20 4.64415 19.6839 3.95641 19.1213 3.44935C18.5587 2.94228 17.7956 2.65741 17 2.65741ZM18 16.1766C18 16.4156 17.8946 16.6449 17.7071 16.8139C17.5196 16.9829 17.2652 17.0779 17 17.0779H3C2.73478 17.0779 2.48043 16.9829 2.29289 16.8139C2.10536 16.6449 2 16.4156 2 16.1766V8.06508H18V16.1766ZM18 6.26252H2V5.36125C2 5.12221 2.10536 4.89297 2.29289 4.72395C2.48043 4.55492 2.73478 4.45997 3 4.45997H17C17.2652 4.45997 17.5196 4.55492 17.7071 4.72395C17.8946 4.89297 18 5.12221 18 5.36125V6.26252ZM5 15.2753C5.19778 15.2753 5.39112 15.2224 5.55557 15.1234C5.72002 15.0244 5.84819 14.8836 5.92388 14.7189C5.99957 14.5542 6.01937 14.373 5.98079 14.1982C5.9422 14.0234 5.84696 13.8628 5.70711 13.7367C5.56725 13.6107 5.38907 13.5248 5.19509 13.4901C5.00111 13.4553 4.80004 13.4731 4.61732 13.5413C4.43459 13.6096 4.27841 13.7251 4.16853 13.8733C4.05865 14.0215 4 14.1958 4 14.374C4 14.6131 4.10536 14.8423 4.29289 15.0113C4.48043 15.1803 4.73478 15.2753 5 15.2753Z" fill="#C4C4C4"/>
</svg>
