<svg width="95" height="95" viewBox="0 0 95 95" fill="none" xmlns="http://www.w3.org/2000/svg">
<rect width="94.6591" height="94.908" rx="47.3295" fill="#F5F5F5"/>
<path opacity="0.8" d="M55.4435 51.5215H39.2163C38.6783 51.5215 38.1624 51.7357 37.782 52.1171C37.4016 52.4985 37.1879 53.0158 37.1879 53.5552C37.1879 54.0946 37.4016 54.6119 37.782 54.9933C38.1624 55.3747 38.6783 55.589 39.2163 55.589H55.4435C55.9815 55.589 56.4974 55.3747 56.8778 54.9933C57.2582 54.6119 57.4719 54.0946 57.4719 53.5552C57.4719 53.0158 57.2582 52.4985 56.8778 52.1171C56.4974 51.7357 55.9815 51.5215 55.4435 51.5215ZM55.4435 43.3865H43.2731C42.7351 43.3865 42.2192 43.6008 41.8388 43.9822C41.4584 44.3636 41.2447 44.8809 41.2447 45.4202C41.2447 45.9596 41.4584 46.4769 41.8388 46.8583C42.2192 47.2397 42.7351 47.454 43.2731 47.454H55.4435C55.9815 47.454 56.4974 47.2397 56.8778 46.8583C57.2582 46.4769 57.4719 45.9596 57.4719 45.4202C57.4719 44.8809 57.2582 44.3636 56.8778 43.9822C56.4974 43.6008 55.9815 43.3865 55.4435 43.3865ZM63.5572 31.184H57.4719V29.1503C57.4719 28.6109 57.2582 28.0936 56.8778 27.7122C56.4974 27.3308 55.9815 27.1166 55.4435 27.1166C54.9056 27.1166 54.3896 27.3308 54.0092 27.7122C53.6288 28.0936 53.4151 28.6109 53.4151 29.1503V31.184H49.3583V29.1503C49.3583 28.6109 49.1446 28.0936 48.7642 27.7122C48.3838 27.3308 47.8679 27.1166 47.3299 27.1166C46.7919 27.1166 46.276 27.3308 45.8956 27.7122C45.5152 28.0936 45.3015 28.6109 45.3015 29.1503V31.184H41.2447V29.1503C41.2447 28.6109 41.031 28.0936 40.6506 27.7122C40.2702 27.3308 39.7542 27.1166 39.2163 27.1166C38.6783 27.1166 38.1624 27.3308 37.782 27.7122C37.4016 28.0936 37.1879 28.6109 37.1879 29.1503V31.184H31.1026C30.5647 31.184 30.0487 31.3983 29.6683 31.7797C29.2879 32.1611 29.0742 32.6784 29.0742 33.2178V61.6902C29.0742 63.3083 29.7153 64.8602 30.8565 66.0044C31.9977 67.1486 33.5455 67.7914 35.1594 67.7914H59.5004C61.1143 67.7914 62.6621 67.1486 63.8033 66.0044C64.9445 64.8602 65.5856 63.3083 65.5856 61.6902V33.2178C65.5856 32.6784 65.3719 32.1611 64.9915 31.7797C64.6111 31.3983 64.0951 31.184 63.5572 31.184V31.184ZM61.5288 61.6902C61.5288 62.2296 61.3151 62.7469 60.9347 63.1283C60.5543 63.5097 60.0383 63.7239 59.5004 63.7239H35.1594C34.6215 63.7239 34.1055 63.5097 33.7251 63.1283C33.3447 62.7469 33.131 62.2296 33.131 61.6902V35.2515H37.1879V37.2853C37.1879 37.8247 37.4016 38.3419 37.782 38.7233C38.1624 39.1047 38.6783 39.319 39.2163 39.319C39.7542 39.319 40.2702 39.1047 40.6506 38.7233C41.031 38.3419 41.2447 37.8247 41.2447 37.2853V35.2515H45.3015V37.2853C45.3015 37.8247 45.5152 38.3419 45.8956 38.7233C46.276 39.1047 46.7919 39.319 47.3299 39.319C47.8679 39.319 48.3838 39.1047 48.7642 38.7233C49.1446 38.3419 49.3583 37.8247 49.3583 37.2853V35.2515H53.4151V37.2853C53.4151 37.8247 53.6288 38.3419 54.0092 38.7233C54.3896 39.1047 54.9056 39.319 55.4435 39.319C55.9815 39.319 56.4974 39.1047 56.8778 38.7233C57.2582 38.3419 57.4719 37.8247 57.4719 37.2853V35.2515H61.5288V61.6902Z" fill="#1670F8"/>
</svg>
