<svg width="58" height="58" viewBox="0 0 58 58" fill="none" xmlns="http://www.w3.org/2000/svg">
<rect width="58" height="58" rx="10" fill="#FC5B11"/>
<path fill-rule="evenodd" clip-rule="evenodd" d="M35.7724 36.9592H13.6444C13.5512 36.9592 13.4617 36.9222 13.3958 36.8563C13.3299 36.7903 13.2928 36.7009 13.2928 36.6077C13.2928 36.5144 13.3299 36.425 13.3958 36.3591C13.4617 36.2932 13.5512 36.2561 13.6444 36.2561H35.7723C35.8184 36.2561 35.8642 36.2652 35.9068 36.2829C35.9495 36.3005 35.9882 36.3264 36.0209 36.3591C36.0535 36.3917 36.0794 36.4304 36.0971 36.4731C36.1148 36.5157 36.1239 36.5615 36.1239 36.6076C36.1239 36.6538 36.1148 36.6995 36.0971 36.7422C36.0795 36.7848 36.0536 36.8236 36.0209 36.8562C35.9883 36.8889 35.9495 36.9148 35.9069 36.9325C35.8642 36.9501 35.8185 36.9592 35.7724 36.9592ZM44.0208 24.2984V45.392C44.0208 45.4377 44.0299 45.4808 44.0455 45.5212L45.43 49.0318C45.4826 49.1664 45.613 49.254 45.757 49.254C45.901 49.254 46.031 49.1664 46.0837 49.0318L47.4673 45.5212C47.4833 45.4808 47.4928 45.4377 47.4928 45.392V24.6497H48.2399V31.4175C48.2399 31.5107 48.2769 31.6001 48.3429 31.6661C48.4088 31.732 48.4982 31.769 48.5915 31.769C48.6847 31.769 48.7741 31.732 48.8401 31.6661C48.906 31.6001 48.943 31.5107 48.943 31.4175V24.2983C48.943 24.2051 48.9059 24.1156 48.84 24.0496C48.774 23.9837 48.6846 23.9466 48.5913 23.9466H47.2615V21.0025C47.2616 20.9093 47.2246 20.8199 47.1587 20.7539C47.0928 20.6879 47.0034 20.6509 46.9102 20.6508H44.603C44.5097 20.6508 44.4203 20.6879 44.3543 20.7539C44.2884 20.8198 44.2513 20.9092 44.2513 21.0025V23.9697C44.1838 23.9943 44.1255 24.039 44.0843 24.0978C44.0431 24.1566 44.0209 24.2266 44.0208 24.2984ZM35.7724 32.6847H13.6444C13.5978 32.6854 13.5515 32.6769 13.5082 32.6595C13.4649 32.6422 13.4255 32.6164 13.3922 32.5837C13.359 32.551 13.3326 32.512 13.3146 32.469C13.2966 32.426 13.2873 32.3798 13.2873 32.3332C13.2873 32.2865 13.2966 32.2404 13.3146 32.1973C13.3326 32.1543 13.359 32.1153 13.3922 32.0826C13.4255 32.0499 13.4649 32.0241 13.5082 32.0068C13.5515 31.9895 13.5978 31.9809 13.6444 31.9816H35.7723C35.8656 31.9817 35.955 32.0187 36.021 32.0847C36.0869 32.1506 36.124 32.2401 36.124 32.3334C36.124 32.3795 36.1149 32.4252 36.0972 32.4679C36.0795 32.5105 36.0536 32.5493 36.021 32.5819C35.9883 32.6145 35.9496 32.6404 35.9069 32.658C35.8642 32.6757 35.8185 32.6847 35.7724 32.6847ZM35.7724 28.4109H13.6444C13.5978 28.4116 13.5515 28.4031 13.5082 28.3858C13.4649 28.3684 13.4255 28.3427 13.3922 28.3099C13.359 28.2772 13.3326 28.2382 13.3146 28.1952C13.2966 28.1522 13.2873 28.106 13.2873 28.0594C13.2873 28.0128 13.2966 27.9666 13.3146 27.9236C13.3326 27.8806 13.359 27.8416 13.3922 27.8088C13.4255 27.7761 13.4649 27.7504 13.5082 27.733C13.5515 27.7157 13.5978 27.7071 13.6444 27.7079H35.7723C35.8184 27.7079 35.8641 27.717 35.9068 27.7346C35.9494 27.7523 35.9882 27.7782 36.0208 27.8108C36.0535 27.8434 36.0794 27.8822 36.0971 27.9248C36.1147 27.9675 36.1238 28.0132 36.1238 28.0593C36.1238 28.1055 36.1148 28.1512 36.0971 28.1939C36.0794 28.2365 36.0535 28.2753 36.0209 28.3079C35.9883 28.3406 35.9495 28.3665 35.9069 28.3841C35.8642 28.4018 35.8185 28.4109 35.7724 28.4109ZM35.7724 24.1367H13.6444C13.5978 24.1374 13.5515 24.1289 13.5082 24.1116C13.4649 24.0942 13.4255 24.0684 13.3922 24.0357C13.359 24.003 13.3326 23.964 13.3146 23.921C13.2966 23.878 13.2873 23.8318 13.2873 23.7852C13.2873 23.7385 13.2966 23.6924 13.3146 23.6494C13.3326 23.6063 13.359 23.5673 13.3922 23.5346C13.4255 23.5019 13.4649 23.4761 13.5082 23.4588C13.5515 23.4415 13.5978 23.4329 13.6444 23.4337H35.7723C35.8184 23.4337 35.8641 23.4427 35.9068 23.4604C35.9494 23.4781 35.9882 23.504 36.0208 23.5366C36.0535 23.5692 36.0794 23.608 36.0971 23.6506C36.1147 23.6933 36.1238 23.739 36.1238 23.7851C36.1238 23.8313 36.1148 23.877 36.0971 23.9197C36.0794 23.9623 36.0535 24.0011 36.0209 24.0337C35.9883 24.0664 35.9495 24.0923 35.9069 24.1099C35.8642 24.1276 35.8185 24.1367 35.7724 24.1367ZM35.7724 19.8625H13.6444C13.5982 19.8625 13.5524 19.8535 13.5097 19.8358C13.467 19.8182 13.4282 19.7923 13.3956 19.7596C13.3629 19.7269 13.337 19.6881 13.3193 19.6454C13.3017 19.6027 13.2926 19.557 13.2927 19.5108C13.2927 19.3174 13.4498 19.1594 13.6444 19.1594H35.7723C35.8184 19.1594 35.8642 19.1684 35.9068 19.1861C35.9495 19.2038 35.9882 19.2297 36.0209 19.2623C36.0535 19.2949 36.0794 19.3337 36.0971 19.3763C36.1148 19.419 36.1239 19.4647 36.1239 19.5109C36.1239 19.5571 36.1148 19.6028 36.0971 19.6454C36.0795 19.6881 36.0536 19.7268 36.0209 19.7595C35.9883 19.7921 35.9495 19.818 35.9069 19.8357C35.8642 19.8534 35.8185 19.8625 35.7724 19.8625ZM19.1759 15.5892C18.9817 15.5892 18.8246 15.432 18.8246 15.2379C18.8245 15.1446 18.8615 15.0552 18.9274 14.9892C18.9933 14.9233 19.0827 14.8862 19.1759 14.8861H30.2404C30.2871 14.8854 30.3334 14.8939 30.3767 14.9113C30.42 14.9286 30.4594 14.9544 30.4926 14.9871C30.5259 15.0198 30.5522 15.0588 30.5703 15.1018C30.5883 15.1448 30.5976 15.191 30.5976 15.2376C30.5976 15.2843 30.5883 15.3304 30.5703 15.3735C30.5522 15.4165 30.5259 15.4555 30.4926 15.4882C30.4594 15.5209 30.42 15.5467 30.3767 15.564C30.3334 15.5813 30.2871 15.5899 30.2404 15.5892H19.1759ZM19.3125 40.5299C19.5058 40.5299 19.6638 40.6875 19.6638 40.8816C19.6638 41.075 19.5058 41.233 19.3125 41.233H13.6444C13.5512 41.233 13.4617 41.196 13.3958 41.13C13.3299 41.0641 13.2928 40.9747 13.2928 40.8814C13.2928 40.7882 13.3299 40.6988 13.3958 40.6329C13.4617 40.5669 13.5512 40.5299 13.6444 40.5299H19.3125ZM35.7724 41.233H30.1055C30.0123 41.233 29.9229 41.196 29.8569 41.13C29.791 41.0641 29.754 40.9747 29.754 40.8814C29.754 40.7882 29.791 40.6988 29.8569 40.6329C29.9229 40.5669 30.0123 40.5299 30.1055 40.5299H35.7724C35.8656 40.5299 35.9551 40.567 36.0211 40.6329C36.087 40.6989 36.1241 40.7883 36.1241 40.8816C36.1239 40.9748 36.0868 41.0642 36.0209 41.13C35.9549 41.1959 35.8656 41.2329 35.7724 41.233ZM40.4164 48.9026V9.35174C40.4165 9.25851 40.3795 9.16909 40.3136 9.10313C40.2477 9.03716 40.1583 9.00007 40.0651 9H9.35174C9.25846 9.00002 9.16901 9.03709 9.10305 9.10305C9.03709 9.16901 9.00002 9.25846 9 9.35174V48.9026C9.00007 48.9958 9.03716 49.0852 9.10313 49.1511C9.16909 49.217 9.25851 49.254 9.35174 49.2539H40.065C40.1112 49.2539 40.1569 49.2449 40.1995 49.2272C40.2422 49.2096 40.2809 49.1837 40.3135 49.1511C40.3462 49.1185 40.3721 49.0797 40.3897 49.0371C40.4074 48.9945 40.4164 48.9488 40.4164 48.9026Z" fill="white"/>
</svg>
