<svg width="95" height="95" viewBox="0 0 95 95" fill="none" xmlns="http://www.w3.org/2000/svg">
<rect width="94.6591" height="94.908" rx="47.3295" fill="#F5F5F5"/>
<path opacity="0.8" d="M65.931 27.2386C64.4771 26.9875 63.0048 26.8582 61.5294 26.8522C56.4956 26.848 51.5668 28.2953 47.3305 31.0214C43.0833 28.3311 38.1553 26.9194 33.1317 26.9539C31.6563 26.9599 30.184 27.0892 28.73 27.3403C28.2538 27.4226 27.8225 27.6727 27.5138 28.0456C27.2052 28.4184 27.0394 28.8895 27.0464 29.374V53.7789C27.0421 54.0777 27.1035 54.3739 27.2263 54.6462C27.349 54.9185 27.5302 55.1604 27.7567 55.3546C27.9833 55.5487 28.2498 55.6905 28.5372 55.7696C28.8247 55.8488 29.126 55.8635 29.4197 55.8127C32.3264 55.3081 35.3045 55.3918 38.1785 56.0589C41.0525 56.726 43.7642 57.9631 46.1541 59.6971L46.3975 59.8395H46.6206C46.8455 59.9335 47.0868 59.9818 47.3305 59.9818C47.5742 59.9818 47.8155 59.9335 48.0405 59.8395H48.2636L48.507 59.6971C50.8802 57.9243 53.5841 56.6472 56.4587 55.9415C59.3332 55.2358 62.3198 55.1159 65.2414 55.589C65.5351 55.6398 65.8364 55.6251 66.1238 55.5459C66.4113 55.4667 66.6777 55.325 66.9043 55.1308C67.1309 54.9367 67.312 54.6948 67.4348 54.4225C67.5576 54.1502 67.619 53.854 67.6146 53.5552V29.1503C67.5935 28.6869 67.415 28.2447 67.1088 27.897C66.8026 27.5493 66.387 27.317 65.931 27.2386ZM45.3021 54.267C41.5493 52.2876 37.3721 51.2545 33.1317 51.2571C32.4623 51.2571 31.7929 51.2571 31.1033 51.2571V30.9197C31.7788 30.8806 32.4561 30.8806 33.1317 30.9197C37.459 30.9149 41.692 32.1881 45.3021 34.5804V54.267ZM63.5578 51.3384C62.8681 51.3384 62.1988 51.3384 61.5294 51.3384C57.289 51.3358 53.1117 52.3689 49.3589 54.3484V34.5804C52.9691 32.1881 57.202 30.9149 61.5294 30.9197C62.205 30.8806 62.8822 30.8806 63.5578 30.9197V51.3384ZM65.931 59.7785C64.4771 59.5274 63.0048 59.3981 61.5294 59.3921C56.4956 59.3879 51.5668 60.8351 47.3305 63.5612C43.0942 60.8351 38.1654 59.3879 33.1317 59.3921C31.6563 59.3981 30.184 59.5274 28.73 59.7785C28.466 59.8205 28.2128 59.9144 27.9851 60.0549C27.7574 60.1953 27.5596 60.3795 27.4032 60.5969C27.2467 60.8142 27.1347 61.0604 27.0734 61.3214C27.0122 61.5823 27.003 61.8528 27.0464 62.1173C27.1495 62.6454 27.4572 63.111 27.902 63.4122C28.3468 63.7133 28.8926 63.8254 29.4197 63.7239C32.3264 63.2193 35.3045 63.303 38.1785 63.9702C41.0525 64.6373 43.7642 65.8743 46.1541 67.6084C46.4976 67.8536 46.9088 67.9854 47.3305 67.9854C47.7522 67.9854 48.1635 67.8536 48.507 67.6084C50.8968 65.8743 53.6086 64.6373 56.4826 63.9702C59.3566 63.303 62.3346 63.2193 65.2414 63.7239C65.7685 63.8254 66.3142 63.7133 66.7591 63.4122C67.2039 63.111 67.5115 62.6454 67.6146 62.1173C67.658 61.8528 67.6489 61.5823 67.5876 61.3214C67.5264 61.0604 67.4143 60.8142 67.2579 60.5969C67.1014 60.3795 66.9037 60.1953 66.6759 60.0549C66.4482 59.9144 66.1951 59.8205 65.931 59.7785V59.7785Z" fill="#1670F8"/>
</svg>
