<svg width="42" height="42" viewBox="0 0 42 42" fill="none" xmlns="http://www.w3.org/2000/svg">
<g clip-path="url(#clip0_2_235)">
<path d="M24.6593 5.75019C24.6593 7.58647 25.5256 9.22326 26.8698 10.2767C23.8316 10.4171 21.403 12.9322 21.403 16.0044V18.5253C21.403 19.4037 22.1176 20.1182 22.9959 20.1182H28.9739C29.3138 20.1182 29.5891 19.8427 29.5891 19.5029C29.5891 19.1631 29.3138 18.8877 28.9739 18.8877H26.0965V15.4015C26.0965 15.0617 25.8212 14.7862 25.4813 14.7862C25.1414 14.7862 24.8661 15.0617 24.8661 15.4015V18.8877H22.996C22.8999 18.8876 22.8078 18.8494 22.7398 18.7814C22.6719 18.7135 22.6336 18.6214 22.6336 18.5253V16.0044C22.6336 13.5209 24.6541 11.5004 27.1375 11.5004H33.6814C36.1649 11.5004 38.1854 13.5209 38.1854 16.0044V18.5253C38.1853 18.6214 38.1471 18.7135 38.0791 18.7814C38.0112 18.8494 37.919 18.8876 37.8229 18.8877H35.9529V15.4015C35.9529 15.0617 35.6775 14.7862 35.3377 14.7862C34.9978 14.7862 34.7224 15.0617 34.7224 15.4015V18.8877H31.8451C31.5052 18.8877 31.2299 19.1631 31.2299 19.5029C31.2299 19.8427 31.5052 20.1182 31.8451 20.1182H37.823C38.7014 20.1182 39.416 19.4036 39.416 18.5253V16.0044C39.416 12.9322 36.9874 10.4171 33.9492 10.2767C35.2934 9.22326 36.1596 7.58647 36.1596 5.75019C36.1597 2.57949 33.5801 0 30.4095 0C27.2389 0 24.6593 2.57949 24.6593 5.75019ZM34.9292 5.75019C34.9292 8.24232 32.9017 10.2699 30.4095 10.2699C27.9173 10.2699 25.8898 8.2424 25.8898 5.75019C25.8898 3.25798 27.9173 1.23048 30.4095 1.23048C32.9017 1.23048 34.9292 3.25798 34.9292 5.75019ZM26.9466 32.6223H25.4814C25.1415 32.6223 24.8661 32.8977 24.8661 33.2375C24.8661 33.5773 25.1415 33.8528 25.4814 33.8528H26.9466C29.1953 33.8528 31.0248 32.0233 31.0248 29.7746V27.7824H32.331C32.8598 27.7824 33.3443 27.4933 33.5953 27.0279C33.8463 26.5626 33.8221 25.999 33.5317 25.557L31.6102 22.6323C31.3437 22.2266 30.8948 21.9845 30.4095 21.9845C29.9242 21.9845 29.4754 22.2266 29.2088 22.6323L27.2873 25.557C26.997 25.999 26.9726 26.5626 27.2237 27.0279C27.4748 27.4933 27.9592 27.7824 28.488 27.7824H29.7943V29.7746C29.7943 31.3448 28.5168 32.6223 26.9466 32.6223ZM28.488 26.5519C28.381 26.5519 28.3285 26.4841 28.3066 26.4437C28.2848 26.4034 28.257 26.3221 28.3158 26.2327L30.2373 23.308C30.2903 23.2271 30.368 23.215 30.4095 23.215C30.451 23.215 30.5286 23.2271 30.5818 23.308L32.5033 26.2327C32.562 26.3221 32.5342 26.4034 32.5124 26.4437C32.4906 26.4841 32.4381 26.5519 32.331 26.5519H28.488ZM24.1992 40.1973V37.1353C24.1992 33.3674 21.1338 30.302 17.3658 30.302H17.3025C19.0787 29.0626 20.244 27.0054 20.244 24.68C20.244 20.9016 17.17 17.8277 13.3916 17.8277C9.61321 17.8277 6.53923 20.9016 6.53923 24.68C6.53923 27.0054 7.7045 29.0626 9.48073 30.302H9.41732C5.64935 30.302 2.58398 33.3675 2.58398 37.1353V40.1973C2.58398 41.1913 3.39265 42.0001 4.3868 42.0001H11.956C12.2959 42.0001 12.5713 41.7246 12.5713 41.3848C12.5713 41.0451 12.2959 40.7696 11.956 40.7696H8.02089V36.403C8.02089 36.0633 7.74551 35.7878 7.40566 35.7878C7.0658 35.7878 6.79042 36.0633 6.79042 36.403V40.7696H4.3868C4.23506 40.7694 4.08958 40.7091 3.98229 40.6018C3.87499 40.4945 3.81464 40.349 3.81446 40.1973V37.1353C3.81446 34.0459 6.32792 31.5325 9.41732 31.5325H17.3659C20.4554 31.5325 22.9688 34.0459 22.9688 37.1353V40.1973C22.9687 40.349 22.9083 40.4945 22.801 40.6018C22.6937 40.7091 22.5482 40.7694 22.3965 40.7696H19.9928V36.403C19.9928 36.0633 19.7174 35.7878 19.3776 35.7878C19.0377 35.7878 18.7623 36.0633 18.7623 36.403V40.7696H14.8272C14.4873 40.7696 14.2119 41.0451 14.2119 41.3848C14.2119 41.7246 14.4873 42.0001 14.8272 42.0001H22.3964C23.3906 42 24.1992 41.1912 24.1992 40.1973ZM7.76971 24.68C7.76971 21.58 10.2917 19.0581 13.3916 19.0581C16.4915 19.0581 19.0135 21.58 19.0135 24.68C19.0135 27.7799 16.4915 30.3018 13.3916 30.3018C10.2917 30.3018 7.76971 27.7799 7.76971 24.68Z" fill="white"/>
</g>
<defs>
<clipPath id="clip0_2_235">
<rect width="42" height="42" fill="white"/>
</clipPath>
</defs>
</svg>
