<svg width="42" height="42" viewBox="0 0 42 42" fill="none" xmlns="http://www.w3.org/2000/svg">
<g clip-path="url(#clip0_2_207)">
<path d="M26.812 25.5994C32.5621 25.5994 37.2234 20.9381 37.2234 15.188C37.2234 9.43794 32.5621 4.7766 26.812 4.7766C21.0619 4.7766 16.4006 9.43794 16.4006 15.188C16.4006 20.9381 21.0619 25.5994 26.812 25.5994Z" stroke="white" stroke-width="1.5" stroke-miterlimit="10" stroke-linecap="round" stroke-linejoin="round"/>
<path d="M14.0282 21.8146L12.0774 23.7654C11.4545 24.3882 11.4545 25.3981 12.0774 26.021L15.979 29.9226C16.6019 30.5455 17.6118 30.5455 18.2346 29.9226L20.1854 27.9718M16.0676 30.1411L5.58272 40.6261C4.84452 41.3643 3.6476 41.3643 2.9094 40.6261L1.37402 39.0907C0.635824 38.3525 0.635824 37.1556 1.37402 36.4174L11.8589 25.9325" stroke="white" stroke-width="1.5" stroke-miterlimit="10" stroke-linecap="round" stroke-linejoin="round"/>
<path d="M26.812 29.5557C34.7471 29.5557 41.1797 23.1231 41.1797 15.188C41.1797 7.25295 34.7471 0.820312 26.812 0.820312C18.8769 0.820312 12.4443 7.25295 12.4443 15.188C12.4443 23.1231 18.8769 29.5557 26.812 29.5557Z" stroke="white" stroke-width="1.5" stroke-miterlimit="10" stroke-linecap="round" stroke-linejoin="round"/>
<path d="M24.1721 12.2656C24.1721 12.1406 24.1808 12.0177 24.1976 11.8973C24.3791 10.5962 25.5091 9.59889 26.8664 9.6262C28.2395 9.65385 29.3769 10.7536 29.4481 12.125C29.527 13.6449 28.3164 14.9053 26.8119 14.9053V17.6658" stroke="white" stroke-width="1.5" stroke-miterlimit="10" stroke-linecap="round" stroke-linejoin="round"/>
</g>
<defs>
<clipPath id="clip0_2_207">
<rect width="42" height="42" fill="white"/>
</clipPath>
</defs>
</svg>
