<svg width="95" height="95" viewBox="0 0 95 95" fill="none" xmlns="http://www.w3.org/2000/svg">
<rect width="94.6591" height="94.908" rx="47.3295" fill="#F5F5F5"/>
<path opacity="0.8" d="M65.5852 59.6566H61.5284V53.5553C61.5284 53.016 61.3147 52.4987 60.9343 52.1173C60.5539 51.7359 60.0379 51.5216 59.5 51.5216H49.3579V46.0102L51.65 47.2101C51.9843 47.3854 52.3607 47.4638 52.7369 47.4364C53.1132 47.4091 53.4744 47.2771 53.7799 47.0552C54.0855 46.8334 54.3232 46.5305 54.4666 46.1806C54.6099 45.8308 54.653 45.4478 54.5912 45.0746L53.7798 40.2547L57.2687 36.8176C57.533 36.5589 57.7217 36.2328 57.8147 35.8744C57.9076 35.516 57.9012 35.1389 57.7961 34.7839C57.6785 34.4225 57.4623 34.1013 57.1718 33.8568C56.8814 33.6124 56.5285 33.4545 56.1531 33.401L51.3863 32.6485L49.1551 28.2556C48.989 27.9117 48.7296 27.6218 48.4068 27.4189C48.0839 27.216 47.7106 27.1083 47.3295 27.1083C46.9485 27.1083 46.5751 27.216 46.2522 27.4189C45.9294 27.6218 45.67 27.9117 45.5039 28.2556L43.2727 32.6485L38.4248 33.3603C38.0494 33.4138 37.6964 33.5717 37.406 33.8162C37.1156 34.0606 36.8993 34.3818 36.7818 34.7432C36.6767 35.0982 36.6703 35.4753 36.7632 35.8337C36.8561 36.1921 37.0449 36.5182 37.3092 36.777L40.8792 40.2547L40.0678 45.0746C40.006 45.4478 40.0491 45.8308 40.1924 46.1806C40.3358 46.5305 40.5735 46.8334 40.8791 47.0552C41.1846 47.2771 41.5458 47.4091 41.9221 47.4364C42.2983 47.4638 42.6747 47.3854 43.009 47.2101L45.3011 46.0102V51.5216H35.159C34.6211 51.5216 34.1051 51.7359 33.7247 52.1173C33.3443 52.4987 33.1306 53.016 33.1306 53.5553V59.6566H29.0738C28.5359 59.6566 28.0199 59.8708 27.6395 60.2522C27.2591 60.6336 27.0454 61.1509 27.0454 61.6903V65.7578C27.0454 66.2972 27.2591 66.8145 27.6395 67.1959C28.0199 67.5773 28.5359 67.7915 29.0738 67.7915C29.6118 67.7915 30.1277 67.5773 30.5081 67.1959C30.8885 66.8145 31.1022 66.2972 31.1022 65.7578V63.7241H39.2159V65.7578C39.2159 66.2972 39.4296 66.8145 39.81 67.1959C40.1904 67.5773 40.7063 67.7915 41.2443 67.7915C41.7822 67.7915 42.2982 67.5773 42.6786 67.1959C43.059 66.8145 43.2727 66.2972 43.2727 65.7578V61.6903C43.2727 61.1509 43.059 60.6336 42.6786 60.2522C42.2982 59.8708 41.7822 59.6566 41.2443 59.6566H37.1875V55.5891H57.4715V59.6566H53.4147C52.8768 59.6566 52.3608 59.8708 51.9804 60.2522C51.6 60.6336 51.3863 61.1509 51.3863 61.6903V65.7578C51.3863 66.2972 51.6 66.8145 51.9804 67.1959C52.3608 67.5773 52.8768 67.7915 53.4147 67.7915C53.9527 67.7915 54.4686 67.5773 54.849 67.1959C55.2294 66.8145 55.4431 66.2972 55.4431 65.7578V63.7241H63.5568V65.7578C63.5568 66.2972 63.7705 66.8145 64.1509 67.1959C64.5313 67.5773 65.0472 67.7915 65.5852 67.7915C66.1232 67.7915 66.6391 67.5773 67.0195 67.1959C67.3999 66.8145 67.6136 66.2972 67.6136 65.7578V61.6903C67.6136 61.1509 67.3999 60.6336 67.0195 60.2522C66.6391 59.8708 66.1232 59.6566 65.5852 59.6566ZM47.3295 40.6004C46.9966 40.6021 46.6691 40.6859 46.3761 40.8445L44.7534 41.6986L45.0577 39.8683C45.1109 39.5445 45.0852 39.2126 44.9828 38.901C44.8803 38.5893 44.7042 38.3072 44.4694 38.0786L43.151 36.777L44.9765 36.5126C45.3031 36.4688 45.6142 36.346 45.8828 36.1546C46.1514 35.9633 46.3695 35.7092 46.5181 35.4144L47.3295 33.7467L48.1409 35.4144C48.2895 35.7092 48.5076 35.9633 48.7762 36.1546C49.0448 36.346 49.3559 36.4688 49.6825 36.5126L51.508 36.777L50.1896 38.0786C49.9548 38.3072 49.7787 38.5893 49.6762 38.901C49.5738 39.2126 49.5481 39.5445 49.6013 39.8683L49.9056 41.6986L48.2829 40.8445C47.9899 40.6859 47.6624 40.6021 47.3295 40.6004Z" fill="#1670F8"/>
</svg>
