<svg width="58" height="58" viewBox="0 0 58 58" fill="none" xmlns="http://www.w3.org/2000/svg">
<rect width="58" height="58" rx="10" fill="#525BF1"/>
<path fill-rule="evenodd" clip-rule="evenodd" d="M45.6667 16.7778C44.7826 16.7778 43.9348 17.129 43.3096 17.7541C42.6845 18.3792 42.3333 19.2271 42.3333 20.1111V22.3333H49V20.1111C49 19.2271 48.6488 18.3792 48.0237 17.7541C47.3986 17.129 46.5507 16.7778 45.6667 16.7778ZM49 24.5556H42.3333V42.8889L45.6667 47.8889L49 42.8889V24.5556ZM9 12.3333V45.6667C9 46.5507 9.35119 47.3986 9.97631 48.0237C10.6014 48.6488 11.4493 49 12.3333 49H36.7778C37.6618 49 38.5097 48.6488 39.1348 48.0237C39.7599 47.3986 40.1111 46.5507 40.1111 45.6667V12.3333C40.1111 11.4493 39.7599 10.6014 39.1348 9.97631C38.5097 9.35119 37.6618 9 36.7778 9H12.3333C11.4493 9 10.6014 9.35119 9.97631 9.97631C9.35119 10.6014 9 11.4493 9 12.3333ZM24.5556 19C24.5556 18.7053 24.6726 18.4227 24.881 18.2143C25.0894 18.006 25.372 17.8889 25.6667 17.8889H34.5556C34.8502 17.8889 35.1329 18.006 35.3412 18.2143C35.5496 18.4227 35.6667 18.7053 35.6667 19C35.6667 19.2947 35.5496 19.5773 35.3412 19.7857C35.1329 19.994 34.8502 20.1111 34.5556 20.1111H25.6667C25.372 20.1111 25.0894 19.994 24.881 19.7857C24.6726 19.5773 24.5556 19.2947 24.5556 19ZM25.6667 22.3333C25.372 22.3333 25.0894 22.4504 24.881 22.6588C24.6726 22.8671 24.5556 23.1498 24.5556 23.4444C24.5556 23.7391 24.6726 24.0217 24.881 24.2301C25.0894 24.4385 25.372 24.5556 25.6667 24.5556H34.5556C34.8502 24.5556 35.1329 24.4385 35.3412 24.2301C35.5496 24.0217 35.6667 23.7391 35.6667 23.4444C35.6667 23.1498 35.5496 22.8671 35.3412 22.6588C35.1329 22.4504 34.8502 22.3333 34.5556 22.3333H25.6667ZM24.5556 33.4444C24.5556 33.1498 24.6726 32.8671 24.881 32.6588C25.0894 32.4504 25.372 32.3333 25.6667 32.3333H34.5556C34.8502 32.3333 35.1329 32.4504 35.3412 32.6588C35.5496 32.8671 35.6667 33.1498 35.6667 33.4444C35.6667 33.7391 35.5496 34.0217 35.3412 34.2301C35.1329 34.4385 34.8502 34.5556 34.5556 34.5556H25.6667C25.372 34.5556 25.0894 34.4385 24.881 34.2301C24.6726 34.0217 24.5556 33.7391 24.5556 33.4444ZM25.6667 36.7778C25.372 36.7778 25.0894 36.8948 24.881 37.1032C24.6726 37.3116 24.5556 37.5942 24.5556 37.8889C24.5556 38.1836 24.6726 38.4662 24.881 38.6746C25.0894 38.8829 25.372 39 25.6667 39H34.5556C34.8502 39 35.1329 38.8829 35.3412 38.6746C35.5496 38.4662 35.6667 38.1836 35.6667 37.8889C35.6667 37.5942 35.5496 37.3116 35.3412 37.1032C35.1329 36.8948 34.8502 36.7778 34.5556 36.7778H25.6667ZM15.6667 33.4444V36.7778H19V33.4444H15.6667ZM14.5556 31.2222H20.1111C20.4058 31.2222 20.6884 31.3393 20.8968 31.5477C21.1052 31.756 21.2222 32.0386 21.2222 32.3333V37.8889C21.2222 38.1836 21.1052 38.4662 20.8968 38.6746C20.6884 38.8829 20.4058 39 20.1111 39H14.5556C14.2609 39 13.9783 38.8829 13.7699 38.6746C13.5615 38.4662 13.4444 38.1836 13.4444 37.8889V32.3333C13.4444 32.0386 13.5615 31.756 13.7699 31.5477C13.9783 31.3393 14.2609 31.2222 14.5556 31.2222ZM22.0078 19.7856C22.2102 19.576 22.3222 19.2953 22.3196 19.004C22.3171 18.7127 22.2003 18.434 21.9942 18.228C21.7882 18.022 21.5096 17.9051 21.2182 17.9026C20.9269 17.9001 20.6462 18.012 20.4367 18.2144L16.7778 21.8733L15.3411 20.4367C15.1316 20.2343 14.8509 20.1223 14.5596 20.1248C14.2682 20.1273 13.9895 20.2442 13.7835 20.4502C13.5775 20.6562 13.4607 20.9349 13.4581 21.2262C13.4556 21.5176 13.5676 21.7982 13.77 22.0078L16.7778 25.0156L22.0078 19.7856Z" fill="white"/>
</svg>
