<svg width="58" height="58" viewBox="0 0 58 58" fill="none" xmlns="http://www.w3.org/2000/svg">
<rect width="58" height="58" rx="10" fill="#525BF1"/>
<path d="M28.75 6H30.25V9H28.75V6ZM20.7707 9.38597L22.1567 8.8125L22.7302 10.1986L21.3445 10.7721L20.7707 9.38597ZM9.8125 21.1564L10.386 19.7703L11.7721 20.344L11.1986 21.7298L9.8125 21.1564ZM9.81213 35.844L11.1978 35.2698L11.7721 36.6555L10.3864 37.2297L9.81213 35.844ZM47.2286 36.6555L47.8022 35.2698L49.1882 35.8433L48.6148 37.2293L47.2286 36.6555ZM47.2286 20.3441L48.6144 19.7699L49.1886 21.1556L47.8028 21.7298L47.2286 20.3441ZM36.2697 10.1975L36.844 8.81184L38.2297 9.38597L37.6555 10.7717L36.2697 10.1975ZM13.0597 13.1203L14.1202 12.0597L16.2418 14.1812L15.1808 15.2417L13.0597 13.1203ZM7 27.75H10V29.25H7V27.75ZM13.0597 43.8797L15.1808 41.7583L16.2417 42.8188L14.1202 44.9404L13.0597 43.8797ZM42.7583 42.8188L43.8188 41.7583L45.9404 43.8798L44.8794 44.9403L42.7583 42.8188ZM49 27.75H52V29.25H49V27.75ZM42.7583 14.1812L44.8794 12.0596L45.9399 13.1202L43.8188 15.2418L42.7583 14.1812Z" fill="white"/>
<path d="M41.8248 15.3809C40.0351 13.6872 37.9142 12.3823 35.5954 11.5484C33.2767 10.7146 30.8104 10.3699 28.3519 10.5359C20.481 11.0391 13.854 16.6073 12.0029 24.2739C10.1513 31.9405 13.5064 39.9192 20.2803 43.9589C21.4098 44.6446 22.3073 45.6538 22.8565 46.8556C22.9481 47.054 23.0305 47.2565 23.1034 47.4624C23.1228 47.5155 23.14 47.5701 23.1573 47.6242C23.2166 47.8009 23.2681 47.98 23.3118 48.1611C23.3396 48.2797 23.3605 48.3999 23.3821 48.5196C23.4041 48.6397 23.4318 48.7786 23.4483 48.9089C23.4813 49.1737 23.4985 49.4403 23.5 49.7069V50.25C23.5 50.4489 23.579 50.6397 23.7197 50.7803C23.8603 50.921 24.0511 51 24.25 51H34.75C34.9489 51 35.1397 50.921 35.2803 50.7803C35.421 50.6397 35.5 50.4489 35.5 50.25V49.7062C35.5019 49.4392 35.519 49.1726 35.5524 48.9075C35.5682 48.7822 35.5938 48.6584 35.6162 48.5325C35.6388 48.4065 35.6612 48.2797 35.6912 48.1575C35.734 47.982 35.7841 47.8084 35.8413 47.6371C35.8608 47.5771 35.8802 47.517 35.9013 47.4576C35.9761 47.2566 36.0551 47.0567 36.1471 46.8577C36.7037 45.6492 37.6088 44.6344 38.7461 43.9438C41.1348 42.5133 43.159 40.5481 44.6597 38.2028C46.1603 35.8576 47.0965 33.1961 47.3945 30.4278C47.6925 27.6596 47.3443 24.8599 46.3772 22.2489C45.4101 19.638 43.8505 17.287 41.8211 15.3808L41.8248 15.3809ZM25.75 20.25H27.25V21.75H25.75V20.25ZM22.75 20.25H24.25V21.75H22.75V20.25ZM22 24.7207L25.7093 24.5709C26.2746 24.5465 26.8385 24.6436 27.363 24.8556C27.8875 25.0676 28.3605 25.3896 28.75 25.8V33.69L27.7876 32.9205C27.2117 32.4595 26.5451 32.125 25.8312 31.939C25.1174 31.7529 24.3723 31.7193 23.6447 31.8405L22 32.115V24.7207ZM34.375 47.2881C34.283 47.5892 34.2079 47.8952 34.1502 48.2047C34.138 48.2685 34.1193 48.3314 34.108 48.3959C34.0471 48.7611 34.0111 49.1299 34 49.5H25C24.9894 49.1293 24.9538 48.7597 24.8934 48.3937C24.8839 48.3336 24.8656 48.2753 24.8546 48.2153C24.7974 47.9003 24.7224 47.5891 24.6294 47.283C24.6294 47.2716 24.625 47.2606 24.6213 47.25H34.3842C34.3794 47.2628 34.3787 47.2756 34.375 47.2881ZM27.25 45.75V37.8105L27.7 38.2606C27.9343 38.4958 28.2129 38.6822 28.5196 38.8091C28.8264 38.936 29.1553 39.0009 29.4873 39C29.8297 38.9993 30.1684 38.9294 30.4832 38.7945C30.7979 38.6596 31.0821 38.4624 31.3187 38.2148L31.7501 37.7648V45.75H27.25ZM37 35.0848L35.0177 34.689C34.3973 34.563 33.7551 34.597 33.1515 34.7878C32.548 34.9786 32.0029 35.3199 31.5677 35.7795L30.2328 37.1807C29.8266 37.5831 29.1748 37.5912 28.7592 37.1986L27.3716 35.8111C26.6675 35.1083 25.7135 34.7134 24.7188 34.713C24.513 34.713 24.3076 34.7303 24.1047 34.7646L22 35.1141V33.6441L23.9446 33.3501C24.4492 33.275 24.9639 33.3032 25.4574 33.4328C25.9509 33.5624 26.413 33.7908 26.8157 34.1041L29.0298 35.8348L29.0363 35.8403C29.0868 35.8762 29.1416 35.9056 29.1993 35.9278C29.2181 35.9362 29.2345 35.9512 29.2547 35.9578C29.4126 36.0127 29.5845 36.0127 29.7424 35.9578C29.7626 35.9512 29.779 35.9362 29.7978 35.9278C29.8556 35.9055 29.9102 35.8762 29.9603 35.8403L29.9673 35.8348L32.1814 34.1042C32.5839 33.7907 33.0459 33.5622 33.5394 33.4326C34.0328 33.3029 34.5474 33.2749 35.0521 33.3501L37 33.6441V35.0848ZM37 32.1148L35.3553 31.8406C34.6277 31.7193 33.8827 31.7527 33.1689 31.9387C32.455 32.1246 31.7884 32.459 31.2124 32.9198L30.25 33.6892V25.7999C30.6387 25.3887 31.1116 25.0663 31.6364 24.8549C32.1612 24.6434 32.7255 24.5478 33.2907 24.5746L37 24.7244V32.1148ZM38.5 20.25H37V21.75H35.5V20.25H34V18.75H35.5V17.25H37V18.75H38.5V20.25ZM41.5 35.25H40V33.75H41.5V35.25ZM41.5 32.25H40V30.75H41.5V32.25Z" fill="white"/>
<path d="M35.5 18.75H37V20.25H35.5V18.75Z" fill="white"/>
</svg>
