<svg width="42" height="42" viewBox="0 0 42 42" fill="none" xmlns="http://www.w3.org/2000/svg">
<g clip-path="url(#clip0_2_238)">
<path d="M34.9871 30.9024C34.8433 30.8254 34.6747 30.8085 34.5186 30.8557C34.3624 30.9028 34.2313 31.0101 34.1541 31.1538L32.1678 34.858L31.3698 33.7692C31.2734 33.6376 31.1286 33.5496 30.9673 33.5248C30.806 33.4999 30.6415 33.5401 30.5099 33.6366C30.3783 33.7331 30.2904 33.8778 30.2655 34.0391C30.2407 34.2004 30.2809 34.3649 30.3773 34.4965L31.7524 36.3727C31.8139 36.4565 31.8956 36.5234 31.9899 36.5671C32.0842 36.6108 32.188 36.6299 32.2917 36.6226C32.3954 36.6153 32.4956 36.5819 32.5828 36.5254C32.6701 36.4689 32.7416 36.3913 32.7908 36.2997L35.2385 31.7352C35.2767 31.664 35.3005 31.586 35.3085 31.5056C35.3165 31.4252 35.3086 31.3441 35.2853 31.2667C35.2619 31.1894 35.2236 31.1174 35.1724 31.0549C35.1213 30.9924 35.0583 30.9406 34.9871 30.9024Z" fill="white"/>
<path d="M38.9959 23.8581H34.3848C34.3924 23.7987 34.3964 23.7383 34.3964 23.6769V22.56C34.3964 21.9254 33.976 21.387 33.3994 21.2093L32.2056 8.80005L37.1567 7.31111V12.7988C36.4592 13.0511 35.9595 13.7199 35.9595 14.5032C35.9595 14.7534 36.0105 14.9918 36.1026 15.2088C35.9493 15.4527 35.8514 15.7272 35.8158 16.013L35.2782 20.3108C35.2534 20.5097 35.2711 20.7115 35.3302 20.903C35.3893 21.0944 35.4885 21.2711 35.6212 21.4213C35.7538 21.5715 35.9169 21.6918 36.0995 21.7742C36.2822 21.8565 36.4803 21.8991 36.6807 21.899H38.8632C39.0636 21.8991 39.2617 21.8565 39.4443 21.7741C39.627 21.6918 39.7901 21.5715 39.9227 21.4213C40.0553 21.2711 40.1545 21.0944 40.2136 20.9029C40.2727 20.7115 40.2905 20.5096 40.2656 20.3108L39.7281 16.013C39.6927 15.7271 39.5948 15.4525 39.4413 15.2087C39.536 14.9856 39.5846 14.7456 39.5843 14.5032C39.5843 13.7199 39.0846 13.0511 38.3871 12.7988V6.78512C38.6617 6.5259 38.8261 6.16062 38.8269 5.76113C38.828 5.13408 38.4257 4.58989 37.8257 4.40696L23.6852 0.0965532C23.2656 -0.0318204 22.8172 -0.0320775 22.3974 0.0958149L8.19786 4.40655C7.5969 4.58899 7.19396 5.13334 7.19511 5.76113C7.19634 6.38899 7.60133 6.93179 8.20286 7.11202L13.8071 8.79037L12.6123 21.2093C12.0357 21.3871 11.6154 21.9254 11.6154 22.56V23.6769C11.6154 23.7383 11.6193 23.7987 11.6269 23.8581H7.78171C6.12526 23.8581 4.77765 25.2077 4.77765 26.8664V27.0489H1.41151C0.633198 27.0489 0 27.6827 0 28.4618V30.2966C0 31.0757 0.633198 31.7095 1.41151 31.7095H2.40056C2.39275 31.7701 2.38883 31.831 2.38883 31.892V33.7268C2.38883 33.7886 2.39285 33.8496 2.40056 33.9094H1.41151C0.633198 33.9092 0 34.543 0 35.3221V37.1569C0 37.9359 0.633198 38.5698 1.41151 38.5698H2.40056C2.39275 38.6303 2.38883 38.6913 2.38883 38.7523V40.587C2.38883 41.3661 3.02203 41.9999 3.80034 41.9999H39.6328C40.4111 41.9999 41.0443 41.3661 41.0443 40.587V38.7523C41.0443 37.9733 40.4111 37.3394 39.6328 37.3394H38.6244C38.4613 37.3394 38.3048 37.4042 38.1894 37.5196C38.074 37.635 38.0092 37.7915 38.0092 37.9546C38.0092 38.1178 38.074 38.2743 38.1894 38.3897C38.3048 38.5051 38.4613 38.5699 38.6244 38.5699H39.6328C39.7327 38.5699 39.8139 38.6517 39.8139 38.7524V40.5871C39.8139 40.6878 39.7327 40.7696 39.6328 40.7696H3.80034C3.75214 40.7694 3.706 40.75 3.67206 40.7158C3.63812 40.6816 3.61914 40.6353 3.61929 40.5871V38.7523C3.61929 38.6517 3.7005 38.5698 3.80034 38.5698H26.7334C26.8966 38.5698 27.0531 38.505 27.1685 38.3896C27.2839 38.2742 27.3487 38.1177 27.3487 37.9546C27.3487 37.7914 27.2839 37.6349 27.1685 37.5195C27.0531 37.4041 26.8966 37.3393 26.7334 37.3393H1.41151C1.36331 37.3391 1.31718 37.3197 1.28323 37.2855C1.24929 37.2513 1.23031 37.205 1.23047 37.1568V35.322C1.23047 35.2214 1.31168 35.1396 1.41151 35.1396H9.58656C9.7229 35.777 10.29 36.2563 10.9669 36.2563H27.4857C28.4316 38.2359 30.4516 39.6067 32.785 39.6067C35.1183 39.6067 37.1382 38.2359 38.0842 36.2563H40.5885C41.3668 36.2563 42 35.6225 42 34.8434V26.8663C41.9999 25.2076 40.6523 23.8581 38.9959 23.8581ZM9.55531 33.9092H3.80034C3.75214 33.909 3.706 33.8896 3.67206 33.8554C3.63812 33.8212 3.61914 33.7749 3.61929 33.7267V31.8919C3.61929 31.7912 3.7005 31.7094 3.80034 31.7094H7.94102C8.10419 31.7094 8.26068 31.6445 8.37605 31.5292C8.49143 31.4138 8.55625 31.2573 8.55625 31.0941C8.55625 30.931 8.49143 30.7745 8.37605 30.6591C8.26068 30.5437 8.10419 30.4789 7.94102 30.4789H1.41151C1.36333 30.4787 1.3172 30.4593 1.28326 30.4251C1.24932 30.3909 1.23034 30.3446 1.23047 30.2965V28.4617C1.23047 28.361 1.31168 28.2792 1.41151 28.2792H9.55531V33.9092ZM9.55531 27.0489H6.00812V26.8664C6.00812 25.8861 6.80374 25.0886 7.78171 25.0886C8.75969 25.0886 9.55531 25.8861 9.55531 26.8664V27.0489ZM38.5065 16.1595L38.5073 16.1657L39.0447 20.4635C39.048 20.4891 39.0458 20.5152 39.0382 20.5399C39.0306 20.5645 39.0177 20.5873 39.0005 20.6066C38.9834 20.6262 38.9623 20.6418 38.9386 20.6525C38.9149 20.6632 38.8892 20.6686 38.8632 20.6685H36.6807C36.6547 20.6686 36.629 20.6631 36.6053 20.6525C36.5816 20.6418 36.5605 20.6262 36.5434 20.6066C36.5262 20.5873 36.5133 20.5645 36.5057 20.5398C36.498 20.5151 36.4958 20.489 36.4991 20.4634L37.0366 16.1657L37.0374 16.1595C37.2687 16.2623 37.5189 16.3152 37.772 16.3149C38.0333 16.3149 38.2818 16.2595 38.5065 16.1595ZM38.354 14.5032C38.354 14.8238 38.0929 15.0845 37.772 15.0845C37.451 15.0845 37.1899 14.8238 37.1899 14.5032C37.1899 14.1826 37.451 13.9218 37.772 13.9218C38.0929 13.9218 38.354 14.1827 38.354 14.5032ZM8.55592 5.93323C8.46963 5.90739 8.42574 5.84866 8.42558 5.75883C8.42541 5.66893 8.46905 5.61011 8.55527 5.58394L22.7549 1.27321C22.9412 1.21658 23.1402 1.21669 23.3264 1.27354L37.467 5.58394C37.5531 5.61019 37.5967 5.66901 37.5965 5.75883C37.5963 5.84866 37.5525 5.90731 37.4664 5.93323L31.9506 7.5919C31.8082 7.29793 31.6024 7.03918 31.348 6.83427C31.0936 6.62935 30.7969 6.48336 30.4794 6.40679C28.2125 5.86104 25.8235 5.58435 23.3789 5.58435C20.6283 5.58435 17.9622 5.93249 15.4547 6.61893C14.8988 6.77109 14.4344 7.13326 14.1445 7.60699L8.55592 5.93323ZM12.8457 22.56C12.8457 22.5118 12.8647 22.4656 12.8986 22.4314C12.9326 22.3972 12.9787 22.3779 13.0269 22.3776H27.7883C27.9514 22.3776 28.1079 22.3128 28.2233 22.1974C28.3387 22.082 28.4035 21.9255 28.4035 21.7624C28.4035 21.5992 28.3387 21.4427 28.2233 21.3273C28.1079 21.2119 27.9514 21.1471 27.7883 21.1471H13.8544L15.0558 8.65937C15.0946 8.25668 15.3854 7.91362 15.7796 7.80567C18.1813 7.14811 20.738 6.81473 23.3789 6.81473C25.7267 6.81473 28.0187 7.07994 30.1913 7.60297C30.3895 7.65087 30.5679 7.75939 30.7015 7.91342C30.8352 8.06745 30.9174 8.25933 30.9369 8.46233L32.1573 21.147H30.0377C29.8746 21.147 29.7181 21.2119 29.6027 21.3272C29.4873 21.4426 29.4225 21.5991 29.4225 21.7623C29.4225 21.9254 29.4873 22.0819 29.6027 22.1973C29.7181 22.3127 29.8746 22.3775 30.0377 22.3775H32.9848C33.0846 22.3775 33.1658 22.4594 33.1658 22.5599V23.6768C33.1658 23.7702 33.0959 23.8474 33.0059 23.858H13.0056C12.9614 23.8526 12.9208 23.8311 12.8913 23.7977C12.8619 23.7643 12.8456 23.7213 12.8457 23.6768V22.56ZM32.7849 38.3764C30.2262 38.3764 28.1447 36.2906 28.1447 33.7268C28.1447 31.1629 30.2262 29.0771 32.7849 29.0771C35.3435 29.0771 37.425 31.1629 37.425 33.7268C37.425 36.2906 35.3435 38.3764 32.7849 38.3764ZM40.7695 34.8435C40.7695 34.9442 40.6882 35.026 40.5884 35.026H38.5111C38.6073 34.5997 38.6558 34.1639 38.6555 33.7268C38.6555 30.4844 36.022 27.8466 32.7849 27.8466C29.5478 27.8466 26.9142 30.4844 26.9142 33.7268C26.9142 34.173 26.9642 34.608 27.0586 35.026H10.9668C10.9186 35.0258 10.8725 35.0065 10.8385 34.9722C10.8046 34.938 10.7856 34.8917 10.7858 34.8435V26.8664C10.7865 26.2268 10.5826 25.6038 10.2037 25.0886H12.9672C13 25.09 13.0336 25.0907 13.0663 25.0886H32.9453C32.9781 25.0907 33.0115 25.09 33.0444 25.0886H38.9959C39.9738 25.0886 40.7695 25.8861 40.7695 26.8664V34.8435Z" fill="white"/>
<path d="M19.726 29.7521H13.3557C13.1926 29.7521 13.0361 29.8169 12.9207 29.9323C12.8053 30.0477 12.7405 30.2042 12.7405 30.3673C12.7405 30.5305 12.8053 30.687 12.9207 30.8024C13.0361 30.9178 13.1926 30.9826 13.3557 30.9826H19.726C19.8891 30.9826 20.0456 30.9178 20.161 30.8024C20.2764 30.687 20.3412 30.5305 20.3412 30.3673C20.3412 30.2042 20.2764 30.0477 20.161 29.9323C20.0456 29.8169 19.8891 29.7521 19.726 29.7521ZM26.8924 27.359H13.3557C13.1925 27.359 13.036 27.4238 12.9206 27.5392C12.8052 27.6546 12.7404 27.8111 12.7404 27.9742C12.7404 28.1374 12.8052 28.2939 12.9206 28.4093C13.036 28.5247 13.1925 28.5895 13.3557 28.5895H26.8924C27.0556 28.5895 27.2121 28.5247 27.3275 28.4093C27.4429 28.2939 27.5077 28.1374 27.5077 27.9742C27.5077 27.8111 27.4429 27.6546 27.3275 27.5392C27.2121 27.4238 27.0556 27.359 26.8924 27.359Z" fill="white"/>
</g>
<defs>
<clipPath id="clip0_2_238">
<rect width="42" height="42" fill="white"/>
</clipPath>
</defs>
</svg>
