<svg width="95" height="95" viewBox="0 0 95 95" fill="none" xmlns="http://www.w3.org/2000/svg">
<rect width="94.6591" height="94.908" rx="47.3295" fill="#F5F5F5"/>
<path opacity="0.8" d="M65.5849 51.5215H63.5565V31.184H65.5849C66.1228 31.184 66.6388 30.9698 67.0192 30.5884C67.3996 30.207 67.6133 29.6897 67.6133 29.1503C67.6133 28.6109 67.3996 28.0936 67.0192 27.7122C66.6388 27.3308 66.1228 27.1166 65.5849 27.1166H29.0735C28.5355 27.1166 28.0196 27.3308 27.6392 27.7122C27.2588 28.0936 27.0451 28.6109 27.0451 29.1503C27.0451 29.6897 27.2588 30.207 27.6392 30.5884C28.0196 30.9698 28.5355 31.184 29.0735 31.184H31.1019V51.5215H29.0735C28.5355 51.5215 28.0196 51.7357 27.6392 52.1171C27.2588 52.4985 27.0451 53.0158 27.0451 53.5552C27.0451 54.0946 27.2588 54.6119 27.6392 54.9933C28.0196 55.3747 28.5355 55.5889 29.0735 55.5889H45.3008V57.9278L36.0715 64.029C35.6929 64.264 35.4019 64.6174 35.2435 65.0346C35.085 65.4519 35.0679 65.9098 35.1948 66.3378C35.3217 66.7657 35.5856 67.14 35.9456 67.4027C36.3057 67.6654 36.742 67.802 37.1871 67.7914C37.5859 67.796 37.9761 67.6751 38.3028 67.4457L45.3008 62.8087V65.7577C45.3008 66.297 45.5145 66.8143 45.8949 67.1957C46.2753 67.5771 46.7912 67.7914 47.3292 67.7914C47.8672 67.7914 48.3831 67.5771 48.7635 67.1957C49.1439 66.8143 49.3576 66.297 49.3576 65.7577V62.8087L56.3556 67.4457C56.6823 67.6751 57.0724 67.796 57.4712 67.7914C57.9046 67.788 58.3255 67.6456 58.6723 67.385C59.019 67.1244 59.2734 66.7592 59.3981 66.3431C59.5229 65.927 59.5114 65.4817 59.3654 65.0726C59.2194 64.6635 58.9466 64.312 58.5869 64.0697L49.3576 57.9684V55.5889H65.5849C66.1228 55.5889 66.6388 55.3747 67.0192 54.9933C67.3996 54.6119 67.6133 54.0946 67.6133 53.5552C67.6133 53.0158 67.3996 52.4985 67.0192 52.1171C66.6388 51.7357 66.1228 51.5215 65.5849 51.5215ZM59.4996 51.5215H35.1587V31.184H59.4996V51.5215ZM42.4813 47.9828C43.0219 48.303 43.6384 48.4719 44.2663 48.4719C44.8942 48.4719 45.5107 48.303 46.0513 47.9828L52.1365 44.444C52.6567 44.1239 53.0864 43.6754 53.3845 43.1413C53.6826 42.6072 53.8391 42.0054 53.8391 41.3934C53.8391 40.7814 53.6826 40.1796 53.3845 39.6456C53.0864 39.1115 52.6567 38.663 52.1365 38.3428L46.0513 34.8041C45.5107 34.4839 44.8942 34.3149 44.2663 34.3149C43.6384 34.3149 43.0219 34.4839 42.4813 34.8041C41.9365 35.112 41.4849 35.5619 41.1743 36.106C40.8636 36.6502 40.7055 37.2685 40.7166 37.8954V44.9728C40.72 45.586 40.885 46.1873 41.1949 46.7159C41.5048 47.2445 41.9486 47.6816 42.4813 47.9828ZM44.7734 38.6682L49.3576 41.3528L44.7328 44.0373L44.7734 38.6682Z" fill="#1670F8"/>
</svg>
