<svg width="46" height="45" viewBox="0 0 46 45" fill="none" xmlns="http://www.w3.org/2000/svg">
<path d="M0 10C0 4.47715 4.47715 0 10 0H46V45H10C4.47715 45 0 40.5228 0 35V10Z" fill="#53A537"/>
<path d="M24.5012 9.41667C31.1748 9.41667 36.5845 14.8264 36.5845 21.5C36.5845 28.1736 31.1748 33.5833 24.5012 33.5833C22.3658 33.5868 20.268 33.0217 18.4233 31.946L12.4227 33.5833L14.0564 27.5803C12.9799 25.7351 12.4143 23.6363 12.4179 21.5C12.4179 14.8264 17.8276 9.41667 24.5012 9.41667ZM20.3832 15.8208L20.1415 15.8305C19.9851 15.84 19.8322 15.8811 19.692 15.9513C19.561 16.0256 19.4413 16.1184 19.3368 16.2268C19.1918 16.3634 19.1096 16.4818 19.0214 16.5966C18.5745 17.1777 18.3338 17.8911 18.3375 18.6242C18.3399 19.2163 18.4946 19.7926 18.7363 20.3315C19.2305 21.4215 20.0437 22.5754 21.1167 23.6448C21.3752 23.9022 21.629 24.1608 21.9021 24.4012C23.2353 25.5751 24.8241 26.4216 26.5421 26.8735L27.2284 26.9786C27.452 26.9907 27.6755 26.9738 27.9003 26.9629C28.2522 26.9447 28.5958 26.8494 28.9068 26.6838C29.065 26.6022 29.2195 26.5135 29.3696 26.4179C29.3696 26.4179 29.4215 26.3841 29.5206 26.3092C29.6838 26.1883 29.784 26.1025 29.9194 25.9612C30.0197 25.8573 30.1067 25.7352 30.1731 25.5963C30.2674 25.3993 30.3616 25.0235 30.4003 24.7105C30.4293 24.4713 30.4208 24.3408 30.4172 24.2598C30.4124 24.1305 30.3048 23.9964 30.1876 23.9396L29.4844 23.6243C29.4844 23.6243 28.4331 23.1663 27.7903 22.8739C27.723 22.8445 27.6509 22.8277 27.5776 22.8243C27.495 22.8158 27.4114 22.8252 27.3326 22.8516C27.2539 22.8781 27.1817 22.9211 27.1209 22.9778C27.1148 22.9754 27.0339 23.0443 26.1602 24.1028C26.1101 24.1701 26.041 24.2211 25.9618 24.249C25.8827 24.277 25.7969 24.2808 25.7156 24.2598C25.6369 24.2387 25.5597 24.2121 25.4848 24.1801C25.335 24.1173 25.283 24.0931 25.1803 24.0496C24.4868 23.747 23.8447 23.3381 23.2772 22.8376C23.1249 22.7047 22.9835 22.5597 22.8385 22.4195C22.3632 21.9643 21.9489 21.4493 21.606 20.8874L21.5347 20.7726C21.4835 20.6955 21.4421 20.6122 21.4115 20.5249C21.3656 20.3473 21.4852 20.2047 21.4852 20.2047C21.4852 20.2047 21.7788 19.8833 21.9154 19.7093C22.0483 19.5401 22.1607 19.3758 22.2332 19.2585C22.3757 19.029 22.4205 18.7933 22.3455 18.6109C22.0072 17.7844 21.6568 16.9615 21.2967 16.1447C21.2254 15.9828 21.014 15.8668 20.8218 15.8438C20.7566 15.8365 20.6913 15.8293 20.6261 15.8245C20.4638 15.8164 20.3012 15.818 20.1391 15.8293L20.382 15.8196L20.3832 15.8208Z" fill="white"/>
</svg>
