<svg width="64" height="65" viewBox="0 0 64 65" fill="none" xmlns="http://www.w3.org/2000/svg">
<rect y="0.0043335" width="64" height="64" rx="32" fill="#E5E7EB"/>
<path d="M44.7999 46.4043V43.2043C44.7999 41.507 44.1257 39.8791 42.9254 38.6789C41.7252 37.4786 40.0973 36.8043 38.3999 36.8043H25.6C23.9026 36.8043 22.2747 37.4786 21.0745 38.6789C19.8742 39.8791 19.2 41.507 19.2 43.2043V46.4043" stroke="#111827" stroke-width="2.56" stroke-linecap="round" stroke-linejoin="round"/>
<path d="M32.0001 30.4043C35.5347 30.4043 38.4001 27.539 38.4001 24.0043C38.4001 20.4697 35.5347 17.6043 32.0001 17.6043C28.4655 17.6043 25.6001 20.4697 25.6001 24.0043C25.6001 27.539 28.4655 30.4043 32.0001 30.4043Z" stroke="#111827" stroke-width="2.56" stroke-linecap="round" stroke-linejoin="round"/>
</svg>
