<svg width="110" height="99" viewBox="0 0 110 99" fill="none" xmlns="http://www.w3.org/2000/svg">
<path fill-rule="evenodd" clip-rule="evenodd" d="M32.5364 63.0815C39.9878 64.9136 45.5161 71.6386 45.5161 79.657V91.0379C45.5161 93.0501 44.7177 94.9789 43.2934 96.4012C41.871 97.8255 39.9423 98.6239 37.9301 98.6239C29.961 98.6239 15.5551 98.6239 7.58602 98.6239C5.57383 98.6239 3.64508 97.8255 2.2227 96.4012C0.798428 94.9789 0 93.0501 0 91.0379V79.657C0 71.6386 5.52831 64.9136 12.9797 63.0815C15.7713 66.2753 19.1699 68.2799 22.7581 68.2799C26.3462 68.2799 29.7448 66.2753 32.5364 63.0815Z" fill="white"/>
<path fill-rule="evenodd" clip-rule="evenodd" d="M17.0684 24.6603C17.0684 25.1633 16.8686 25.6457 16.5129 26.0013C16.1573 26.357 15.6749 26.5568 15.1719 26.5568C14.6689 26.5568 14.1865 26.357 13.8309 26.0013C13.4752 25.6457 13.2754 25.1633 13.2754 24.6603C13.2754 24.1573 13.4752 23.6749 13.8309 23.3193C14.1865 22.9636 14.6689 22.7638 15.1719 22.7638C15.6749 22.7638 16.1573 22.9636 16.5129 23.3193C16.8686 23.6749 17.0684 24.1573 17.0684 24.6603Z" fill="white"/>
<path fill-rule="evenodd" clip-rule="evenodd" d="M24.6543 24.6603C24.6543 25.1633 24.4545 25.6457 24.0989 26.0013C23.7432 26.357 23.2608 26.5568 22.7578 26.5568C22.2548 26.5568 21.7725 26.357 21.4168 26.0013C21.0611 25.6457 20.8613 25.1633 20.8613 24.6603C20.8613 24.1573 21.0611 23.6749 21.4168 23.3193C21.7725 22.9636 22.2548 22.7638 22.7578 22.7638C23.2608 22.7638 23.7432 22.9636 24.0989 23.3193C24.4545 23.6749 24.6543 24.1573 24.6543 24.6603Z" fill="white"/>
<path fill-rule="evenodd" clip-rule="evenodd" d="M32.2403 24.6603C32.2403 25.1633 32.0405 25.6457 31.6848 26.0013C31.3291 26.357 30.8468 26.5568 30.3438 26.5568C29.8408 26.5568 29.3584 26.357 29.0027 26.0013C28.6471 25.6457 28.4473 25.1633 28.4473 24.6603C28.4473 24.1573 28.6471 23.6749 29.0027 23.3193C29.3584 22.9636 29.8408 22.7638 30.3438 22.7638C30.8468 22.7638 31.3291 22.9636 31.6848 23.3193C32.0405 23.6749 32.2403 24.1573 32.2403 24.6603Z" fill="white"/>
<path fill-rule="evenodd" clip-rule="evenodd" d="M22.758 30.3497C30.0842 30.3497 36.0335 36.2991 36.0335 43.6253C36.0335 50.9515 30.0842 64.4868 22.758 64.4868C15.4318 64.4868 9.48242 50.9515 9.48242 43.6253C9.48242 36.2991 15.4318 30.3497 22.758 30.3497Z" fill="white"/>
<path fill-rule="evenodd" clip-rule="evenodd" d="M49.3117 46.634V30.3524C49.3117 13.6063 62.9097 0.00830078 79.6558 0.00830078C96.402 0.00830078 110 13.6063 110 30.3524C110 47.0986 96.402 60.6966 79.6558 60.6966H39.8292C39.0611 60.6966 38.372 60.2351 38.078 59.5271C37.7841 58.8159 37.9453 58.0004 38.4889 57.4599L49.3117 46.634ZM44.4092 56.9036H79.6558C94.3095 56.9036 106.207 45.0061 106.207 30.3524C106.207 15.6988 94.3095 3.80132 79.6558 3.80132C65.0021 3.80132 53.1047 15.6988 53.1047 30.3524V47.421C53.1047 47.9236 52.9056 48.4072 52.5484 48.7612L44.4092 56.9036Z" fill="white"/>
<path fill-rule="evenodd" clip-rule="evenodd" d="M72.0678 24.6609V20.8679C72.0678 19.3583 72.6677 17.9113 73.7345 16.8435C74.8014 15.7777 76.2487 15.1784 77.7579 15.1784H81.8007C83.2438 15.1784 84.6267 15.7511 85.6469 16.7715C86.6672 17.7918 87.24 19.1743 87.24 20.6176V20.6195C87.24 22.4591 86.274 24.1659 84.6953 25.1142C83.9352 25.5693 83.1285 26.0529 82.3617 26.5138C79.5052 28.2282 77.7579 31.3139 77.7579 34.6441V39.833C77.7579 40.8798 78.607 41.7295 79.6543 41.7295C80.7008 41.7295 81.5507 40.8798 81.5507 39.833C81.5507 39.833 81.5507 37.1551 81.5507 34.6441C81.5507 32.6471 82.5989 30.7942 84.3132 29.7663C85.0801 29.3055 85.8868 28.8218 86.6469 28.3667C89.3678 26.7338 91.0329 23.7923 91.0329 20.6195C91.0329 20.6176 91.0329 20.6176 91.0329 20.6176C91.0329 18.1692 90.0601 15.8194 88.3289 14.0879C86.5977 12.3583 84.2496 11.3854 81.8007 11.3854C80.4754 11.3854 79.09 11.3854 77.7579 11.3854C75.2429 11.3854 72.8304 12.3829 71.0526 14.1619C69.274 15.9408 68.2749 18.3531 68.2749 20.8679V24.6609C68.2749 25.7078 69.1248 26.5574 70.1713 26.5574C71.2178 26.5574 72.0678 25.7078 72.0678 24.6609Z" fill="white"/>
<path fill-rule="evenodd" clip-rule="evenodd" d="M81.5498 47.4184C81.5498 47.9213 81.35 48.4037 80.9944 48.7594C80.6387 49.1151 80.1563 49.3149 79.6533 49.3149C79.1504 49.3149 78.668 49.1151 78.3123 48.7594C77.9566 48.4037 77.7568 47.9213 77.7568 47.4184C77.7568 46.9154 77.9566 46.433 78.3123 46.0773C78.668 45.7217 79.1504 45.5219 79.6533 45.5219C80.1563 45.5219 80.6387 45.7217 80.9944 46.0773C81.35 46.433 81.5498 46.9154 81.5498 47.4184Z" fill="white"/>
</svg>
