<svg width="93" height="93" viewBox="0 0 93 93" fill="none" xmlns="http://www.w3.org/2000/svg">
<path d="M91.712 60.9716C90.7024 58.3927 88.1289 56.8683 85.452 57.0458C83.4093 55.0869 80.2486 54.6109 77.6826 56.0739L76.1943 56.9022C77.0788 54.7681 76.7138 52.2267 75.0851 50.4014C72.9088 47.9304 69.174 47.5653 66.5765 49.5872L44.8248 66.3826L39.8834 63.45L45.6808 58.9715C48.6471 56.681 50.4782 53.443 51.0726 49.9953C51.1164 49.9955 51.159 50.0001 51.2028 50.0001C64.7252 50.0001 75.7258 38.9995 75.7258 25.4626C75.7258 11.9257 64.7252 0.925171 51.2028 0.925171C37.666 0.925171 26.6654 11.9257 26.6654 25.4626C26.6654 32.7227 29.8215 39.2389 34.8538 43.7296L24.7522 50.6233C23.6652 51.3625 22.4043 51.7537 21.0854 51.7537H20.3753C20.0709 49.7826 18.3607 48.2754 16.3026 48.2754H4.98323C2.70774 48.2754 0.852539 50.1305 0.852539 52.406V83.0307C0.852539 85.3206 2.70774 87.1613 4.98323 87.1613H16.3026C18.2737 87.1613 19.9115 85.7989 20.3172 83.9728H21.6651C23.1001 83.9728 24.5059 84.2481 25.8393 84.8133L41.4197 91.4078C43.3873 92.332 45.7436 92.3021 47.7099 91.2774L87.8423 70.6822C91.3352 68.885 93.002 64.7399 91.712 60.9716ZM66.5804 23.1147C67.8993 23.1147 68.9429 24.1872 68.9429 25.4771C68.9429 26.7525 67.8993 27.7961 66.5804 27.7961C65.305 27.7961 64.2614 26.7525 64.2614 25.4771C64.2614 24.1872 65.305 23.1147 66.5804 23.1147ZM51.1884 27.0134C47.4636 27.0134 44.4344 23.9843 44.4344 20.2595C44.4344 17.0709 46.6663 14.4042 49.6376 13.6939V12.491C49.6376 11.6359 50.3332 10.9402 51.1884 10.9402C52.058 10.9402 52.7536 11.6359 52.7536 12.491V13.6939C55.7248 14.4042 57.9568 17.0709 57.9568 20.2595C57.9568 21.1145 57.2612 21.8103 56.3915 21.8103C55.5364 21.8103 54.8407 21.1145 54.8407 20.2595C54.8407 18.2449 53.2029 16.6071 51.1884 16.6071C49.1883 16.6071 47.5505 18.2449 47.5505 20.2595C47.5505 22.2596 49.1883 23.8974 51.1884 23.8974C54.9276 23.8974 57.9568 26.9409 57.9568 30.6658C57.9568 33.8544 55.7248 36.5211 52.7536 37.2314V38.4197C52.7536 39.2894 52.058 39.9851 51.1884 39.9851C50.3332 39.9851 49.6376 39.2894 49.6376 38.4197V37.2314C46.6663 36.5211 44.4344 33.8544 44.4344 30.6658C44.4344 29.8106 45.13 29.1005 45.9852 29.1005C46.8548 29.1005 47.5505 29.8106 47.5505 30.6658C47.5505 32.6804 49.1883 34.3182 51.1884 34.3182C53.2029 34.3182 54.8407 32.6804 54.8407 30.6658C54.8407 28.6512 53.2029 27.0134 51.1884 27.0134ZM33.4628 25.4771C33.4628 24.1872 34.4919 23.1147 35.7818 23.1147C37.1007 23.1147 38.1298 24.1872 38.1298 25.4771C38.1298 26.7525 37.1007 27.7961 35.7818 27.7961C34.4919 27.7961 33.4628 26.7525 33.4628 25.4771ZM14.1141 80.7117C12.9346 80.7117 12.0125 79.7401 12.0125 78.6102C12.0125 77.4672 12.9181 76.5086 14.1141 76.5086C15.2881 76.5086 16.2301 77.4362 16.2301 78.6102C16.2301 79.7696 15.2881 80.7117 14.1141 80.7117ZM86.5234 68.1024L46.3911 88.6976C45.2026 89.3064 43.8402 89.3353 42.5937 88.7701L26.9698 82.1466C25.2741 81.4364 23.4913 81.0741 21.6651 81.0741H20.4332V54.6524H21.0854C22.9841 54.6524 24.8248 54.0872 26.39 53.0147L44.4634 40.6807C45.0866 40.2459 45.9562 40.4053 46.3911 41.0431C49.826 46.0868 48.739 52.9422 43.9126 56.6816L36.4195 62.4644C36.0427 62.7543 35.8253 63.2181 35.8543 63.6963C35.8833 64.1747 36.1442 64.6094 36.5644 64.8559L49.2317 72.3635C49.6086 72.5808 50.0579 72.6244 50.4637 72.4794L84.8422 60.0586C86.5379 59.5222 88.3641 60.3919 89.0018 61.9716C89.7989 64.3341 88.7409 66.9574 86.5234 68.1024Z" fill="white"/>
</svg>
