<svg width="38" height="39" viewBox="0 0 38 39" fill="none" xmlns="http://www.w3.org/2000/svg">
<path d="M26.0986 29.383L19.3359 26.6492C19.1926 26.5912 19.034 26.5829 18.8854 26.6254C18.7368 26.6679 18.6066 26.7589 18.5156 26.8839L16.7323 29.3341C13.7852 28.295 11.1655 26.3883 9.27076 23.9034L11.0541 21.4532C11.1451 21.3282 11.1917 21.1764 11.1864 21.0219C11.1812 20.8674 11.1245 20.719 11.0253 20.6005L6.34475 15.0058C6.28636 14.9359 6.21478 14.8783 6.13409 14.8361C6.05341 14.794 5.96521 14.7681 5.87454 14.76C5.78386 14.752 5.69248 14.7619 5.60563 14.7891C5.51877 14.8164 5.43814 14.8605 5.36834 14.919L2.48219 17.3334C0.625813 18.8864 -0.293406 21.3364 0.0832407 23.7274C0.251899 24.7899 0.664333 25.7989 1.28822 26.6753C3.15095 29.2866 5.42323 31.58 8.01726 33.4669C10.6102 35.3552 13.4911 36.8124 16.5487 37.7821C17.5744 38.1066 18.6613 38.1889 19.7242 38.0226C22.1151 37.646 24.1639 36.0181 25.0711 33.7741L26.4814 30.2855C26.5155 30.2011 26.5327 30.1108 26.5319 30.0198C26.5311 29.9288 26.5125 29.8388 26.4769 29.755C26.4414 29.6712 26.3897 29.5952 26.3247 29.5314C26.2598 29.4675 26.183 29.4171 26.0986 29.383ZM23.7858 33.2546C23.0601 35.0496 21.4212 36.3519 19.5084 36.6532C18.6582 36.7861 17.7887 36.7202 16.9682 36.4608C14.0526 35.5362 11.3055 34.1467 8.83303 32.346C6.3595 30.5469 4.19282 28.36 2.41669 25.8699C1.91753 25.1688 1.58754 24.3616 1.45258 23.5117C1.15132 21.5991 1.88668 19.639 3.37178 18.3967L5.72628 16.427L9.61474 21.075L7.85099 23.4982C7.76539 23.6159 7.71897 23.7574 7.7183 23.9029C7.71763 24.0484 7.76275 24.1904 7.84727 24.3088C10.0297 27.3665 13.2036 29.6765 16.7841 30.8133C16.9228 30.8573 17.0718 30.8565 17.21 30.8112C17.3483 30.7658 17.4688 30.6781 17.5544 30.5605L19.318 28.1373L24.9363 30.4085L23.7857 33.2546H23.7858Z" fill="#1670F8"/>
<path d="M7.7797 20.6513L5.70021 18.5718C5.5702 18.4418 5.39388 18.3688 5.21003 18.3688C5.02618 18.3688 4.84986 18.4418 4.71986 18.5718C4.58986 18.7018 4.51684 18.8782 4.51685 19.062C4.51685 19.2459 4.5899 19.4222 4.7199 19.5522L6.79939 21.6317C6.93473 21.7669 7.11218 21.8346 7.28954 21.8346C7.46691 21.8346 7.64436 21.767 7.7797 21.6317C7.84408 21.5673 7.89515 21.4909 7.93 21.4068C7.96484 21.3227 7.98277 21.2325 7.98277 21.1415C7.98277 21.0504 7.96484 20.9603 7.93 20.8762C7.89515 20.7921 7.84408 20.7156 7.7797 20.6513ZM19.1465 29.8425C19.1058 29.9239 19.0815 30.0126 19.075 30.1034C19.0686 30.1942 19.0801 30.2854 19.1089 30.3717C19.1376 30.4581 19.1831 30.538 19.2428 30.6067C19.3024 30.6755 19.375 30.7319 19.4565 30.7726L22.2291 32.1589C22.3935 32.2411 22.5839 32.2547 22.7583 32.1965C22.9327 32.1384 23.0768 32.0134 23.1591 31.849C23.1998 31.7676 23.2241 31.6789 23.2305 31.5881C23.237 31.4973 23.2255 31.4061 23.1967 31.3198C23.168 31.2334 23.1224 31.1535 23.0628 31.0848C23.0032 31.016 22.9306 30.9596 22.8491 30.9189L20.0765 29.5326C19.9121 29.4504 19.7217 29.4368 19.5473 29.495C19.3729 29.5531 19.2287 29.6781 19.1465 29.8425ZM33.4833 3.23081C28.006 -1.53729 19.6706 -0.960661 14.9024 4.51662C11.0178 8.97868 10.5889 15.4863 13.8332 20.4074L14.1312 24.7138C14.1577 25.0957 14.4886 25.3853 14.8706 25.3573L19.1769 25.0594C20.9406 25.9006 22.8699 26.3369 24.8239 26.3364C28.545 26.3364 32.203 24.7593 34.769 21.8118C39.5373 16.3345 38.9606 7.99924 33.4833 3.23081ZM33.7235 20.9015C30.2104 24.9368 24.4111 26.1017 19.6206 23.7338C19.5105 23.6794 19.388 23.6553 19.2656 23.6638L15.4664 23.9266L15.2035 20.1273C15.195 20.0049 15.1542 19.8869 15.0852 19.7854C12.0802 15.3667 12.4349 9.46225 15.948 5.42692C20.2143 0.526346 27.6722 0.0100265 32.5729 4.27653C37.4736 8.54294 37.9897 16.0008 33.7233 20.9015H33.7235Z" fill="#1670F8"/>
<path d="M19.0734 10.0509C19.4556 10.0509 19.7665 10.3619 19.7665 10.744C19.7665 10.9279 19.8396 11.1042 19.9696 11.2342C20.0996 11.3642 20.2759 11.4372 20.4597 11.4372C20.6435 11.4372 20.8199 11.3642 20.9498 11.2342C21.0798 11.1042 21.1529 10.9279 21.1529 10.744C21.1529 9.59746 20.22 8.66455 19.0734 8.66455C17.9267 8.66455 16.9939 9.59746 16.9939 10.744C16.9939 11.3762 17.2401 11.9705 17.6871 12.4175L19.4794 14.2098C19.5707 14.3006 19.6431 14.4086 19.6924 14.5276C19.7417 14.6466 19.7669 14.7742 19.7665 14.903C19.7665 15.2852 19.4556 15.5962 19.0734 15.5962C18.6912 15.5962 18.3802 15.2852 18.3802 14.903C18.3802 14.7192 18.3072 14.5429 18.1772 14.4129C18.0472 14.2829 17.8709 14.2099 17.6871 14.2099C17.5032 14.2099 17.3269 14.2829 17.1969 14.4129C17.0669 14.5429 16.9939 14.7192 16.9939 14.903C16.9939 16.0497 17.9267 16.9825 19.0734 16.9825C20.22 16.9825 21.1529 16.0497 21.1529 14.903C21.1529 14.2709 20.9068 13.6766 20.4597 13.2295L18.6674 11.4371C18.5761 11.3463 18.5037 11.2383 18.4544 11.1193C18.4051 11.0004 18.3799 10.8728 18.3802 10.744C18.3802 10.3619 18.6912 10.0509 19.0734 10.0509ZM30.8571 10.0509C31.2393 10.0509 31.5503 10.3619 31.5503 10.744C31.5503 10.9279 31.6233 11.1042 31.7533 11.2342C31.8833 11.3642 32.0596 11.4372 32.2435 11.4372C32.4273 11.4372 32.6036 11.3642 32.7336 11.2342C32.8636 11.1042 32.9366 10.9279 32.9366 10.744C32.9366 9.59746 32.0038 8.66455 30.8571 8.66455C29.7105 8.66455 28.7777 9.59746 28.7777 10.744C28.7777 11.3762 29.0238 11.9705 29.4708 12.4175L31.2632 14.2098C31.3545 14.3006 31.4269 14.4086 31.4762 14.5276C31.5255 14.6466 31.5507 14.7742 31.5503 14.903C31.5503 15.2852 31.2393 15.5962 30.8571 15.5962C30.475 15.5962 30.164 15.2852 30.164 14.903C30.164 14.7192 30.091 14.5429 29.961 14.4129C29.831 14.2829 29.6547 14.2099 29.4708 14.2099C29.287 14.2099 29.1107 14.2829 28.9807 14.4129C28.8507 14.5429 28.7777 14.7192 28.7777 14.903C28.7777 16.0497 29.7105 16.9825 30.8571 16.9825C32.0038 16.9825 32.9366 16.0497 32.9366 14.903C32.9366 14.2709 32.6906 13.6766 32.2435 13.2295L30.4511 11.4371C30.3598 11.3463 30.2874 11.2383 30.2381 11.1193C30.1888 11.0004 30.1636 10.8728 30.164 10.744C30.164 10.3619 30.475 10.0509 30.8571 10.0509ZM24.9653 8.66455C23.6275 8.66455 22.5392 9.75282 22.5392 11.0906V14.5564C22.5392 15.8942 23.6275 16.9825 24.9653 16.9825C26.3031 16.9825 27.3913 15.8942 27.3913 14.5564V11.0906C27.3913 9.75282 26.3031 8.66455 24.9653 8.66455ZM26.005 14.5564C26.005 15.1299 25.5386 15.5962 24.9653 15.5962C24.3919 15.5962 23.9255 15.1299 23.9255 14.5564V11.0906C23.9255 10.5173 24.3919 10.0509 24.9653 10.0509C25.5386 10.0509 26.005 10.5173 26.005 11.0906V14.5564Z" fill="#1670F8"/>
</svg>
