<svg width="58" height="58" viewBox="0 0 58 58" fill="none" xmlns="http://www.w3.org/2000/svg">
<rect width="58" height="58" rx="10" fill="white"/>
<g clip-path="url(#clip0_1_26)">
<path d="M31.9999 32.6256C31.9999 31.4985 31.5521 30.4175 30.7551 29.6204C29.9581 28.8234 28.8771 28.3756 27.7499 28.3756C26.6227 28.3756 25.5417 28.8234 24.7447 29.6204C23.9477 30.4175 23.4999 31.4985 23.4999 32.6256V33.0006H26.4999V32.6256C26.4999 32.2941 26.6316 31.9762 26.866 31.7417C27.1004 31.5073 27.4184 31.3756 27.7499 31.3756C28.0814 31.3756 28.3994 31.5073 28.6338 31.7417C28.8682 31.9762 28.9999 32.2941 28.9999 32.6256C28.9999 33.2506 27.8079 34.1446 26.8499 34.8626C25.2799 36.0406 23.4999 37.3756 23.4999 39.5006C23.4999 39.8985 23.6579 40.28 23.9392 40.5613C24.2206 40.8426 24.6021 41.0006 24.9999 41.0006H31.9999V38.0006H27.6999C28.0099 37.7466 28.3449 37.5006 28.6549 37.2636C30.2199 36.0856 31.9999 34.7506 31.9999 32.6256Z" fill="#3BB77E"/>
<path d="M37.9998 29V34H37.2498C36.9185 33.9995 36.6008 33.8676 36.3665 33.6333C36.1322 33.399 36.0004 33.0814 35.9998 32.75V29H32.9998V32.75C33.0012 33.8768 33.4494 34.957 34.2461 35.7537C35.0428 36.5505 36.1231 36.9987 37.2498 37H37.9998V41H40.9998V29H37.9998Z" fill="#3BB77E"/>
<path d="M37.4724 20.5297C35.3946 18.4398 32.6194 17.1892 29.6774 17.0172C26.7355 16.8451 23.8334 17.7636 21.5262 19.597C19.2189 21.4304 17.6686 24.05 17.1716 26.9548C16.6746 29.8595 17.2659 32.8455 18.8324 35.3417L21.0244 33.1487C20.3075 31.7782 19.9566 30.2458 20.0056 28.6999C20.0547 27.154 20.502 25.647 21.3042 24.3246C22.1065 23.0023 23.2366 21.9095 24.585 21.152C25.9335 20.3944 27.4547 19.9979 29.0014 20.0007C31.3856 20.009 33.6696 20.9607 35.3544 22.6477L33.0014 25.0007H38.9104C39.0537 25.0008 39.1956 24.9727 39.3281 24.9179C39.4605 24.8631 39.5808 24.7828 39.6821 24.6814C39.7835 24.5801 39.8638 24.4598 39.9186 24.3274C39.9734 24.1949 40.0015 24.053 40.0014 23.9097V18.0007L37.4724 20.5297Z" fill="#3BB77E"/>
</g>
<defs>
<clipPath id="clip0_1_26">
<rect width="24" height="24" fill="white" transform="translate(17 17)"/>
</clipPath>
</defs>
</svg>
