<svg width="95" height="95" viewBox="0 0 95 95" fill="none" xmlns="http://www.w3.org/2000/svg">
<path d="M51.186 49.634L59.916 43.232L56.424 38.77L47.5 43.232L50.022 49.634H51.186Z" fill="white"/>
<path d="M62.8259 43.426L59.1399 46.142L58.1699 49.634H72.7199C75.6299 49.634 77.9579 52.156 77.5699 55.066L76.2119 65.154C78.1519 67.094 79.3159 68.646 79.3159 68.646L75.6299 69.616L73.8839 81.644C84.7479 81.838 88.2399 79.316 88.2399 79.316C98.9099 71.944 75.8239 46.918 75.8239 46.918C73.4959 44.59 66.5119 43.62 62.8259 43.426Z" fill="white"/>
<path d="M38.5761 38.77L34.8901 43.232L43.4261 49.634H44.9781L47.5001 43.232L38.5761 38.77Z" fill="white"/>
<path d="M6.76003 79.3161C6.76003 79.3161 10.252 81.8381 21.116 81.6441L19.37 69.6161L15.684 68.6461C15.684 68.6461 16.848 67.2881 18.788 65.1541L17.43 55.2601C17.042 52.3501 19.37 49.8281 22.28 49.8281H37.024L35.86 46.3361L32.174 43.4261V43.2321C28.294 43.6201 21.31 44.5901 18.982 46.9181C19.176 46.9181 -4.10397 71.9441 6.76003 79.3161Z" fill="white"/>
<path d="M75.63 54.872C75.824 53.126 74.466 51.574 72.72 51.574H22.28C20.534 51.574 19.176 53.126 19.37 54.872L23.25 83.39H71.75L75.63 54.872Z" fill="white"/>
<path d="M89.7919 80.868H89.4039C85.9119 83.584 77.9579 83.584 73.4959 83.584C73.4959 83.778 73.4959 87.076 73.4959 86.882C73.4959 88.628 71.9439 90.18 70.1979 90.18H24.8019C23.0559 90.18 21.5039 88.628 21.5039 86.882C21.5039 86.688 21.5039 83.39 21.5039 83.584C17.0419 83.584 9.47594 83.584 5.59594 80.868H5.20794L0.939941 88.24V94.06H94.0599V88.24L89.7919 80.868Z" fill="white"/>
<path d="M24.8018 88.24H70.1978C70.9739 88.24 71.5559 87.658 71.5559 86.882V85.33H23.4438V86.882C23.4438 87.658 24.0258 88.24 24.8018 88.24Z" fill="white"/>
<path d="M33.7258 26.548C35.0838 28.1 34.6958 29.652 35.6658 29.458C35.8598 29.458 36.0538 29.264 36.2478 29.07C38.5758 34.696 42.6498 39.546 47.4998 39.546C52.3498 39.546 56.4238 34.696 58.7518 29.07C58.9458 29.264 59.1398 29.458 59.3338 29.458C60.3038 29.652 60.1098 28.1 61.2738 26.548C62.2438 25.384 62.8258 23.832 62.4378 22.28C62.2438 21.31 61.8558 20.728 61.2738 20.728C61.0798 20.728 60.8858 20.728 60.6918 20.728C60.6918 20.728 62.8258 11.804 61.6618 6.95401C61.6618 6.95401 61.6618 1.91001 50.7978 1.13401C50.6038 1.13401 32.7558 -1.58199 32.7558 11.416C32.7558 13.744 33.1438 16.848 33.9198 20.534V20.34V20.728C32.5618 20.34 31.2038 23.638 33.7258 26.548ZM37.6058 13.744C37.7998 13.744 38.1878 13.55 38.3818 13.55C38.3818 13.55 46.7238 14.714 52.1558 10.834C52.5438 10.834 52.7378 11.028 53.1258 11.028C52.9318 12.192 53.1258 13.744 54.8718 13.938C54.8718 13.938 56.0358 13.356 57.3938 13.744C58.3638 15.102 58.7518 16.848 58.7518 19.176C58.7518 27.324 53.1258 37.606 47.3058 37.606C41.4858 37.606 35.8598 27.13 35.8598 19.176C36.2478 16.848 36.6358 15.102 37.6058 13.744Z" fill="white"/>
</svg>
