<svg width="58" height="58" viewBox="0 0 58 58" fill="none" xmlns="http://www.w3.org/2000/svg">
<rect width="58" height="58" rx="10" fill="white"/>
<path d="M35.2492 18.479C33.9269 17.2977 32.3075 16.4993 30.5653 16.1698C28.823 15.8403 27.0239 15.9922 25.3615 16.609C23.6991 17.2259 22.2364 18.2844 21.1308 19.6707C20.0252 21.0569 19.3186 22.7184 19.087 24.4764C18.879 26.0178 19.0453 27.5866 19.572 29.0501C20.0987 30.5136 20.9702 31.8287 22.1127 32.8841C22.8193 33.5037 23.3894 34.2633 23.787 35.1148C24.1846 35.9663 24.401 36.8911 24.4224 37.8306V38.005C24.4236 39.0649 24.8451 40.081 25.5945 40.8304C26.3439 41.5798 27.3601 42.0014 28.4199 42.0025H29.0916C30.1514 42.0014 31.1675 41.5798 31.917 40.8304C32.6664 40.081 33.0879 39.0649 33.0891 38.005V37.4103C33.1053 36.5799 33.3007 35.7627 33.6619 35.0148C34.0232 34.2669 34.5417 33.6059 35.1821 33.0769C36.2205 32.1674 37.0539 31.0476 37.6269 29.7917C38.1999 28.5358 38.4996 27.1725 38.5059 25.792C38.5123 24.4116 38.2252 23.0456 37.6638 21.7844C37.1023 20.5233 36.2793 19.3959 35.2492 18.4769V18.479ZM29.0916 39.8359H28.4199C27.9345 39.8353 27.4692 39.6422 27.1259 39.299C26.7827 38.9558 26.5896 38.4904 26.5891 38.005C26.5891 38.005 26.5815 37.7234 26.5804 37.6692H30.9224V38.005C30.9218 38.4904 30.7288 38.9558 30.3855 39.299C30.0423 39.6422 29.577 39.8353 29.0916 39.8359ZM33.7499 31.4498C32.5165 32.5196 31.6257 33.9293 31.1889 35.5025H29.8391V27.7199C30.4706 27.4966 31.0176 27.0837 31.4055 26.5376C31.7933 25.9915 32.003 25.339 32.0057 24.6692C32.0057 24.3819 31.8916 24.1063 31.6884 23.9032C31.4853 23.7 31.2097 23.5859 30.9224 23.5859C30.6351 23.5859 30.3595 23.7 30.1564 23.9032C29.9532 24.1063 29.8391 24.3819 29.8391 24.6692C29.8391 24.9565 29.7249 25.2321 29.5218 25.4352C29.3186 25.6384 29.0431 25.7525 28.7557 25.7525C28.4684 25.7525 28.1929 25.6384 27.9897 25.4352C27.7865 25.2321 27.6724 24.9565 27.6724 24.6692C27.6724 24.3819 27.5583 24.1063 27.3551 23.9032C27.1519 23.7 26.8764 23.5859 26.5891 23.5859C26.3018 23.5859 26.0262 23.7 25.823 23.9032C25.6199 24.1063 25.5057 24.3819 25.5057 24.6692C25.5085 25.339 25.7182 25.9915 26.106 26.5376C26.4938 27.0837 27.0409 27.4966 27.6724 27.7199V35.5025H26.2402C25.7516 33.8875 24.8353 32.4347 23.5882 31.2981C22.5298 30.3118 21.7755 29.0434 21.4145 27.6424C21.0535 26.2414 21.1007 24.7664 21.5507 23.3914C22.0007 22.0164 22.8346 20.7988 23.954 19.8823C25.0735 18.9658 26.4317 18.3887 27.8685 18.219C28.1663 18.1858 28.4658 18.1691 28.7655 18.1692C30.6262 18.1637 32.4225 18.8502 33.8052 20.0954C34.6065 20.8099 35.2468 21.6867 35.6836 22.6674C36.1204 23.6482 36.3438 24.7106 36.3388 25.7843C36.3339 26.8579 36.1009 27.9183 35.6551 28.895C35.2093 29.8717 34.561 30.7426 33.7532 31.4498H33.7499Z" fill="#3BB77E"/>
</svg>
